<svg width="50.000000" height="47.653442" viewBox="0 0 50 47.6534" fill="none" xmlns="http://www.w3.org/2000/svg" xmlns:xlink="http://www.w3.org/1999/xlink">
	<desc>
			Created with Pixso.
	</desc>
	<ellipse cx="25.000000" cy="23.826660" rx="25.000000" ry="23.826714" fill="#C8AA99"/>
	<path d="M34.0175 26.0229Q32.9315 24.6479 30.8847 24.0386Q32.3847 23.3042 33.2128 22.0386Q34.0487 20.7729 34.0487 19.1089Q34.0487 16.3276 31.869 14.8276Q29.6972 13.3198 25.7987 13.3198L15.3612 13.3198L15.3612 35.7183L26.4003 35.7183Q30.5956 35.7183 32.8534 34.0542Q35.1112 32.3901 35.1112 29.4136Q35.1112 27.3979 34.0175 26.0229ZM25.3456 22.6011L20.5175 22.6011L20.5175 17.1558L25.3456 17.1558Q27.0097 17.1558 27.8925 17.8667Q28.7753 18.5698 28.7753 19.8745Q28.7753 21.2261 27.9081 21.9136Q27.0409 22.6011 25.3456 22.6011ZM29.8612 28.9995Q29.8612 31.8745 26.2128 31.8745L20.5175 31.8745L20.5175 26.2104L26.2128 26.2104Q29.8612 26.2104 29.8612 28.9995Z" fill="#F1EBEBFF"/>
	<defs/>
</svg>
