<svg width="1031.000000" height="956.000000" viewBox="0 0 1031 956" fill="none" xmlns="http://www.w3.org/2000/svg" xmlns:xlink="http://www.w3.org/1999/xlink">
	<desc>
			Created with Pixso.
	</desc>
	<g opacity="0.041667">
		<path d="M317.423 698.534C317.423 698.534 317.869 559.146 232.975 553.396C148.082 547.645 154.043 440.483 223.792 402.947C293.542 365.411 242.468 297.064 154.619 295.611C66.7703 294.158 125.722 294.919 141.492 199.262C157.263 103.605 256.333 121.218 256.333 121.218C256.333 121.218 413.309 6.96259 455.984 574.697C557.743 583.174 573.194 739.382 568.2 816.426" stroke="#D32026"/>
	</g>
	<g opacity="0.083333">
		<path d="M331.238 677.005C331.238 677.005 342.21 538.193 258.073 523.926C173.937 509.658 187.968 403.503 260.287 373.126C332.606 342.749 286.888 269.524 199.483 259.241C112.078 248.957 170.748 255.645 193.682 161.938C216.617 68.2314 313.98 95.742 313.98 95.742C313.98 95.742 478.987 -2.28931 478.624 567.577C579.356 586.257 582.951 743.424 572.158 819.673" stroke="#D32026"/>
	</g>
	<g opacity="0.125000">
		<path d="M345.129 657.301C345.129 657.301 366.542 520.121 283.803 497.445C201.064 474.769 223.059 370.429 297.397 347.442C371.735 324.454 331.721 246.91 245.425 227.874C159.129 208.838 217.071 221.402 246.995 130.358C276.919 39.3149 371.833 76.5139 371.833 76.5139C371.833 76.5139 543.617 -4.54742 500.218 563.114C599.156 591.855 590.868 748.786 574.357 823.658" stroke="#D32026"/>
	</g>
	<g opacity="0.166667">
		<path d="M358.956 639.422C358.956 639.422 390.648 504.918 309.936 474.006C229.225 443.094 259.016 341.364 334.807 325.941C410.598 310.518 376.592 229.244 292.063 201.601C207.533 173.957 264.305 192.301 300.991 104.614C337.677 16.9267 429.421 63.5311 429.421 63.5311C429.421 63.5311 606.672 0.0567017 520.569 561.193C616.959 599.776 596.852 755.276 574.749 828.203" stroke="#D32026"/>
	</g>
	<g opacity="0.208333">
		<path d="M372.583 623.356C372.583 623.356 414.312 492.551 336.242 453.638C258.172 414.726 295.532 316.379 372.2 308.638C448.867 300.898 421.129 216.512 339.008 180.472C256.888 144.431 312.059 168.416 355.227 84.7522C398.396 1.08875 486.271 56.7437 486.271 56.7437C486.271 56.7437 667.641 11.3394 539.488 561.68C632.598 609.811 600.824 762.697 573.298 833.124" stroke="#D32026"/>
	</g>
	<g opacity="0.250000">
		<path d="M385.872 609.074C385.872 609.074 437.321 482.964 362.487 436.347C287.653 389.73 332.298 295.516 409.258 295.516C486.218 295.516 464.959 208.661 385.872 164.498C306.786 120.335 359.936 149.777 409.258 70.7741C458.581 -8.22888 541.919 56.0531 541.919 56.0531C541.919 56.0531 726.028 29.0645 556.8 564.42C645.921 621.734 602.721 770.842 569.982 838.232" stroke="#D32026"/>
	</g>
	<g opacity="0.291667">
		<path d="M398.692 596.536C398.692 596.536 459.468 476.08 388.439 422.114C317.411 368.148 369.001 278.782 445.668 286.523C522.336 294.264 507.716 205.602 432.266 153.652C356.816 101.702 407.54 136.378 462.641 62.6366C517.742 -11.1047 595.909 61.3149 595.909 61.3149C595.909 61.3149 781.355 52.9473 572.341 569.245C656.795 635.305 602.499 779.5 564.794 843.34" stroke="#D32026"/>
	</g>
	<g opacity="0.333333">
		<path d="M410.91 585.688C410.91 585.688 480.552 471.804 413.869 410.899C347.186 349.993 405.329 266.157 481.12 281.58C556.911 297.003 549.043 207.208 477.804 147.866C406.564 88.5251 454.476 128.171 514.936 60.2527C575.397 -7.66583 647.797 72.3406 647.797 72.3406C647.797 72.3406 833.17 82.6577 585.96 575.967C665.103 650.27 600.124 788.456 557.741 848.26" stroke="#D32026"/>
	</g>
	<g opacity="0.375000">
		<path d="M422.403 576.463C422.403 576.463 500.381 470.017 438.551 402.636C376.721 335.256 440.975 257.587 515.313 280.574C589.65 303.562 588.594 213.317 522.107 147.036C455.62 80.7549 500.355 125.069 565.715 63.4905C631.074 1.9118 697.156 88.8959 697.156 88.8959C697.156 88.8959 881.045 117.819 597.521 584.386C670.751 666.367 595.584 797.491 548.846 852.805" stroke="#D32026"/>
	</g>
	<g opacity="0.416667">
		<path d="M433.05 568.783C433.05 568.783 518.77 470.585 462.264 397.242C405.758 323.898 475.633 252.988 547.951 283.365C620.27 313.742 626.033 223.734 564.805 151.018C503.576 78.3018 544.795 126.947 614.556 72.1769C684.318 17.4066 743.579 110.706 743.579 110.706C743.579 110.706 924.583 158.016 606.903 594.289C673.663 683.324 588.879 806.388 538.142 856.791" stroke="#D32026"/>
	</g>
	<g opacity="0.458333">
		<path d="M442.738 562.556C442.738 562.556 535.548 473.354 484.796 394.606C434.044 315.858 509.008 252.245 578.758 289.781C648.507 327.317 661.045 238.231 605.542 159.633C550.038 81.035 587.426 133.641 661.058 86.096C734.69 38.551 786.68 137.457 786.68 137.457C786.68 137.457 963.423 202.792 614.004 605.452C673.786 700.863 580.031 814.931 525.68 860.038" stroke="#D32026"/>
	</g>
	<g opacity="0.500000">
		<path d="M451.361 557.679C451.361 557.679 550.554 478.152 505.943 394.599C461.331 311.046 540.814 255.215 607.463 299.624C674.113 344.032 693.331 256.547 643.974 172.665C594.617 88.7832 627.89 144.95 704.833 104.992C781.775 65.0339 826.098 168.792 826.098 168.792C826.098 168.792 997.234 251.657 618.735 617.639C671.085 718.7 569.072 822.903 511.521 862.372" stroke="#D32026"/>
	</g>
	<g opacity="0.541667">
		<path d="M458.821 554.042C458.821 554.042 563.643 484.794 525.511 397.072C487.379 309.35 570.776 261.726 633.818 312.67C696.86 363.613 722.612 278.393 679.778 189.866C636.944 101.339 665.848 160.639 745.516 128.572C825.183 96.5055 861.501 204.327 861.501 204.327C861.501 204.327 1025.73 304.09 621.031 630.608C665.549 736.55 556.054 830.096 495.742 863.627" stroke="#D32026"/>
	</g>
	<g opacity="0.583333">
		<path d="M465.029 551.521C465.029 551.521 574.682 493.081 543.32 401.857C511.958 310.633 598.633 271.579 657.588 328.669C716.543 385.76 748.633 303.455 712.648 210.956C676.662 118.458 700.978 180.439 782.764 156.508C864.55 132.576 892.587 243.641 892.587 243.641C892.587 243.641 1048.66 359.542 620.839 644.112C657.187 754.129 541.044 836.306 478.429 863.642" stroke="#D32026"/>
	</g>
	<g opacity="0.625000">
		<path d="M469.906 549.988C469.906 549.988 583.554 502.799 559.201 408.767C534.848 314.736 624.143 284.549 678.562 347.352C732.981 410.155 771.165 331.391 742.301 235.625C713.438 139.859 732.981 204.05 816.263 188.436C899.545 172.822 919.088 286.284 919.088 286.284C919.088 286.284 1065.81 417.442 618.13 657.898C646.031 771.152 524.124 841.334 459.683 862.268" stroke="#D32026"/>
	</g>
	<g opacity="0.666667">
		<path d="M473.38 549.304C473.38 549.304 590.16 513.726 573.001 417.603C555.842 321.48 647.077 300.389 696.546 368.427C746.015 436.465 790.002 361.841 768.481 263.536C746.96 165.231 761.58 231.144 845.725 223.966C929.869 216.788 940.769 331.784 940.769 331.784C940.769 331.784 1077.03 477.2 612.891 671.713C632.133 787.342 505.39 844.995 439.613 859.368" stroke="#D32026"/>
	</g>
	<g opacity="0.708333">
		<path d="M475.395 549.325C475.395 549.325 594.417 525.628 584.583 428.145C574.748 330.662 667.229 318.828 711.371 391.583C755.514 464.338 804.969 394.422 790.954 294.327C776.939 194.231 786.526 261.364 870.892 262.677C955.259 263.99 957.432 379.644 957.432 379.644C957.432 379.644 1082.19 538.213 605.131 685.3C615.567 802.425 484.952 847.111 418.34 854.813" stroke="#D32026"/>
	</g>
	<g opacity="0.750000">
		<path d="M475.902 549.902C475.902 549.902 596.261 538.267 593.826 440.166C591.39 342.065 684.413 339.578 722.893 416.496C761.373 493.414 815.92 428.739 809.517 327.614C803.115 226.49 807.596 294.331 891.542 304.125C975.488 313.919 968.919 429.352 968.919 429.352C968.919 429.352 1081.23 599.866 594.875 698.409C596.426 816.138 462.934 847.516 395.993 848.489" stroke="#D32026"/>
	</g>
	<g opacity="0.791667">
		<path d="M474.865 550.88C474.865 550.88 595.645 551.396 600.628 453.423C605.61 355.45 698.467 362.329 730.992 442.825C763.516 523.32 822.74 464.378 823.999 362.994C825.257 261.611 824.598 329.645 907.485 347.845C990.372 366.045 975.11 480.378 975.11 480.378C975.11 480.378 1074.11 661.539 582.17 710.789C574.825 828.226 439.47 846.057 372.712 840.293" stroke="#D32026"/>
	</g>
	<g opacity="0.833333">
		<path d="M472.26 552.103C472.26 552.103 592.541 564.765 604.904 467.666C617.266 370.567 709.25 386.76 735.572 470.221C761.894 553.682 825.343 500.92 834.254 400.049C843.164 299.179 837.369 366.887 918.566 393.355C999.764 419.823 975.926 532.186 975.926 532.186C975.926 532.186 1060.87 722.615 567.08 722.197C550.893 838.448 414.708 842.597 348.638 830.14" stroke="#D32026"/>
	</g>
	<g opacity="0.875000">
		<path d="M468.074 553.413C468.074 553.413 586.941 578.125 606.589 482.639C626.238 387.153 716.649 412.537 736.567 498.328C756.486 584.118 823.679 537.94 840.173 438.349C856.668 338.758 845.781 405.626 924.671 440.16C1003.56 474.695 971.327 584.232 971.327 584.232C971.327 584.232 1041.57 782.481 549.687 732.397C524.783 846.577 388.802 837.013 323.925 817.958" stroke="#D32026"/>
	</g>
	<g opacity="0.916667">
		<path d="M462.305 554.65C462.305 554.65 578.854 591.224 605.639 498.078C632.424 404.932 720.574 439.312 733.938 526.78C747.302 614.248 817.726 575.003 841.679 477.45C865.632 379.898 849.737 445.416 925.718 487.754C1001.7 530.092 961.316 635.971 961.316 635.971C961.316 635.971 1016.32 840.53 530.092 741.161C496.659 852.402 361.918 829.197 298.727 803.689" stroke="#D32026"/>
	</g>
	<g opacity="0.958333">
		<path d="M454.968 555.655C454.968 555.655 568.311 603.812 602.028 513.715C635.746 423.617 720.963 466.733 727.671 555.212C734.378 643.691 807.498 611.68 838.727 516.907C869.957 422.135 849.174 485.805 921.669 535.625C994.163 585.444 945.938 686.858 945.938 686.858C945.938 686.858 985.281 896.171 508.41 748.274C466.704 855.729 334.228 819.059 273.204 787.292" stroke="#D32026"/>
	</g>
	<path d="M446.083 556.27C446.083 556.27 555.358 615.645 595.752 529.281C636.145 442.918 717.782 494.442 717.782 583.259C717.782 672.076 793.042 647.541 831.309 556.27C869.577 465 844.065 526.337 912.521 583.259C980.978 640.18 925.277 736.358 925.277 736.358C925.277 736.358 948.663 948.832 484.776 753.532C435.113 856.383 305.911 806.528 247.518 768.744" stroke="#D32026"/>
	<defs/>
</svg>
