<svg width="1079.411499" height="1053.939331" viewBox="0 0 1079.41 1053.94" fill="none" xmlns="http://www.w3.org/2000/svg" xmlns:xlink="http://www.w3.org/1999/xlink">
	<desc>
			Created with Pixso.
	</desc>
	<g opacity="0.020833">
		<path d="M551.7 262.719L687.866 360.192C712.745 502.328 783.274 519.583 793.425 528.81C803.577 538.037 683.775 423.884 823.87 538.315C935.947 629.86 936.918 707.843 923.395 735.392L650.419 624.962" stroke="#D32026"/>
	</g>
	<g opacity="0.041667">
		<path d="M555.139 263.433L682.736 372.468C695.439 515.999 764.366 539.434 773.711 549.511C783.056 559.589 673.217 435.427 803.289 561.673C907.346 662.669 901.661 740.288 885.81 766.474L622.761 632.374" stroke="#D32026"/>
	</g>
	<g opacity="0.062500">
		<path d="M558.684 264.044L676.741 383.811C677.17 527.644 743.971 557.081 752.439 567.933C760.907 578.785 661.866 445.559 780.924 582.658C876.171 692.337 863.871 769.002 845.815 793.624L594.693 636.875" stroke="#D32026"/>
	</g>
	<g opacity="0.083333">
		<path d="M562.345 264.561L669.963 394.149C658.116 537.19 722.281 572.406 729.807 583.949C737.334 595.492 649.845 454.217 756.984 601.125C842.695 718.652 823.875 793.779 803.75 816.651L566.467 638.446" stroke="#D32026"/>
	</g>
	<g opacity="0.104167">
		<path d="M566.128 264.998L662.489 403.42C638.455 544.58 699.497 585.306 706.024 597.453C712.552 609.599 637.281 461.349 731.685 616.95C807.208 741.43 782.01 814.447 759.971 835.396L538.333 637.09" stroke="#D32026"/>
	</g>
	<g opacity="0.125000">
		<path d="M570.04 265.363L654.41 411.567C618.372 549.771 675.827 595.698 681.305 608.355C686.784 621.013 624.304 466.917 705.255 630.025C770.016 760.511 738.632 830.863 714.845 849.728L510.538 632.831" stroke="#D32026"/>
	</g>
	<g opacity="0.145833">
		<path d="M574.087 265.671L645.825 418.543C598.058 552.74 651.487 603.517 655.875 616.59C660.264 629.662 611.05 470.892 677.931 640.267C731.437 775.767 694.106 842.917 668.753 859.555L483.333 625.718" stroke="#D32026"/>
	</g>
	<g opacity="0.166667">
		<path d="M578.275 265.932L636.833 424.309C577.701 553.477 626.698 608.719 629.963 622.107C633.227 635.495 597.654 473.259 649.957 647.611C691.8 787.093 648.807 850.531 622.08 864.815L456.957 615.818" stroke="#D32026"/>
	</g>
	<g opacity="0.187500">
		<path d="M582.606 266.16L627.54 428.837C557.491 551.993 601.684 611.279 603.8 624.88C605.916 638.481 584.255 474.015 621.582 652.018C651.443 794.42 603.114 853.663 575.218 865.485L431.649 603.222" stroke="#D32026"/>
	</g>
	<g opacity="0.208333">
		<path d="M587.083 266.367L618.05 432.106C537.619 548.313 576.671 611.192 577.622 624.903C578.574 638.614 570.989 473.169 593.055 653.467C610.708 797.706 557.412 852.303 528.557 861.573L407.636 588.04" stroke="#D32026"/>
	</g>
	<g opacity="0.229167">
		<path d="M591.708 266.567L608.473 434.106C518.272 542.48 551.885 608.473 551.664 622.189C551.444 635.906 557.993 470.741 564.631 651.963C569.941 796.94 512.083 846.477 482.49 853.123L385.136 570.402" stroke="#D32026"/>
	</g>
	<g opacity="0.250000">
		<path d="M596.481 266.773L598.916 434.837C499.631 534.552 527.55 603.158 526.159 616.775C524.768 630.393 545.403 466.765 536.561 647.531C529.488 792.144 467.508 836.243 437.402 840.215L364.356 550.458" stroke="#D32026"/>
	</g>
	<g opacity="0.270833">
		<path d="M601.401 266.998L589.488 434.308C481.874 524.607 503.887 595.302 501.336 608.717C498.786 622.132 533.347 461.287 509.094 640.222C489.691 783.369 424.062 821.694 393.672 822.963L345.49 528.375" stroke="#D32026"/>
	</g>
	<g opacity="0.291667">
		<path d="M606.467 267.255L580.296 432.538C465.173 512.732 481.112 584.979 477.421 598.09C473.73 611.2 521.956 454.362 482.475 630.103C450.891 770.696 382.11 802.955 351.668 801.511L328.717 504.334" stroke="#D32026"/>
	</g>
	<g opacity="0.312500">
		<path d="M611.674 267.557L571.445 429.554C449.688 499.034 459.432 572.283 454.629 584.989C449.826 597.696 511.349 446.057 456.942 617.268C413.416 754.237 342.009 780.185 311.746 776.038L314.2 478.533" stroke="#D32026"/>
	</g>
	<g opacity="0.333333">
		<path d="M617.021 267.916L563.039 425.395C435.576 483.632 439.05 557.325 433.172 569.53C427.293 581.735 501.645 436.451 432.725 601.829C377.589 734.13 304.099 753.57 274.245 746.752L302.086 451.185" stroke="#D32026"/>
	</g>
	<g opacity="0.354167">
		<path d="M622.5 268.344L555.176 420.107C422.977 466.656 420.155 540.234 413.245 551.845C406.336 563.456 492.951 425.632 410.043 583.917C343.717 710.545 268.702 723.328 239.485 713.891L292.501 422.51" stroke="#D32026"/>
	</g>
	<g opacity="0.375000">
		<path d="M628.106 268.853L547.953 413.744C412.024 448.253 402.927 521.154 395.039 532.083C387.151 543.012 485.371 413.697 389.106 563.685C312.094 683.675 236.125 689.704 207.768 677.72L285.555 392.743" stroke="#D32026"/>
	</g>
	<g opacity="0.395833">
		<path d="M633.831 269.453L541.46 406.371C402.834 428.576 387.533 500.246 378.727 510.409C369.92 520.572 478.996 400.75 370.107 541.3C282.995 653.739 206.651 652.969 179.369 638.529L281.336 362.125" stroke="#D32026"/>
	</g>
	<g opacity="0.416667">
		<path d="M639.67 270.155L535.782 398.056C395.516 407.789 374.125 477.683 364.468 487.003C354.81 496.323 473.913 386.906 353.227 516.948C256.679 620.98 180.541 613.416 154.541 596.63L279.911 330.902" stroke="#D32026"/>
	</g>
	<g opacity="0.437500">
		<path d="M645.61 270.968L530.997 388.88C390.157 386.066 362.841 453.651 352.406 462.057C341.971 470.464 470.193 372.285 338.63 490.828C233.38 585.663 158.028 571.362 133.508 552.358L281.327 299.329" stroke="#D32026"/>
	</g>
	<g opacity="0.458333">
		<path d="M651.644 271.901L527.178 378.925C386.837 363.586 353.802 428.348 342.669 435.777C331.535 443.206 467.902 357.012 326.463 463.155C213.312 548.07 139.318 527.142 116.465 506.064L285.609 267.659" stroke="#D32026"/>
	</g>
	<g opacity="0.479167">
		<path d="M657.761 272.96L524.389 368.283C385.614 340.536 347.113 401.982 335.366 408.377C323.619 414.771 467.092 341.218 316.854 434.153C196.663 508.502 124.591 481.106 103.579 458.114L292.76 236.149" stroke="#D32026"/>
	</g>
	<g opacity="0.500000">
		<path d="M663.95 274.154L522.687 357.05C386.535 317.105 342.86 374.768 330.589 380.08C318.318 385.391 467.805 325.039 309.911 404.059C183.595 467.275 113.993 433.62 94.9819 408.89L302.76 205.052" stroke="#D32026"/>
	</g>
	<defs/>
</svg>
