<svg width="983.000122" height="966.570801" viewBox="0 0 983 966.571" fill="none" xmlns="http://www.w3.org/2000/svg" xmlns:xlink="http://www.w3.org/1999/xlink">
	<desc>
			Created with Pixso.
	</desc>
	<g opacity="0.800000">
		<g opacity="0.041667">
			<path d="M212.728 500.651L384.567 617.095C350.408 731.086 17.3975 847.987 377.898 787.257C738.399 726.528 875.812 393.74 724.559 664.318C603.556 880.78 671.398 765.871 720.444 681.358" stroke="#D32026"/>
		</g>
		<g opacity="0.083333">
			<path d="M209.725 476.611L369.316 605.395C323.72 716.264 -20.205 807.582 345.453 774.226C711.111 740.87 881.81 420.026 703.602 677.923C561.035 884.242 640.314 774.988 697.775 694.572" stroke="#D32026"/>
		</g>
		<g opacity="0.125000">
			<path d="M210.363 451.592L356.492 591.734C299.807 698.637 -52.415 763.678 315.618 757.949C683.651 752.22 886.336 445.762 682.529 689.017C519.482 883.62 609.596 780.854 675.034 705.146" stroke="#D32026"/>
		</g>
		<g opacity="0.166667">
			<path d="M214.732 425.872L346.286 576.306C278.943 678.43 -78.8953 716.698 288.711 738.64C656.318 760.583 889.447 470.843 661.592 697.603C479.307 879.011 579.569 783.515 652.486 713.091" stroke="#D32026"/>
		</g>
		<g opacity="0.208333">
			<path d="M222.893 399.734L338.872 559.316C261.383 655.884 -99.3484 667.088 265.034 716.534C629.417 765.98 891.216 495.164 641.047 703.704C440.911 870.535 550.558 783.036 630.399 718.432" stroke="#D32026"/>
		</g>
		<g opacity="0.250000">
			<path d="M234.877 373.467L334.397 540.981C247.352 631.258 -113.526 615.312 244.859 691.886C603.245 768.459 891.721 518.628 621.142 707.361C404.678 858.346 522.876 779.509 609.033 721.217" stroke="#D32026"/>
		</g>
		<g opacity="0.291667">
			<path d="M250.688 347.356L332.992 521.528C237.053 604.827 -121.226 561.854 228.434 664.972C578.095 768.09 891.054 541.145 602.124 708.634C370.98 842.624 496.829 773.05 588.647 721.513" stroke="#D32026"/>
		</g>
		<g opacity="0.333333">
			<path d="M270.299 321.689L334.761 501.193C230.659 576.88 -122.295 507.206 215.98 636.084C554.255 764.963 889.313 562.631 584.231 707.601C340.166 823.577 472.709 763.794 569.489 719.405" stroke="#D32026"/>
		</g>
		<g opacity="0.375000">
			<path d="M293.653 296.75L339.783 480.22C228.309 547.718 -116.633 451.874 207.682 605.532C531.997 759.189 886.605 583.01 567.694 704.358C312.564 801.437 450.792 751.901 551.797 714.998" stroke="#D32026"/>
		</g>
		<g opacity="0.416667">
			<path d="M320.669 272.815L348.114 458.855C230.119 517.651 -104.187 396.366 203.7 573.633C511.586 750.9 883.046 602.216 552.731 699.019C288.48 776.461 431.34 737.549 535.802 708.412" stroke="#D32026"/>
		</g>
		<g opacity="0.458333">
			<path d="M351.233 250.156L359.786 437.35C236.166 486.996 -84.958 341.193 204.156 540.721C493.271 740.249 878.755 620.19 539.552 691.71C268.189 748.927 414.595 720.935 521.719 699.787" stroke="#D32026"/>
		</g>
		<g opacity="0.500000">
			<path d="M385.209 229.031L374.804 415.955C246.499 456.074 -58.999 286.862 209.143 507.132C477.286 727.402 873.86 636.882 528.35 682.576C251.942 719.132 400.779 702.273 509.749 689.274" stroke="#D32026"/>
		</g>
		<g opacity="0.541667">
			<path d="M422.43 209.692L393.146 394.922C261.134 425.208 -26.4138 233.876 218.716 473.212C463.846 712.547 868.492 652.256 519.304 671.776C239.953 687.392 390.089 681.794 500.076 677.043" stroke="#D32026"/>
		</g>
		<g opacity="0.583333">
			<path d="M462.707 192.371L414.768 374.498C280.053 394.721 12.644 182.725 232.895 439.304C453.147 695.884 862.786 666.28 512.578 659.477C232.411 654.035 382.703 659.741 492.869 663.275" stroke="#D32026"/>
		</g>
		<g opacity="0.625000">
			<path d="M505.828 177.288L439.598 354.926C303.206 364.932 57.9706 133.885 251.667 405.756C445.364 677.627 856.878 678.935 508.315 645.862C229.464 619.403 378.768 636.37 488.277 648.161" stroke="#D32026"/>
		</g>
		<g opacity="0.666667">
			<path d="M551.559 164.647L467.542 336.444C330.511 336.157 109.316 87.8174 274.984 372.911C440.652 658.004 850.909 690.215 506.644 631.122C231.231 583.848 378.411 611.946 486.427 631.905" stroke="#D32026"/>
		</g>
		<g opacity="0.708333">
			<path d="M599.646 154.632L498.482 319.28C361.854 308.702 166.382 44.9597 302.761 341.106C439.139 637.252 845.018 700.119 507.67 615.457C237.792 547.728 381.727 586.744 487.43 614.718" stroke="#D32026"/>
		</g>
		<g opacity="0.750000">
			<path d="M649.816 147.406L532.274 303.653C397.089 282.865 228.829 5.72693 334.88 310.672C440.931 615.617 839.341 708.663 511.479 599.076C249.189 511.406 388.785 561.042 491.369 596.819" stroke="#D32026"/>
		</g>
		<g opacity="0.791667">
			<path d="M701.782 143.114L568.757 289.769C436.045 258.929 296.277 -29.4949 371.193 281.928C446.109 593.351 834.019 715.868 518.138 582.189C265.432 475.246 399.626 535.126 498.311 578.434" stroke="#D32026"/>
		</g>
		<g opacity="0.833333">
			<path d="M755.242 141.874L607.747 277.822C478.516 237.164 368.304 -60.3506 411.516 255.18C454.727 570.711 829.185 721.766 527.688 565.014C286.49 439.612 414.26 509.279 508.295 559.787" stroke="#D32026"/>
		</g>
		<g opacity="0.875000">
			<path d="M809.884 143.785L649.041 267.992C524.276 217.826 444.458 -86.5161 455.636 230.721C466.814 547.958 824.969 726.402 540.151 547.769C312.297 404.863 432.671 483.786 521.34 541.111" stroke="#D32026"/>
		</g>
		<g opacity="0.916667">
			<path d="M865.385 148.919L692.417 260.439C573.068 201.147 524.252 -107.706 503.311 208.824C482.37 525.353 821.497 729.827 555.526 530.673C342.749 371.35 454.812 458.93 537.44 522.635" stroke="#D32026"/>
		</g>
		<g opacity="0.958333">
			<path d="M921.417 157.326L737.642 255.311C624.615 187.343 607.173 -123.669 554.273 189.744C501.373 503.156 818.891 732.105 573.791 513.945C377.711 339.417 480.608 434.987 556.567 504.588" stroke="#D32026"/>
		</g>
		<path d="M977.647 169.031L784.463 252.734C678.62 176.609 692.684 -134.196 608.227 173.714C523.77 481.624 817.263 733.305 594.899 497.8C417.008 309.396 509.958 412.228 578.669 487.194" stroke="#D32026"/>
	</g>
	<defs/>
</svg>
