<svg width="1450.866821" height="1451.084473" viewBox="0 0 1450.87 1451.08" fill="none" xmlns="http://www.w3.org/2000/svg" xmlns:xlink="http://www.w3.org/1999/xlink">
	<desc>
			Created with Pixso.
	</desc>
	<g opacity="0.041667">
		<path d="M1145.48 730.637L936.469 785.583C878.036 682.507 1033.34 345.835 817.229 666.069C601.115 986.303 744.482 1316.44 656.466 1017.38C586.054 778.133 620.827 907.933 647.015 1002.74" stroke="#D32026"/>
	</g>
	<g opacity="0.083333">
		<path d="M1142.05 721.187L932.888 758.348C884.992 648.506 1066.83 320.565 827.037 626.402C587.241 932.239 697.858 1280.15 638.557 968.717C591.116 719.573 613.504 854.438 630.628 953.013" stroke="#D32026"/>
	</g>
	<g opacity="0.125000">
		<path d="M1136.7 715.218L928.983 734.312C891.988 618.538 1098.98 301.824 837.326 590.938C575.673 880.051 652.698 1243.08 622.563 921.652C598.455 664.506 608.287 803.409 616.217 905.004" stroke="#D32026"/>
	</g>
	<g opacity="0.166667">
		<path d="M1129.17 712.612L924.474 713.492C898.662 592.669 1129.23 289.593 847.711 559.781C566.192 829.97 609.038 1205.37 608.298 876.379C607.706 613.188 604.909 755.072 603.584 858.913" stroke="#D32026"/>
	</g>
	<g opacity="0.208333">
		<path d="M1119.2 713.224L919.089 695.885C904.656 570.932 1157.04 283.799 857.802 533.007C558.561 782.215 566.902 1167.12 595.563 833.078C618.492 565.846 603.085 709.631 592.516 814.928" stroke="#D32026"/>
	</g>
	<g opacity="0.250000">
		<path d="M1106.57 716.888L912.561 681.462C909.617 553.33 1181.9 284.326 867.217 510.656C552.53 736.987 526.304 1128.47 584.147 791.916C630.422 522.676 602.524 667.269 582.791 773.22" stroke="#D32026"/>
	</g>
	<g opacity="0.291667">
		<path d="M1091.06 723.413L904.631 670.169C913.198 539.832 1203.31 291.005 875.574 492.736C547.836 694.466 487.242 1089.54 573.828 753.044C643.096 483.846 602.919 628.144 574.172 733.943" stroke="#D32026"/>
	</g>
	<g opacity="0.333333">
		<path d="M1072.48 732.584L895.051 661.927C915.064 530.378 1220.8 303.62 882.504 479.216C544.209 654.812 449.708 1050.48 564.377 716.593C656.113 449.484 603.962 592.391 566.42 697.233" stroke="#D32026"/>
	</g>
	<g opacity="0.375000">
		<path d="M1050.67 744.169L883.587 656.637C914.894 524.877 1233.92 321.915 887.644 470.039C541.368 618.164 413.679 1011.41 555.559 682.677C669.063 419.691 605.336 560.119 559.284 663.206" stroke="#D32026"/>
	</g>
	<g opacity="0.416667">
		<path d="M1025.47 757.915L870.018 654.175C912.38 523.206 1242.27 345.586 890.649 465.111C539.026 584.636 379.121 972.468 547.132 651.391C681.541 394.53 606.722 531.41 552.511 631.957" stroke="#D32026"/>
	</g>
	<g opacity="0.458333">
		<path d="M996.789 773.557L854.138 654.397C907.234 525.217 1245.48 374.288 891.186 464.305C536.893 554.322 345.988 933.788 538.852 622.811C693.142 374.029 607.801 506.318 545.844 603.561" stroke="#D32026"/>
	</g>
	<g opacity="0.500000">
		<path d="M964.523 790.81L835.761 657.137C899.186 530.729 1243.21 407.641 888.944 467.465C534.677 527.288 314.227 895.501 530.474 596.989C703.473 358.18 608.259 484.873 539.027 578.071" stroke="#D32026"/>
	</g>
	<g opacity="0.541667">
		<path d="M928.611 809.379L814.72 662.212C887.992 539.537 1235.18 445.227 883.633 474.402C532.089 503.576 283.769 857.733 521.756 573.959C712.145 346.94 607.783 467.072 531.804 555.516" stroke="#D32026"/>
	</g>
	<g opacity="0.583333">
		<path d="M889.019 828.961L790.866 669.419C873.426 551.412 1221.13 486.597 874.984 484.901C528.837 483.204 254.539 820.61 512.453 553.734C718.785 340.232 606.069 452.89 523.92 535.906" stroke="#D32026"/>
	</g>
	<g opacity="0.625000">
		<path d="M845.741 849.244L764.072 678.541C855.292 566.099 1200.87 531.274 862.755 498.719C524.641 466.164 226.451 784.252 502.33 536.303C723.033 337.945 602.822 442.269 515.128 519.227" stroke="#D32026"/>
	</g>
	<g opacity="0.666667">
		<path d="M798.798 869.908L734.235 689.344C833.421 583.323 1174.24 578.751 846.733 515.586C519.223 452.421 199.412 748.769 491.156 521.636C724.551 339.93 597.759 435.128 505.188 505.44" stroke="#D32026"/>
	</g>
	<g opacity="0.708333">
		<path d="M748.239 890.634L701.273 701.582C807.671 602.789 1141.14 628.506 826.73 535.212C512.318 441.917 173.319 714.27 478.708 509.681C723.019 346.01 590.61 431.357 493.866 494.49" stroke="#D32026"/>
	</g>
	<g opacity="0.750000">
		<path d="M694.142 911.1L665.131 714.999C777.93 624.186 1101.51 679.996 802.59 557.282C503.669 434.568 148.063 680.853 464.772 500.365C718.139 355.975 581.122 430.822 480.942 486.294" stroke="#D32026"/>
	</g>
	<g opacity="0.791667">
		<path d="M636.609 930.988L625.773 729.331C744.116 647.189 1055.35 732.667 774.19 581.468C493.035 430.268 123.527 648.611 449.146 493.598C709.642 369.587 569.059 433.364 466.205 480.753" stroke="#D32026"/>
	</g>
	<g opacity="0.833333">
		<path d="M575.772 949.982L583.194 744.303C706.178 671.457 1002.69 785.953 741.438 607.419C480.188 428.884 99.5916 617.623 431.643 489.265C697.284 386.578 554.205 438.799 449.46 477.745" stroke="#D32026"/>
	</g>
	<g opacity="0.875000">
		<path d="M511.784 967.774L537.407 759.64C664.098 696.644 943.631 839.286 704.275 634.776C464.919 430.265 76.1299 587.964 412.086 487.237C680.851 406.655 536.365 446.923 430.527 477.13" stroke="#D32026"/>
	</g>
	<g opacity="0.916667">
		<path d="M444.825 984.066L488.455 775.06C617.888 722.394 878.317 892.097 662.676 663.167C447.035 434.237 53.0122 559.695 390.316 487.365C660.16 429.502 515.367 457.511 409.24 478.748" stroke="#D32026"/>
	</g>
	<g opacity="0.958333">
		<path d="M375.096 998.572L436.4 790.284C567.591 748.349 806.933 943.821 616.649 692.213C426.365 440.606 30.1069 532.868 366.192 489.488C635.06 454.783 491.062 470.319 385.455 482.425" stroke="#D32026"/>
	</g>
	<path d="M302.821 1011.01L381.333 805.031C513.282 774.146 729.717 993.899 566.238 721.529C402.758 449.159 7.28101 507.524 339.589 493.422C605.436 482.14 463.329 485.086 359.044 487.968" stroke="#D32026"/>
	<defs/>
</svg>
