<svg width="973.139648" height="925.998535" viewBox="0 0 973.14 925.999" fill="none" xmlns="http://www.w3.org/2000/svg" xmlns:xlink="http://www.w3.org/1999/xlink">
	<desc>
			Created with Pixso.
	</desc>
	<g opacity="0.041667">
		<path d="M753.98 418.442L576.294 327.784C597.755 218.401 907.475 75.8423 565.535 169.019C223.595 262.196 124.551 585.375 243.246 318.58C338.201 105.144 284.311 218.814 245.496 302.33" stroke="#D32026"/>
	</g>
	<g opacity="0.083333">
		<path d="M759.31 440.469L592.202 337.099C625.021 229.45 947.866 109.546 598.179 177.818C248.493 246.09 116.103 561.567 262.105 303.803C378.908 97.5928 313.402 207.175 266.049 287.743" stroke="#D32026"/>
	</g>
	<g opacity="0.125000">
		<path d="M761.222 463.778L605.965 348.483C649.892 243.387 983.403 147.049 628.632 189.897C273.86 232.745 109.132 538.118 281.332 291.348C419.091 93.9326 342.469 198.593 286.938 275.6" stroke="#D32026"/>
	</g>
	<g opacity="0.166667">
		<path d="M759.603 488.117L617.378 361.775C672.079 260.032 1013.72 187.994 656.562 205.092C299.406 222.19 103.593 515.135 300.679 281.237C458.347 94.1184 371.192 193.06 307.906 265.92" stroke="#D32026"/>
	</g>
	<g opacity="0.208333">
		<path d="M754.364 513.232L626.254 376.803C691.313 279.188 1038.48 231.998 681.658 223.215C324.834 214.433 99.4272 492.721 319.899 273.474C496.277 98.0776 399.252 190.547 328.692 258.706" stroke="#D32026"/>
	</g>
	<g opacity="0.250000">
		<path d="M745.448 538.857L632.427 393.38C707.349 300.636 1057.4 278.653 703.629 244.056C349.854 209.46 96.5679 470.973 338.749 268.047C532.493 105.707 426.336 191 349.039 253.94" stroke="#D32026"/>
	</g>
	<g opacity="0.291667">
		<path d="M732.822 564.727L635.75 411.309C719.964 324.141 1070.24 327.532 722.208 267.385C374.174 207.239 94.937 449.987 356.983 264.926C566.62 116.877 452.139 194.346 368.693 251.586" stroke="#D32026"/>
	</g>
	<g opacity="0.333333">
		<path d="M716.481 590.571L636.098 430.381C728.963 349.452 1076.8 378.191 737.153 292.953C397.509 207.714 94.4463 429.848 374.363 264.061C598.297 131.431 476.363 200.485 387.405 251.591" stroke="#D32026"/>
	</g>
	<g opacity="0.375000">
		<path d="M696.452 616.121L633.369 450.377C734.179 376.304 1076.92 430.173 748.253 320.491C419.584 210.808 95.0012 410.639 390.659 265.386C627.185 149.185 498.727 209.299 404.932 253.881" stroke="#D32026"/>
	</g>
	<g opacity="0.416667">
		<path d="M672.786 641.112L627.483 471.075C735.471 404.421 1070.51 483.01 755.321 349.719C440.129 216.427 96.4968 392.434 405.645 268.822C652.963 169.932 518.958 220.649 421.041 258.369" stroke="#D32026"/>
	</g>
	<g opacity="0.458333">
		<path d="M645.564 665.28L618.387 492.244C732.73 433.517 1057.52 536.228 758.206 380.342C458.889 224.455 98.823 375.298 419.109 274.268C675.337 193.443 536.806 234.376 435.511 264.946" stroke="#D32026"/>
	</g>
	<g opacity="0.500000">
		<path d="M614.895 688.369L606.05 513.652C725.878 463.298 1037.95 589.349 756.786 412.055C475.622 234.76 101.862 359.291 430.848 281.611C694.037 219.466 552.032 250.304 448.131 273.492" stroke="#D32026"/>
	</g>
	<g opacity="0.541667">
		<path d="M580.911 710.131L590.465 535.063C714.867 493.465 1011.84 641.897 750.972 444.544C490.1 247.19 105.491 344.462 440.674 290.723C708.82 247.731 564.423 268.24 458.707 283.868" stroke="#D32026"/>
	</g>
	<g opacity="0.583333">
		<path d="M543.772 730.33L571.653 556.242C699.681 523.717 979.301 693.401 740.708 477.49C502.115 261.58 109.584 330.852 448.411 301.463C719.474 277.951 573.784 287.974 467.057 295.925" stroke="#D32026"/>
	</g>
	<g opacity="0.625000">
		<path d="M503.662 748.739L549.656 576.956C680.337 553.753 940.473 743.396 725.974 510.571C511.474 277.747 114.009 318.492 453.903 313.677C725.819 309.825 579.945 309.286 473.019 309.498" stroke="#D32026"/>
	</g>
	<g opacity="0.666667">
		<path d="M460.784 765.145L524.543 596.975C656.882 583.269 895.553 791.429 706.78 543.463C518.008 295.497 118.632 307.404 457.007 327.2C727.706 343.037 582.759 331.939 476.447 324.412" stroke="#D32026"/>
	</g>
	<g opacity="0.708333">
		<path d="M415.366 779.353L496.404 616.076C629.393 611.971 844.784 837.063 683.175 575.842C521.565 314.622 123.32 297.602 457.599 341.857C725.022 377.262 582.104 355.691 477.216 340.48" stroke="#D32026"/>
	</g>
	<g opacity="0.750000">
		<path d="M367.656 791.181L465.356 634.039C597.983 639.568 788.454 879.879 655.238 607.391C522.022 334.904 127.937 289.086 455.576 357.465C717.688 412.168 577.886 380.288 475.222 357.51" stroke="#D32026"/>
	</g>
	<g opacity="0.791667">
		<path d="M317.914 800.467L431.533 650.657C562.789 665.777 726.891 919.478 623.082 637.798C519.272 356.118 132.347 281.85 450.854 373.831C705.66 447.417 570.038 405.47 470.377 375.299" stroke="#D32026"/>
	</g>
	<g opacity="0.833333">
		<path d="M266.422 807.071L395.095 665.732C523.981 690.327 660.464 955.488 586.852 666.759C513.24 378.03 136.419 275.877 443.369 390.761C688.929 482.669 558.521 430.975 462.622 393.64" stroke="#D32026"/>
	</g>
	<g opacity="0.875000">
		<path d="M213.47 810.867L356.217 679.075C481.753 712.959 589.579 987.561 546.724 693.98C503.869 400.399 140.021 271.14 433.078 408.053C667.524 517.583 543.321 456.535 451.914 412.32" stroke="#D32026"/>
	</g>
	<g opacity="0.916667">
		<path d="M159.363 811.756L315.098 690.514C436.328 733.429 514.676 1015.38 502.905 719.184C491.133 422.986 143.027 267.604 419.96 425.503C641.507 551.823 524.455 481.885 438.236 431.126" stroke="#D32026"/>
	</g>
	<g opacity="0.958333">
		<path d="M104.412 809.659L271.951 699.89C387.951 751.509 436.226 1038.67 455.627 742.107C475.029 445.546 145.313 265.223 404.016 442.906C610.978 585.054 501.968 506.759 421.592 449.843" stroke="#D32026"/>
	</g>
	<path d="M48.9365 804.518L227.003 707.058C336.893 766.988 354.725 1057.17 405.152 762.5C455.579 467.833 146.764 263.942 385.267 460.058C576.069 616.951 475.929 530.896 402.01 468.256" stroke="#D32026"/>
	<defs/>
</svg>
