<svg width="854.871338" height="1045.740967" viewBox="0 0 854.871 1045.74" fill="none" xmlns="http://www.w3.org/2000/svg" xmlns:xlink="http://www.w3.org/1999/xlink">
	<desc>
			Created with Pixso.
	</desc>
	<g opacity="0.041667">
		<path d="M361.631 179.055C438.568 449.904 711.058 18.8184 396.327 429.172C144.542 757.456 130.883 443.648 155.526 245.708" stroke="#D32026"/>
	</g>
	<g opacity="0.083333">
		<path d="M373.715 186.964C439.081 459.533 733.448 50.5352 397.407 436.385C128.573 745.064 128.982 434.008 162.79 239.895" stroke="#D32026"/>
	</g>
	<g opacity="0.125000">
		<path d="M386.386 196.01C440.002 469.552 755.44 83.7627 399.009 444.05C113.864 732.28 128.339 424.828 171.219 235.074" stroke="#D32026"/>
	</g>
	<g opacity="0.166667">
		<path d="M399.597 206.216C441.316 479.98 776.961 118.458 401.117 452.196C100.442 719.186 128.944 416.182 180.779 231.306" stroke="#D32026"/>
	</g>
	<g opacity="0.208333">
		<path d="M413.302 217.603C443.009 490.84 797.94 154.575 403.714 460.848C88.3331 705.867 130.783 408.141 191.431 228.65" stroke="#D32026"/>
	</g>
	<g opacity="0.250000">
		<path d="M427.45 230.189C445.065 502.149 818.31 192.063 406.781 470.032C77.5591 692.408 133.841 400.775 203.135 227.162" stroke="#D32026"/>
	</g>
	<g opacity="0.291667">
		<path d="M441.992 243.987C447.467 513.926 838.001 230.868 410.299 479.772C68.1377 678.895 138.098 394.155 215.848 226.895" stroke="#D32026"/>
	</g>
	<g opacity="0.333333">
		<path d="M456.877 259.008C450.195 526.186 856.95 270.933 414.246 490.089C60.083 665.413 143.53 388.347 229.523 227.899" stroke="#D32026"/>
	</g>
	<g opacity="0.375000">
		<path d="M472.051 275.261C453.232 538.944 875.091 312.196 418.6 501.002C53.4061 652.048 150.11 383.415 244.111 230.218" stroke="#D32026"/>
	</g>
	<g opacity="0.416667">
		<path d="M487.462 292.748C456.557 552.214 892.365 354.592 423.337 512.533C48.1138 638.885 157.81 379.422 259.561 233.896" stroke="#D32026"/>
	</g>
	<g opacity="0.458333">
		<path d="M503.057 311.471C460.15 566.009 908.713 398.054 428.432 524.696C44.2084 626.009 166.596 376.426 275.819 238.971" stroke="#D32026"/>
	</g>
	<g opacity="0.500000">
		<path d="M518.78 331.427C463.989 580.339 924.077 442.512 433.862 537.508C41.6895 613.504 176.434 374.486 292.828 245.477" stroke="#D32026"/>
	</g>
	<g opacity="0.541667">
		<path d="M534.577 352.609C468.053 595.214 938.404 487.892 439.598 550.981C40.553 601.452 187.284 373.654 310.531 253.445" stroke="#D32026"/>
	</g>
	<g opacity="0.583333">
		<path d="M550.394 375.008C472.319 610.64 951.645 534.119 445.614 565.128C40.7898 589.935 199.106 373.981 328.867 262.903" stroke="#D32026"/>
	</g>
	<g opacity="0.625000">
		<path d="M566.176 398.613C476.763 626.626 963.75 581.114 451.882 579.959C42.3878 579.034 211.855 375.516 347.775 273.873" stroke="#D32026"/>
	</g>
	<g opacity="0.666667">
		<path d="M581.867 423.406C481.363 643.175 974.675 628.798 458.373 595.481C45.3313 568.827 225.485 378.303 367.192 286.372" stroke="#D32026"/>
	</g>
	<g opacity="0.708333">
		<path d="M597.414 449.367C486.093 660.291 984.379 677.087 465.058 611.7C49.6011 559.391 239.947 382.382 387.052 300.417" stroke="#D32026"/>
	</g>
	<g opacity="0.750000">
		<path d="M612.762 476.476C490.929 677.975 992.823 725.899 471.907 628.621C55.1733 550.799 255.19 387.792 407.291 316.016" stroke="#D32026"/>
	</g>
	<g opacity="0.791667">
		<path d="M627.857 504.705C495.847 696.228 999.973 775.148 478.889 646.246C62.0217 543.124 271.161 394.565 427.839 333.176" stroke="#D32026"/>
	</g>
	<g opacity="0.833333">
		<path d="M642.648 534.026C500.822 715.047 1005.8 824.748 485.975 664.575C70.1157 536.437 287.805 402.733 448.631 351.898" stroke="#D32026"/>
	</g>
	<g opacity="0.875000">
		<path d="M657.081 564.408C505.828 734.432 1010.27 874.611 493.132 683.607C79.4216 530.803 305.063 412.321 469.598 372.18" stroke="#D32026"/>
	</g>
	<g opacity="0.916667">
		<path d="M671.105 595.815C510.84 754.375 1013.37 924.65 500.331 703.337C89.9023 526.286 322.878 423.351 490.67 394.015" stroke="#D32026"/>
	</g>
	<g opacity="0.958333">
		<path d="M684.671 628.211C515.832 774.873 1015.07 974.776 507.539 723.761C101.518 522.949 341.189 435.842 511.778 417.39" stroke="#D32026"/>
	</g>
	<path d="M697.73 661.554C520.781 795.916 1015.35 1024.9 514.726 744.871C114.224 520.848 359.935 449.809 532.853 442.292" stroke="#D32026"/>
	<defs/>
</svg>
