<svg width="876.119080" height="961.799805" viewBox="0 0 876.119 961.8" fill="none" xmlns="http://www.w3.org/2000/svg" xmlns:xlink="http://www.w3.org/1999/xlink">
	<desc>
			Created with Pixso.
	</desc>
	<g opacity="0.041667">
		<path id="Vector 4" d="M750.467 608.578C608.133 669.867 903.738 831.775 612.671 641.295C379.817 488.911 557.925 467.486 676.086 475.822" stroke="#D32027"/>
	</g>
	<g opacity="0.083333">
		<path id="Vector 4" d="M734.71 597.343C589.364 651.1 876.09 828.256 595.391 622.804C370.831 458.442 549.816 446.368 667.379 460.877" stroke="#D32027"/>
	</g>
	<g opacity="0.125000">
		<path id="Vector 4" d="M718.402 586.54C570.441 632.616 847.503 824.536 577.941 604.674C362.291 428.785 541.663 426.095 658.305 446.736" stroke="#D32027"/>
	</g>
	<g opacity="0.166667">
		<path id="Vector 4" d="M701.521 576.137C551.352 614.407 817.989 820.564 560.303 586.896C354.154 399.961 533.421 406.663 648.823 433.38" stroke="#D32027"/>
	</g>
	<g opacity="0.208333">
		<path id="Vector 4" d="M684.047 566.106C532.081 596.464 787.563 816.293 542.46 569.459C346.377 371.992 525.047 388.066 638.892 420.787" stroke="#D32027"/>
	</g>
	<g opacity="0.250000">
		<path id="Vector 4" d="M665.961 556.414C512.614 578.777 756.242 811.675 524.392 552.352C338.913 344.893 516.497 370.296 628.474 408.93" stroke="#D32027"/>
	</g>
	<g opacity="0.291667">
		<path id="Vector 4" d="M647.246 547.028C492.94 561.335 724.044 806.665 506.085 535.563C331.717 318.681 507.728 353.344 617.53 397.785" stroke="#D32027"/>
	</g>
	<g opacity="0.333333">
		<path id="Vector 4" d="M627.888 537.916C473.044 544.127 690.993 801.216 487.52 519.078C324.742 293.368 498.698 337.195 606.023 387.322" stroke="#D32027"/>
	</g>
	<g opacity="0.375000">
		<path id="Vector 4" d="M607.873 529.043C452.916 527.142 657.111 795.285 468.683 502.885C317.941 268.965 489.365 321.836 593.919 377.511" stroke="#D32027"/>
	</g>
	<g opacity="0.416667">
		<path id="Vector 4" d="M587.189 520.375C432.544 510.367 622.425 788.829 449.559 486.968C311.265 245.48 479.687 307.25 581.185 368.321" stroke="#D32027"/>
	</g>
	<g opacity="0.458333">
		<path id="Vector 4" d="M565.826 511.876C411.917 493.788 586.964 781.807 430.133 471.312C304.667 222.917 469.626 293.417 567.788 359.716" stroke="#D32027"/>
	</g>
	<g opacity="0.500000">
		<path id="Vector 4" d="M543.776 503.511C391.025 477.393 550.759 774.178 410.392 455.901C298.099 201.279 459.141 280.316 553.699 351.662" stroke="#D32027"/>
	</g>
	<g opacity="0.541667">
		<path id="Vector 4" d="M521.034 495.243C369.859 461.166 513.842 765.904 390.325 440.717C291.511 180.568 448.196 267.924 538.891 344.121" stroke="#D32027"/>
	</g>
	<g opacity="0.583333">
		<path id="Vector 4" d="M497.595 487.036C348.411 445.094 476.247 756.95 369.918 425.745C284.855 160.78 436.754 256.217 523.336 337.056" stroke="#D32027"/>
	</g>
	<g opacity="0.625000">
		<path id="Vector 4" d="M473.458 478.854C326.672 429.162 438.012 747.281 349.163 410.964C278.084 141.911 424.78 245.167 507.013 330.427" stroke="#D32027"/>
	</g>
	<g opacity="0.666667">
		<path id="Vector 4" d="M448.62 470.66C304.637 413.353 399.175 736.864 328.049 396.358C271.149 123.953 412.24 234.745 489.898 324.192" stroke="#D32027"/>
	</g>
	<g opacity="0.708333">
		<path id="Vector 4" d="M423.085 462.417C282.299 397.654 359.776 725.668 306.568 381.907C264.002 106.898 399.101 224.922 471.972 318.31" stroke="#D32027"/>
	</g>
	<g opacity="0.750000">
		<path id="Vector 4" d="M396.856 454.089C259.652 382.046 319.856 713.666 284.713 367.591C256.598 90.731 385.335 215.664 453.217 312.738" stroke="#D32027"/>
	</g>
	<g opacity="0.791667">
		<path id="Vector 4" d="M369.939 445.639C236.693 366.514 279.459 700.831 262.475 353.391C248.889 75.4388 370.911 206.938 433.62 307.432" stroke="#D32027"/>
	</g>
	<g opacity="0.833333">
		<path id="Vector 4" d="M342.339 437.033C213.417 351.043 238.628 687.139 239.851 339.286C240.83 61.0043 355.802 198.71 413.166 302.348" stroke="#D32027"/>
	</g>
	<g opacity="0.875000">
		<path id="Vector 4" d="M314.067 428.233C189.822 335.614 197.408 672.569 216.835 325.257C232.377 47.4078 339.985 190.942 391.846 297.44" stroke="#D32027"/>
	</g>
	<g opacity="0.916667">
		<path id="Vector 4" d="M285.134 419.206C165.906 320.211 155.847 657.102 193.424 311.283C223.486 34.6274 323.435 183.596 369.652 292.663" stroke="#D32027"/>
	</g>
	<g opacity="0.958333">
		<path id="Vector 4" d="M255.552 409.918C141.668 304.818 113.992 640.721 169.616 297.342C214.116 22.6393 306.131 176.635 346.577 287.971" stroke="#D32027"/>
	</g>
	<path id="Vector 4" d="M225.336 400.333C117.109 289.418 71.8907 623.411 145.41 283.415C204.226 11.4171 288.055 170.017 322.618 283.317" stroke="#D32027"/>
	<defs/>
</svg>
