<svg width="1339.867432" height="1531.832031" viewBox="0 0 1339.87 1531.83" fill="none" xmlns="http://www.w3.org/2000/svg" xmlns:xlink="http://www.w3.org/1999/xlink">
	<desc>
			Created with Pixso.
	</desc>
	<g opacity="0.041667">
		<path id="Vector 7" d="M816.479 1071.69C816.479 1071.69 677.34 1027.77 639.939 1127.6C602.537 1227.44 497.661 1186.95 486.155 1091.76C474.649 996.581 387.298 1036.45 353.09 1141.16C318.881 1245.88 341.623 1175.54 251.903 1126.88C162.183 1078.23 216.726 965.111 216.726 965.111C216.726 965.111 161.07 741.623 744.381 867.265C790.797 748.085 952.673 778.214 1027.81 808.176" stroke="#D32027"/>
	</g>
	<g opacity="0.083333">
		<path id="Vector 7" d="M800.115 1048.45C800.115 1048.45 665.476 992.104 619.845 1088.39C574.214 1184.67 473.353 1134.82 469.96 1038.79C466.566 942.761 376.338 974.698 333.469 1076.13C290.601 1177.57 319.161 1109.41 234.061 1052.79C148.962 996.161 212.76 888.169 212.76 888.169C212.76 888.169 176.313 660.118 745.708 837.945C801.937 723.171 960.352 767.792 1032.53 804.448" stroke="#D32027"/>
	</g>
	<g opacity="0.125000">
		<path id="Vector 7" d="M785.603 1025.69C785.603 1025.69 656.487 957.35 602.974 1049.34C549.46 1141.33 453.383 1082.52 458.128 986.372C462.873 890.225 370.454 913.988 319.252 1011.37C268.05 1108.75 302.211 1043.3 222.379 979.135C142.547 914.971 215.116 812.925 215.116 812.925C215.116 812.925 198.155 582.045 749.299 810.705C814.915 701.211 968.662 759.983 1037.33 803.056" stroke="#D32027"/>
	</g>
	<g opacity="0.166667">
		<path id="Vector 7" d="M772.89 1003.57C772.89 1003.57 650.281 923.759 589.293 1010.76C528.305 1097.76 437.742 1030.43 450.589 934.895C463.436 839.362 369.53 854.771 310.384 947.359C251.238 1039.95 290.74 977.694 216.783 906.48C142.827 835.267 223.613 739.944 223.613 739.944C223.613 739.944 226.268 507.993 754.967 785.745C829.469 682.364 977.38 754.84 1042.02 804.001" stroke="#D32027"/>
	</g>
	<g opacity="0.208333">
		<path id="Vector 7" d="M761.914 982.254C761.914 982.254 646.745 891.581 578.746 972.927C510.747 1054.27 426.389 978.935 447.239 884.745C468.09 790.554 373.412 797.492 306.772 884.582C240.133 971.672 284.674 913.092 217.157 835.37C149.639 757.648 238.027 669.774 238.027 669.774C238.027 669.774 260.278 438.517 762.508 763.247C845.33 666.766 986.278 752.396 1046.4 807.271" stroke="#D32027"/>
	</g>
	<g opacity="0.250000">
		<path id="Vector 7" d="M752.596 961.899C752.596 961.899 645.744 861.052 571.251 936.126C496.758 1011.2 419.246 928.427 447.943 836.296C476.639 744.165 381.909 742.579 308.283 823.507C234.656 904.436 283.899 849.975 223.334 766.336C162.768 682.698 258.087 602.942 258.087 602.942C258.087 602.942 299.764 374.139 771.703 743.376C862.214 654.528 995.126 752.659 1050.27 812.831" stroke="#D32027"/>
	</g>
	<g opacity="0.291667">
		<path id="Vector 7" d="M744.845 942.65C744.845 942.65 647.122 832.396 566.703 900.627C486.284 968.859 416.208 879.28 452.531 789.909C488.855 700.538 394.794 690.44 314.741 764.592C234.689 838.744 288.258 788.815 235.106 699.897C181.954 610.979 283.477 539.947 283.477 539.947C283.477 539.947 344.262 315.339 782.319 726.273C879.83 645.735 1003.69 755.621 1053.44 820.631" stroke="#D32027"/>
	</g>
	<g opacity="0.333333">
		<path id="Vector 7" d="M738.559 924.646C738.559 924.646 650.71 805.824 564.976 866.693C479.243 927.562 417.136 831.86 460.81 745.93C504.484 659.999 411.808 641.466 325.939 708.277C240.069 775.087 297.557 730.072 252.223 636.551C206.888 543.029 313.843 481.263 313.843 481.263C313.843 481.263 393.275 262.559 794.115 712.062C897.885 640.448 1011.76 761.252 1055.73 830.605" stroke="#D32027"/>
	</g>
	<g opacity="0.375000">
		<path id="Vector 7" d="M733.625 908.016C733.625 908.016 656.318 781.531 565.922 834.574C475.527 887.617 421.862 786.52 472.554 704.684C523.247 622.848 432.661 596.021 341.628 654.982C250.595 713.943 311.564 674.183 274.393 576.771C237.221 479.358 348.794 427.326 348.794 427.326C348.794 427.326 446.267 216.191 806.84 700.843C916.078 638.697 1019.1 769.5 1056.95 842.669" stroke="#D32027"/>
	</g>
	<g opacity="0.416667">
		<path id="Vector 7" d="M729.919 892.879C729.919 892.879 663.742 759.694 569.373 804.507C475.003 849.321 430.188 743.599 487.514 666.479C544.839 589.361 457.033 554.444 361.529 605.106C266.025 655.769 330.011 621.568 301.285 521.005C272.56 420.442 387.901 378.542 387.901 378.542C387.901 378.542 502.675 176.583 820.236 692.694C934.111 640.489 1025.49 780.295 1056.94 856.724" stroke="#D32027"/>
	</g>
	<g opacity="0.458333">
		<path id="Vector 7" d="M727.308 879.343C727.308 879.343 672.765 740.47 575.14 776.713C477.515 812.956 441.892 703.413 505.413 631.598C568.934 559.783 484.576 517.042 385.329 559.021C286.081 601 352.597 572.617 332.536 469.669C312.474 366.722 430.707 335.271 430.707 335.271C430.707 335.271 561.906 144.026 834.04 687.669C951.686 645.802 1030.73 793.548 1055.54 872.654" stroke="#D32027"/>
	</g>
	<g opacity="0.500000">
		<path id="Vector 7" d="M725.65 867.502C725.65 867.502 683.156 723.999 583.018 751.396C482.88 778.792 456.719 666.262 525.953 600.298C595.187 534.333 514.919 484.094 412.683 517.069C310.447 550.044 378.987 527.696 367.743 423.147C356.498 318.598 476.722 297.837 476.722 297.837C476.722 297.837 623.349 118.76 847.984 685.798C968.504 654.588 1034.61 809.148 1052.6 890.33" stroke="#D32027"/>
	</g>
	<g opacity="0.541667">
		<path id="Vector 7" d="M724.797 857.439C724.797 857.439 694.675 710.398 592.786 728.74C490.898 747.081 474.399 632.42 548.819 572.809C623.239 513.197 547.672 455.841 443.225 479.562C338.779 503.282 408.821 487.139 406.479 381.785C404.137 276.43 525.437 266.517 525.437 266.517C525.437 266.517 686.376 100.971 861.801 687.087C984.28 666.772 1036.94 826.971 1047.97 909.61" stroke="#D32027"/>
	</g>
	<g opacity="0.583333">
		<path id="Vector 7" d="M724.592 849.223C724.592 849.223 707.073 699.763 604.208 708.91C501.345 718.057 494.633 602.138 573.672 549.333C652.712 496.528 582.421 432.492 476.559 446.778C370.697 461.063 441.708 451.248 448.287 345.89C454.865 240.531 576.318 241.541 576.318 241.541C576.318 241.541 750.344 90.7861 875.226 691.521C998.73 682.255 1037.55 846.873 1041.53 930.341" stroke="#D32027"/>
	</g>
	<g opacity="0.625000">
		<path id="Vector 7" d="M724.878 842.908C724.878 842.908 720.093 692.166 617.037 692.049C513.98 691.933 517.107 575.637 600.164 530.041C683.222 484.444 618.742 414.215 512.27 418.957C405.798 423.699 477.238 420.286 492.687 315.726C508.136 211.166 628.818 223.09 628.818 223.09C628.818 223.09 814.607 88.2742 887.993 699.055C1011.58 700.909 1036.27 868.694 1033.16 952.355" stroke="#D32027"/>
	</g>
	<g opacity="0.666667">
		<path id="Vector 7" d="M725.49 838.535C725.49 838.535 733.477 687.659 631.013 678.279C528.548 668.899 541.489 553.113 627.932 515.072C714.376 477.03 656.197 401.143 549.926 396.306C443.655 391.468 514.98 394.483 539.181 291.517C563.383 188.551 682.375 211.299 682.375 211.299C682.375 211.299 878.513 93.4478 899.846 709.627C1022.58 722.586 1032.94 892.26 1022.78 975.478" stroke="#D32027"/>
	</g>
	<g opacity="0.708333">
		<path id="Vector 7" d="M726.263 836.129C726.263 836.129 746.96 686.268 645.868 667.696C544.775 649.124 567.432 534.729 656.603 504.532C745.774 474.335 694.341 393.368 589.078 378.987C483.816 364.606 554.484 374.026 587.254 273.438C620.024 172.849 736.421 206.249 736.421 206.249C736.421 206.249 941.414 106.259 910.533 723.147C1031.48 747.113 1027.44 917.385 1010.3 999.526" stroke="#D32027"/>
	</g>
	<g opacity="0.750000">
		<path id="Vector 7" d="M727.028 835.702C727.028 835.702 760.279 687.995 661.327 660.373C562.376 632.75 594.576 520.616 685.797 498.494C777.017 476.372 732.719 390.94 629.268 367.126C525.816 343.312 595.288 359.065 636.377 261.62C677.466 164.174 790.382 207.971 790.382 207.971C790.382 207.971 1002.67 126.604 919.809 739.505C1038.05 774.295 1019.63 943.871 995.643 1024.31" stroke="#D32027"/>
	</g>
	<g opacity="0.791667">
		<path id="Vector 7" d="M727.62 837.248C727.62 837.248 773.17 692.819 677.113 656.356C581.056 619.894 622.555 510.874 715.13 496.995C807.706 483.116 770.881 393.87 670.027 360.803C569.173 327.737 636.92 349.705 686.016 256.144C735.112 162.583 843.687 216.443 843.687 216.443C843.687 216.443 1061.66 154.318 927.445 758.568C1042.07 803.918 1009.42 971.505 978.771 1049.63" stroke="#D32027"/>
	</g>
	<g opacity="0.833333">
		<path id="Vector 7" d="M727.87 840.748C727.87 840.748 785.375 700.698 692.943 655.672C600.511 610.646 650.992 505.571 744.218 500.041C837.445 494.51 808.373 402.129 710.884 360.062C613.395 317.995 678.903 346.009 735.631 257.045C792.36 168.081 895.768 231.595 895.768 231.595C895.768 231.595 1117.76 189.184 933.219 780.185C1043.37 835.75 996.733 1000.07 959.648 1075.29" stroke="#D32027"/>
	</g>
	<g opacity="0.875000">
		<path id="Vector 7" d="M727.618 846.167C727.618 846.167 796.638 711.56 708.535 658.314C620.432 605.069 679.512 504.737 772.679 507.598C865.846 510.458 844.749 415.645 751.368 364.897C657.986 314.15 720.755 347.997 784.685 264.307C848.614 180.616 946.069 253.301 946.069 253.301C946.069 253.301 1170.39 230.928 936.928 804.18C1041.75 869.537 981.492 1029.35 938.257 1101.08" stroke="#D32027"/>
	</g>
	<g opacity="0.916667">
		<path id="Vector 7" d="M726.704 853.457C726.704 853.457 806.714 725.319 723.61 664.258C640.506 603.198 707.735 508.374 800.134 519.603C892.534 530.832 879.572 434.309 791.008 375.267C702.444 316.225 761.997 355.648 832.641 277.869C903.285 200.089 994.044 281.391 994.044 281.391C994.044 281.391 1218.99 279.225 938.381 830.367C1037.09 905.019 963.657 1059.1 914.601 1126.81" stroke="#D32027"/>
	</g>
	<g opacity="0.958333">
		<path id="Vector 7" d="M724.972 862.554C724.972 862.554 815.364 741.859 737.891 673.448C660.419 605.038 735.285 516.443 826.213 535.956C917.141 555.469 912.413 457.969 829.341 391.083C746.269 324.196 802.153 368.895 878.974 297.618C955.795 226.341 1039.17 315.642 1039.17 315.642C1039.17 315.642 1263.03 333.7 937.405 858.537C1029.25 941.914 943.2 1089.09 888.698 1152.26" stroke="#D32027"/>
	</g>
	<path id="Vector 7" d="M722.274 873.382C722.274 873.382 822.36 761.048 751.109 685.808C679.858 610.568 761.792 528.876 850.556 556.524C939.321 584.172 942.862 486.439 865.915 412.216C788.967 337.994 840.756 387.628 923.169 323.396C1005.58 259.164 1080.93 355.784 1080.93 355.784C1080.93 355.784 1302 393.929 933.848 888.467C1018.12 979.936 920.118 1119.09 860.583 1177.23" stroke="#D32027"/>
	<defs/>
</svg>
