<svg width="671.276123" height="772.172791" viewBox="0 0 671.276 772.173" fill="none" xmlns="http://www.w3.org/2000/svg" xmlns:xlink="http://www.w3.org/1999/xlink">
	<desc>
			Created with Pixso.
	</desc>
	<g opacity="0.020833">
		<path d="M182.761 364.015L217.872 269.031C295.36 257.922 294.548 207.054 298.287 200.071C302.025 193.089 254.902 275.232 299.112 178.217C334.481 100.606 378.914 103.81 396.709 115.114L374.899 309.799" stroke="#D32026"/>
	</g>
	<g opacity="0.041667">
		<path d="M182.648 361.528L225.666 273.411C305.794 271.303 308.758 221.921 313.105 215.572C317.451 209.224 263.099 283.556 315.58 194.488C357.565 123.233 402.798 131.302 420.166 144.244L383.322 330.459" stroke="#D32026"/>
	</g>
	<g opacity="0.062500">
		<path d="M182.461 358.958L233.058 278.378C315.217 285.288 321.934 237.767 326.856 232.101C331.777 226.435 270.609 292.391 330.962 211.946C379.244 147.59 424.932 160.463 441.741 174.944L390.144 351.273" stroke="#D32026"/>
	</g>
	<g opacity="0.083333">
		<path d="M182.203 356.299L239.994 283.869C323.558 299.744 333.977 254.447 339.437 249.506C344.896 244.565 277.377 301.643 345.142 230.434C399.354 173.467 445.15 191.046 461.272 206.956L395.314 372.056" stroke="#D32026"/>
	</g>
	<g opacity="0.104167">
		<path d="M181.88 353.546L246.425 289.817C330.758 314.537 344.8 271.807 350.756 267.629C356.712 263.452 283.356 311.217 358.018 249.786C417.747 200.641 463.302 222.792 478.614 240.011L398.797 392.625" stroke="#D32026"/>
	</g>
	<g opacity="0.125000">
		<path d="M181.496 350.695L252.305 296.152C336.766 329.528 354.324 289.692 360.73 286.309C367.137 282.926 288.503 321.016 369.493 269.83C434.285 228.881 479.252 255.435 493.637 273.831L400.57 412.798" stroke="#D32026"/>
	</g>
	<g opacity="0.145833">
		<path d="M181.06 347.742L257.593 302.8C341.538 344.579 362.478 307.938 369.287 305.376C376.096 302.813 292.782 330.938 379.484 290.386C448.845 257.946 492.883 288.701 506.231 308.134L400.621 432.397" stroke="#D32026"/>
	</g>
	<g opacity="0.166667">
		<path d="M180.575 344.683L262.25 309.685C345.04 359.548 369.204 326.382 376.363 324.66C383.522 322.938 296.163 340.882 387.916 311.275C461.319 287.589 504.092 322.312 516.303 342.634L398.954 451.246" stroke="#D32026"/>
	</g>
	<g opacity="0.187500">
		<path d="M180.05 341.518L266.245 316.73C347.251 374.297 374.453 344.859 381.908 343.99C389.363 343.121 298.623 350.749 394.73 332.31C471.616 317.56 512.798 355.985 523.779 377.042L395.584 469.178" stroke="#D32026"/>
	</g>
	<g opacity="0.208333">
		<path d="M179.49 338.244L269.55 323.854C348.155 388.689 378.189 363.202 385.884 363.193C393.578 363.184 300.147 360.437 399.877 353.308C479.66 347.604 518.939 389.44 528.605 411.071L390.54 486.029" stroke="#D32026"/>
	</g>
	<g opacity="0.229167">
		<path d="M178.905 334.862L272.143 330.98C347.749 402.588 380.387 381.247 388.262 382.097C396.136 382.948 300.726 369.848 403.319 374.082C485.393 377.469 522.469 422.397 530.748 444.438L383.863 501.647" stroke="#D32026"/>
	</g>
	<g opacity="0.250000">
		<path d="M178.3 331.371L274.007 338.027C346.039 415.863 381.032 398.83 389.027 400.534C397.022 402.238 300.36 378.884 405.035 394.449C488.775 406.901 523.366 454.58 530.194 476.862L375.607 515.888" stroke="#D32026"/>
	</g>
	<g opacity="0.270833">
		<path d="M177.684 327.774L275.132 344.916C343.041 428.388 380.123 415.792 388.178 418.337C396.233 420.882 299.052 387.451 405.013 414.229C489.782 435.652 521.625 485.717 526.95 508.072L365.838 528.617" stroke="#D32026"/>
	</g>
	<g opacity="0.291667">
		<path d="M177.064 324.071L275.511 351.57C338.781 440.042 377.669 431.98 385.722 435.346C393.776 438.712 296.818 395.459 403.258 433.246C488.41 463.476 517.262 515.548 521.044 537.805L354.634 539.713" stroke="#D32026"/>
	</g>
	<g opacity="0.312500">
		<path d="M176.448 320.266L275.146 357.912C333.294 450.712 373.693 447.244 381.683 451.406C389.674 455.567 293.676 402.822 399.786 451.331C484.673 490.137 510.315 543.819 512.525 565.809L342.082 549.065" stroke="#D32026"/>
	</g>
	<g opacity="0.333333">
		<path d="M175.844 316.362L274.04 363.869C326.625 460.29 368.227 461.444 376.094 466.369C383.961 471.294 289.654 409.458 394.625 468.318C478.602 515.407 500.839 570.29 501.46 591.846L328.281 556.577" stroke="#D32026"/>
	</g>
	<g opacity="0.354167">
		<path d="M175.26 312.365L272.207 369.371C318.828 468.679 361.316 474.445 369 480.096C376.683 485.748 284.784 415.291 387.819 484.056C470.246 539.068 488.908 594.735 487.936 615.692L313.34 562.168" stroke="#D32026"/>
	</g>
	<g opacity="0.375000">
		<path d="M174.702 308.278L269.663 374.349C309.965 475.789 353.017 486.123 360.458 492.458C367.9 498.793 279.109 420.252 379.422 498.398C459.672 560.914 474.618 616.941 472.059 637.14L297.375 565.767" stroke="#D32026"/>
	</g>
	<g opacity="0.395833">
		<path d="M174.179 304.108L266.431 378.742C300.107 481.541 343.394 496.365 350.537 503.335C357.68 510.305 272.673 424.277 369.501 511.209C446.964 580.755 458.079 636.716 453.953 656.003L280.51 567.325" stroke="#D32026"/>
	</g>
	<g opacity="0.416667">
		<path d="M173.697 299.861L262.537 382.489C289.332 485.866 332.525 505.067 339.315 512.619C346.105 520.171 265.528 427.311 358.135 522.368C432.22 598.413 439.42 653.881 433.76 672.11L262.877 566.801" stroke="#D32026"/>
	</g>
	<g opacity="0.437500">
		<path d="M173.262 295.545L258.016 385.538C277.725 488.705 320.495 512.137 326.88 520.213C333.266 528.29 257.733 429.305 345.413 531.763C415.557 613.729 418.787 668.283 411.635 685.314L244.614 564.176" stroke="#D32026"/>
	</g>
	<g opacity="0.458333">
		<path d="M172.882 291.166L252.903 387.839C265.377 490.011 307.399 517.496 313.331 526.035C319.263 534.575 249.348 430.219 331.435 539.298C397.104 626.561 396.34 679.785 387.75 695.49L225.861 559.445" stroke="#D32026"/>
	</g>
	<g opacity="0.479167">
		<path d="M172.562 286.732L247.242 389.35C252.385 489.75 293.339 521.078 298.772 530.016C304.206 538.953 240.442 430.019 316.31 544.89C377.004 636.786 372.252 688.276 362.289 702.534L206.765 552.617" stroke="#D32026"/>
	</g>
	<g opacity="0.500000">
		<path d="M172.307 282.252L241.078 390.035C238.851 487.898 278.425 522.83 283.319 532.098C288.213 541.366 231.085 428.684 300.157 548.471C355.415 644.301 346.71 693.664 335.451 706.367L187.475 543.72" stroke="#D32026"/>
	</g>
	<defs/>
</svg>
