<svg width="702.646851" height="710.409302" viewBox="0 0 702.647 710.409" fill="none" xmlns="http://www.w3.org/2000/svg" xmlns:xlink="http://www.w3.org/1999/xlink">
	<desc>
			Created with Pixso.
	</desc>
	<g opacity="0.041667">
		<path d="M604.846 405.9C465.966 472.02 697.812 550.681 475.602 450.032C297.834 369.513 460.806 328.052 564.512 317.386" stroke="#D32026"/>
	</g>
	<g opacity="0.083333">
		<path d="M592.997 399.762C452.906 460.687 673.853 552.006 463.815 438.693C295.785 348.043 457.709 313.439 559.675 307.469" stroke="#D32026"/>
	</g>
	<g opacity="0.125000">
		<path d="M580.573 394.025C439.653 449.588 649.096 553.314 451.806 427.647C293.974 327.114 454.407 299.464 554.352 298.205" stroke="#D32026"/>
	</g>
	<g opacity="0.166667">
		<path d="M567.559 388.669C426.198 438.717 623.562 554.566 439.562 416.891C292.361 306.751 450.862 286.129 548.513 289.586" stroke="#D32026"/>
	</g>
	<g opacity="0.208333">
		<path d="M553.944 383.675C412.53 428.072 597.274 555.726 427.066 406.42C290.9 286.974 447.036 273.438 542.124 281.6" stroke="#D32026"/>
	</g>
	<g opacity="0.250000">
		<path d="M539.717 379.022C398.636 417.645 570.255 556.755 414.307 396.226C289.548 267.803 442.89 261.389 535.156 274.235" stroke="#D32026"/>
	</g>
	<g opacity="0.291667">
		<path d="M524.87 374.688C384.51 407.431 542.532 557.616 401.271 386.305C288.262 249.255 438.39 249.981 527.58 267.475" stroke="#D32026"/>
	</g>
	<g opacity="0.333333">
		<path d="M509.396 370.65C370.14 397.424 514.133 558.271 387.946 376.647C286.997 231.348 433.499 239.212 519.37 261.306" stroke="#D32026"/>
	</g>
	<g opacity="0.375000">
		<path d="M493.288 366.884C355.52 387.616 485.089 558.685 374.322 367.246C285.708 214.095 428.184 229.075 510.499 255.709" stroke="#D32026"/>
	</g>
	<g opacity="0.416667">
		<path d="M476.545 363.368C340.641 378 455.43 558.823 360.387 358.093C284.353 197.51 422.411 219.565 500.945 250.666" stroke="#D32026"/>
	</g>
	<g opacity="0.458333">
		<path d="M459.164 360.074C325.496 368.568 425.192 558.647 346.133 349.177C282.886 181.602 416.148 210.673 490.685 246.155" stroke="#D32026"/>
	</g>
	<g opacity="0.500000">
		<path d="M441.144 356.979C310.079 359.309 394.408 558.125 331.55 340.49C281.264 166.381 409.365 202.387 479.702 242.154" stroke="#D32026"/>
	</g>
	<g opacity="0.541667">
		<path d="M422.488 354.055C294.385 350.216 363.116 557.224 316.631 332.019C279.443 151.855 402.032 194.697 467.976 238.639" stroke="#D32026"/>
	</g>
	<g opacity="0.583333">
		<path d="M403.198 351.277C278.409 341.279 331.353 555.91 301.369 323.753C277.382 138.028 394.123 187.589 455.491 235.586" stroke="#D32026"/>
	</g>
	<g opacity="0.625000">
		<path d="M383.28 348.616C262.147 332.488 299.16 554.155 285.758 315.682C275.037 124.904 385.61 181.049 442.236 232.968" stroke="#D32026"/>
	</g>
	<g opacity="0.666667">
		<path d="M362.742 346.047C245.597 323.832 266.576 551.927 269.794 307.792C272.368 112.484 376.47 175.058 428.198 230.759" stroke="#D32026"/>
	</g>
	<g opacity="0.708333">
		<path d="M341.591 343.542C228.754 315.3 233.643 549.198 253.472 300.07C269.335 100.768 366.679 169.6 413.369 228.929" stroke="#D32026"/>
	</g>
	<g opacity="0.750000">
		<path d="M319.838 341.071C211.619 306.881 200.403 545.941 236.789 292.503C265.897 89.7522 356.218 164.654 397.74 227.448" stroke="#D32026"/>
	</g>
	<g opacity="0.791667">
		<path d="M297.494 338.609C194.19 298.563 166.901 542.13 219.743 285.076C262.017 79.4335 345.067 160.199 381.308 226.287" stroke="#D32026"/>
	</g>
	<g opacity="0.833333">
		<path d="M274.574 336.126C176.468 290.336 133.18 537.741 202.334 277.777C257.657 69.8052 333.208 156.213 364.069 225.413" stroke="#D32026"/>
	</g>
	<g opacity="0.875000">
		<path d="M251.092 333.597C158.452 282.186 99.2842 532.753 184.56 270.59C252.781 60.8595 320.627 152.673 346.022 224.796" stroke="#D32026"/>
	</g>
	<g opacity="0.916667">
		<path d="M227.064 330.991C140.145 274.102 65.2598 527.142 166.425 263.5C247.356 52.5855 307.31 149.553 327.171 224.401" stroke="#D32026"/>
	</g>
	<g opacity="0.958333">
		<path d="M202.51 328.282C121.55 266.07 31.1521 520.891 147.928 256.492C241.349 44.9717 293.247 146.828 307.518 224.196" stroke="#D32026"/>
	</g>
	<path d="M177.449 325.444C102.669 258.08 -2.99341 513.983 129.074 249.55C234.727 38.0044 278.427 144.469 287.07 224.145" stroke="#D32026"/>
	<defs/>
</svg>
