<svg width="1482.991455" height="1496.094238" viewBox="0 0 1482.99 1496.09" fill="none" xmlns="http://www.w3.org/2000/svg" xmlns:xlink="http://www.w3.org/1999/xlink">
	<desc>
			Created with Pixso.
	</desc>
	<g opacity="0.800000">
		<g opacity="0.041667">
			<path id="Vector 9" d="M439.212 633.926L561.467 844.081C468.053 953.099 58.4974 922.505 468.69 1028C878.883 1133.49 1191.28 833.235 895.662 1058.48C659.165 1238.67 788.508 1144.74 882.742 1075.25" stroke="#D32027"/>
		</g>
		<g opacity="0.083333">
			<path id="Vector 9" d="M448.165 606.057L551.305 823.927C447.422 924.047 39.267 860.108 441.096 998.166C842.924 1136.22 1184.35 865.004 866.739 1063.42C612.649 1222.16 751.185 1139.91 852.214 1078.94" stroke="#D32027"/>
		</g>
		<g opacity="0.125000">
			<path id="Vector 9" d="M461.445 578.852L544.686 802.778C431.125 893.239 27.4762 796.44 417.882 966.012C808.289 1135.58 1176.15 895.467 838.959 1065.55C569.208 1201.62 715.883 1131.68 822.938 1079.7" stroke="#D32027"/>
		</g>
		<g opacity="0.166667">
			<path id="Vector 9" d="M479.008 552.659L541.715 780.937C419.34 861.049 23.27 732.128 399.282 931.922C775.295 1131.72 1166.78 924.531 812.587 1064.99C529.23 1177.35 682.926 1120.26 795.194 1077.66" stroke="#D32027"/>
		</g>
		<g opacity="0.208333">
			<path id="Vector 9" d="M500.773 527.819L542.47 758.712C412.212 827.866 26.7351 667.804 385.492 896.3C744.25 1124.8 1156.39 952.119 787.879 1061.88C493.072 1149.68 652.62 1105.87 769.246 1072.98" stroke="#D32027"/>
		</g>
		<g opacity="0.250000">
			<path id="Vector 9" d="M526.63 504.662L547 736.413C409.85 794.083 37.8994 604.099 376.671 859.557C715.442 1115.02 1145.1 978.162 765.078 1056.39C461.063 1118.96 625.25 1088.76 745.346 1065.84" stroke="#D32027"/>
		</g>
		<g opacity="0.291667">
			<path id="Vector 9" d="M556.436 483.507L555.323 714.352C412.326 760.099 56.7328 541.637 372.94 822.114C689.147 1102.59 1133.05 1002.6 744.412 1048.7C433.504 1085.57 601.079 1069.21 723.73 1056.42" stroke="#D32027"/>
		</g>
		<g opacity="0.333333">
			<path id="Vector 9" d="M590.019 464.656L567.433 692.838C419.676 726.314 83.1464 481.037 374.383 784.399C665.62 1087.76 1120.39 1025.39 726.092 1039.01C410.657 1049.9 580.346 1047.51 704.62 1044.95" stroke="#D32027"/>
		</g>
		<g opacity="0.375000">
			<path id="Vector 9" d="M627.179 448.394L583.29 672.176C431.898 693.126 116.994 422.902 381.043 746.839C645.093 1070.78 1107.26 1046.51 710.312 1027.54C392.752 1012.37 563.262 1023.96 688.212 1031.65" stroke="#D32027"/>
		</g>
		<g opacity="0.416667">
			<path id="Vector 9" d="M667.687 434.986L602.83 652.666C448.956 660.93 158.073 367.815 392.926 709.861C627.779 1051.91 1093.84 1065.93 697.249 1014.52C379.979 973.398 550.013 998.88 674.69 1016.76" stroke="#D32027"/>
		</g>
		<g opacity="0.458333">
			<path id="Vector 9" d="M711.289 424.676L625.957 634.596C470.772 630.112 206.124 316.337 409.993 673.89C613.862 1031.44 1080.26 1083.64 687.055 1000.19C372.49 933.427 540.754 972.61 664.207 1000.55" stroke="#D32027"/>
		</g>
		<g opacity="0.500000">
			<path id="Vector 9" d="M757.709 417.684L652.552 618.247C497.236 601.049 260.837 269.001 432.171 639.34C603.505 1009.68 1066.69 1099.66 679.862 984.792C370.397 892.901 535.611 945.488 656.901 983.267" stroke="#D32027"/>
		</g>
		<g opacity="0.541667">
			<path id="Vector 9" d="M806.647 414.205L682.466 603.885C528.201 574.103 321.851 226.31 459.345 606.616C596.839 986.922 1053.3 1113.99 675.781 968.593C373.77 852.271 534.676 917.861 652.88 965.196" stroke="#D32027"/>
		</g>
		<g opacity="0.583333">
			<path id="Vector 9" d="M857.786 414.406L715.525 591.759C563.486 549.621 388.755 188.729 491.363 576.108C593.972 963.487 1040.22 1126.69 674.897 951.855C382.638 811.989 538.012 890.082 652.231 946.613" stroke="#D32027"/>
		</g>
		<g opacity="0.625000">
			<path id="Vector 9" d="M910.791 418.428L751.533 582.104C602.876 527.93 461.094 156.687 528.036 548.19C594.977 939.693 1027.62 1137.78 677.27 934.847C396.989 772.5 545.647 862.504 655.012 927.799" stroke="#D32027"/>
		</g>
		<g opacity="0.666667">
			<path id="Vector 9" d="M965.314 426.382L790.271 575.136C646.128 509.338 538.374 130.568 569.139 523.217C599.905 915.865 1015.65 1147.33 682.938 917.841C416.768 734.249 557.58 835.478 661.257 909.041" stroke="#D32027"/>
		</g>
		<g opacity="0.708333">
			<path id="Vector 9" d="M1020.99 438.348L831.498 571.048C692.967 494.127 620.06 110.714 614.415 501.519C608.77 892.323 1004.46 1155.41 691.913 901.107C441.878 697.668 573.772 809.351 670.974 890.622" stroke="#D32027"/>
		</g>
		<g opacity="0.750000">
			<path id="Vector 9" d="M1077.46 454.378L874.955 570.013C743.089 482.554 705.585 97.4153 663.573 483.403C621.56 869.39 994.174 1162.09 704.18 884.914C472.184 663.175 594.156 784.463 684.142 872.824" stroke="#D32027"/>
		</g>
		<g opacity="0.791667">
			<path id="Vector 9" d="M1134.34 474.491L920.367 572.181C796.169 474.851 794.354 90.9174 716.294 469.149C638.233 847.381 984.939 1167.47 719.7 869.528C507.509 631.178 618.631 761.146 700.716 855.924" stroke="#D32027"/>
		</g>
		<g opacity="0.833333">
			<path id="Vector 9" d="M1191.26 498.674L967.442 577.676C851.858 471.215 885.745 91.4091 772.231 459.007C658.717 826.606 976.876 1171.64 738.412 855.207C547.64 602.058 647.067 739.719 720.626 840.192" stroke="#D32027"/>
		</g>
		<g opacity="0.875000">
			<path id="Vector 9" d="M1247.83 526.886L1015.88 586.599C909.786 471.817 979.117 99.0291 831.014 453.196C682.91 807.363 970.101 1174.73 760.226 842.2C592.326 576.18 679.299 720.485 743.774 825.891" stroke="#D32027"/>
		</g>
		<g opacity="0.916667">
			<path id="Vector 9" d="M1303.68 559.054L1065.36 599.023C969.567 476.794 1073.81 113.861 892.248 451.901C710.682 789.941 964.719 1176.83 785.03 830.75C641.279 553.883 715.139 703.734 770.037 813.268" stroke="#D32027"/>
		</g>
		<g opacity="0.958333">
			<path id="Vector 9" d="M1358.44 595.074L1115.56 614.996C1030.8 486.249 1169.17 135.933 955.524 455.274C741.877 774.614 960.827 1178.09 812.692 821.084C694.185 535.478 754.367 689.735 799.272 802.564" stroke="#D32027"/>
		</g>
		<path id="Vector 9" d="M1411.75 634.814L1166.16 634.536C1093.07 500.252 1264.52 165.22 1020.41 463.431C776.312 761.641 958.508 1178.63 843.055 813.418C750.693 521.246 796.741 678.734 831.31 794" stroke="#D32027"/>
	</g>
	<defs/>
</svg>
