<svg width="32.000000" height="31.520752" viewBox="0 0 32 31.5208" fill="none" xmlns="http://www.w3.org/2000/svg" xmlns:xlink="http://www.w3.org/1999/xlink">
	<desc>
			Created with Pixso.
	</desc>
	<path d="M11.0464 0.000244141C10.3414 -0.000732422 9.62415 0.0842285 9.00708 0.239258C8.32495 0.414307 7.7406 0.648926 7.3186 1.0188C6.72327 0.915039 6.15674 1.0415 5.70764 1.33911C5.19263 1.68066 4.83252 2.21582 4.62598 2.82642C4.25708 3.91699 4.36011 5.28052 5.08569 6.40796L4.80042 6.40796C3.95154 6.40796 3.25403 7.1311 3.25403 8.00977C3.25403 8.88867 3.95154 9.61475 4.80042 9.61475L5.48291 9.61475C5.82361 10.3948 6.46533 11.0691 7.18958 11.6072C7.49622 11.835 7.82153 12.0349 8.1532 12.2083L7.9718 12.874C7.90405 12.8389 7.82971 12.8198 7.75403 12.8176C7.64832 12.8159 7.54443 12.8474 7.45667 12.9084L5.9093 13.9771C5.729 14.1008 5.64258 14.3281 5.6925 14.5459L2.43848 15.5112C2.35303 15.5376 2.27551 15.5864 2.21375 15.6531L0.708618 17.2551C0.637573 17.3311 0.589844 17.4265 0.571533 17.5305C0.571533 17.5305 0 20.76 0 24.0393C-0.00109863 24.3359 0.231567 24.5769 0.518188 24.5757L0.518188 30.9844C0.51709 31.2795 0.74707 31.5198 1.03223 31.5208L19.6139 31.5208C19.9005 31.522 20.1332 31.281 20.1321 30.9844L20.1321 24.5757C20.4172 24.5747 20.6472 24.3345 20.6461 24.0393C20.6461 20.76 20.0756 17.5303 20.0756 17.5303C20.0573 17.4263 20.0096 17.3308 19.9385 17.2549L18.4365 15.6531C18.3737 15.5857 18.2955 15.5369 18.2086 15.511L14.9557 14.5457C15.0061 14.3284 14.9204 14.1013 14.741 13.9771L13.1906 12.9084C13.0957 12.8438 12.9832 12.8135 12.87 12.8218C12.8037 12.8264 12.739 12.8447 12.6794 12.8748L12.5 12.2183C12.8389 12.043 13.1708 11.8394 13.4839 11.6069C14.2081 11.0691 14.8497 10.3945 15.1906 9.61475L15.8729 9.61475C16.7218 9.61475 17.4193 8.88843 17.4193 8.00952C17.4193 7.13086 16.7218 6.40771 15.8729 6.40771L15.5575 6.40771C15.9044 5.44702 15.9868 4.45312 15.9979 3.60767C15.8361 2.43042 15.2394 1.53882 14.4517 0.968506C13.6638 0.398193 12.701 0.123291 11.7429 0.0302734C11.5148 0.0100098 11.2814 0.000488281 11.0464 0L11.0464 0.000244141ZM18.8407 0.79541C18.1307 0.79541 17.7036 1.71606 18.1472 2.28979L19.6139 4.19141L19.6139 14.1545C19.6139 14.886 20.1997 15.4912 20.9062 15.4912L30.7126 15.4912C31.4192 15.4912 32 14.886 32 14.1545L32 2.13232C32 1.40088 31.4192 0.79541 30.7126 0.79541L18.8407 0.79541ZM11.0585 1.0752C11.2529 1.07617 11.4485 1.08325 11.6472 1.09546C12.4768 1.17578 13.2679 1.41846 13.8568 1.84473C14.442 2.26831 14.8389 2.85327 14.9657 3.74609C14.9879 4.51001 14.8583 5.15601 14.626 5.91479C12.8782 5.89429 11.4706 5.69604 10.4546 5.38257C9.38135 5.05127 8.75903 4.58813 8.54236 4.20312C8.45923 4.07617 8.37122 3.96973 8.27515 3.89648C8.01965 3.76709 7.7113 3.87622 7.58569 4.14062C7.17249 5.00781 6.47546 5.29053 6.04333 5.52856C5.64832 4.74414 5.36475 3.86743 5.5968 3.18164C5.74146 2.75391 5.98401 2.4248 6.26416 2.23926C6.52417 2.06665 6.82324 1.99878 7.21875 2.09106C7.34155 2.21948 7.54883 2.4231 7.91028 2.67749C8.14661 2.84521 8.46985 2.78149 8.63 2.53564C8.79004 2.2915 8.72864 1.95947 8.49292 1.7937C8.40955 1.73486 8.37305 1.69531 8.3064 1.64233C8.55396 1.50928 8.87744 1.37402 9.255 1.2771C9.89905 1.12646 10.4751 1.073 11.0585 1.07593L11.0585 1.0752ZM19.1421 1.86401L30.7126 1.86401C30.8613 1.86401 30.9678 1.97852 30.9678 2.13232L30.9678 14.1545C30.9678 14.3083 30.8613 14.4226 30.7126 14.4226L20.9062 14.4226C20.7576 14.4226 20.6461 14.3083 20.6461 14.1545L20.6461 4.00244C20.6455 3.88159 20.6053 3.76465 20.5322 3.67065L19.1421 1.86401ZM22.7117 3.20093C22.5748 3.20166 22.4437 3.2583 22.3473 3.35889C22.251 3.45947 22.197 3.5957 22.1976 3.7373L22.1976 6.94019C22.197 7.08179 22.2509 7.21802 22.3473 7.3186C22.4437 7.41919 22.5748 7.47607 22.7117 7.47656C22.8485 7.47607 22.9796 7.41919 23.076 7.3186C23.1725 7.21802 23.2263 7.08179 23.2258 6.94019L23.2258 6.40796L24.2581 6.40796L24.2581 6.94019C24.2578 7.01074 24.271 7.08081 24.2971 7.146C24.3231 7.21118 24.3613 7.27051 24.4095 7.32031C24.4579 7.37036 24.5153 7.40967 24.5782 7.43652C24.6414 7.46338 24.709 7.47705 24.7772 7.47656C24.9141 7.47607 25.0452 7.41919 25.1416 7.3186C25.238 7.21802 25.2919 7.08179 25.2914 6.94019L25.2914 3.7373C25.2919 3.5957 25.238 3.45947 25.1416 3.35889C25.0452 3.2583 24.9141 3.20166 24.7772 3.20093L22.7117 3.20093ZM26.8417 3.20093C26.7736 3.20068 26.7061 3.21436 26.6431 3.24121C26.5801 3.26807 26.5229 3.30762 26.4747 3.35742C26.4266 3.40723 26.3884 3.46655 26.3624 3.53174C26.3365 3.59692 26.3234 3.66699 26.3236 3.7373L26.3236 6.94019C26.3234 7.01074 26.3365 7.08057 26.3625 7.14575C26.3884 7.21094 26.4266 7.27026 26.4747 7.32007C26.5229 7.36987 26.5802 7.40942 26.6432 7.43628C26.7061 7.46313 26.7736 7.47681 26.8417 7.47656L28.129 7.47656C28.835 7.47656 29.4214 6.87061 29.4214 6.13965C29.4214 5.83936 29.3188 5.56299 29.1532 5.33813C29.3186 5.11426 29.4214 4.83911 29.4214 4.53882C29.4214 3.80811 28.835 3.20093 28.129 3.20093L26.8417 3.20093ZM23.2258 4.27051L24.2581 4.27051L24.2581 5.33936L23.2258 5.33936L23.2258 4.27051ZM27.3558 4.27051L28.129 4.27051C28.2809 4.27051 28.3881 4.38159 28.3881 4.53882C28.3881 4.69604 28.2809 4.80298 28.129 4.80298L27.3558 4.80298L27.3558 4.27051ZM8.08472 5.29858C8.56616 5.77393 9.26697 6.1333 10.1572 6.40796C11.2565 6.74707 12.6807 6.9436 14.3982 6.97778L14.3982 8.64014C14.3129 9.29956 13.7097 10.1243 12.8821 10.7388C12.0527 11.3547 11.0228 11.7522 10.3367 11.7522C9.65063 11.7522 8.62073 11.3547 7.79138 10.7388C6.96375 10.1243 6.36047 9.29956 6.27515 8.64014L6.27515 6.79712C6.7074 6.57397 7.48877 6.08691 8.08472 5.29858ZM27.3558 5.87158L28.129 5.87158C28.2809 5.87158 28.3881 5.98267 28.3881 6.13965C28.3881 6.29712 28.2809 6.40796 28.129 6.40796L27.3558 6.40796L27.3558 5.87158ZM4.80042 7.47656L5.24292 7.47656L5.24292 8.54614L4.80042 8.54614C4.50549 8.54614 4.28625 8.31519 4.28625 8.00977C4.28625 7.70459 4.50549 7.47656 4.80042 7.47656ZM15.4304 7.47656L15.8729 7.47656C16.1678 7.47656 16.3871 7.70459 16.3871 8.00977C16.3871 8.31519 16.1678 8.54614 15.8729 8.54614L15.4304 8.54614L15.4304 7.47656ZM22.7117 8.54614C22.5756 8.54688 22.4451 8.60303 22.3488 8.70264C22.2524 8.80249 22.1981 8.9375 22.1976 9.07837L22.1976 12.2854C22.1981 12.4263 22.2524 12.5615 22.3488 12.6611C22.4451 12.7607 22.5756 12.8171 22.7117 12.8176L24.7772 12.8176C24.9135 12.8171 25.0438 12.7607 25.1401 12.6611C25.2365 12.5615 25.2908 12.4263 25.2914 12.2854C25.291 12.1443 25.2368 12.0088 25.1405 11.9089C25.0442 11.8091 24.9136 11.7527 24.7772 11.7522L23.2258 11.7522L23.2258 9.61475L24.7772 9.61475C24.9141 9.61426 25.0452 9.55737 25.1416 9.45679C25.238 9.3562 25.2919 9.22021 25.2914 9.07837C25.2908 8.9375 25.2365 8.80249 25.1401 8.70264C25.0438 8.60303 24.9135 8.54688 24.7772 8.54614L22.7117 8.54614ZM26.8417 8.54614C26.7048 8.54565 26.5734 8.60156 26.4762 8.70117C26.379 8.80103 26.3241 8.93677 26.3236 9.07837L26.3236 12.2854C26.3241 12.427 26.379 12.5627 26.4762 12.6626C26.5734 12.7625 26.7048 12.8181 26.8417 12.8176L28.129 12.8176C28.835 12.8176 29.4214 12.2146 29.4214 11.4839L29.4214 9.87891C29.4214 9.14819 28.835 8.54614 28.129 8.54614L26.8417 8.54614ZM27.3558 9.61475L28.129 9.61475C28.2809 9.61475 28.3881 9.72168 28.3881 9.87891L28.3881 11.4839C28.3881 11.6411 28.2809 11.7522 28.129 11.7522L27.3558 11.7522L27.3558 9.61475ZM9.11487 12.6143C9.52832 12.7439 9.9408 12.8176 10.3367 12.8176C10.726 12.8176 11.131 12.7471 11.5374 12.6216L11.7983 13.5859L10.3236 14.8069L8.84985 13.5859L9.11487 12.6143ZM7.7157 14.0166L9.55237 15.5352L8.77417 16.3398L7.00708 14.5051L7.7157 14.0166ZM12.9314 14.0166L13.6442 14.5051L11.8719 16.3398L11.0988 15.5352L12.9314 14.0166ZM6.4436 15.436L8.32556 17.3823L8.76416 18.7483L7.75 27.1785C7.72717 27.3684 7.80383 27.5571 7.95166 27.6721L9.8075 29.1143L9.8075 30.4521L4.64819 30.4521L4.64819 24.5757C4.93335 24.5747 5.16345 24.3345 5.16235 24.0393L5.16235 19.7668C5.16345 19.4717 4.93335 19.2314 4.64819 19.2305C4.36157 19.2292 4.12891 19.4702 4.13 19.7668L4.13 23.5061L1.07861 23.5061C1.15515 20.7102 1.55591 17.9922 1.57764 17.8665L2.66028 16.7124L3.78333 17.4595C4.02222 17.6191 4.34094 17.5488 4.49597 17.302C4.65002 17.0547 4.58215 16.7246 4.34375 16.5642L3.82153 16.2158L6.4436 15.436ZM14.2046 15.436L16.8286 16.2156L16.3075 16.5642C16.0677 16.7231 15.9978 17.0535 16.1512 17.302C16.3062 17.5488 16.624 17.6191 16.8629 17.4595L17.9889 16.7102L19.0736 17.8665C19.0953 17.9922 19.4921 20.71 19.5686 23.5059L16.5161 23.5059L16.5161 19.7668C16.5172 19.4717 16.2871 19.2314 16.002 19.2305C15.7153 19.2292 15.4828 19.47 15.4839 19.7668L15.4839 24.0393C15.4828 24.3359 15.7153 24.5767 16.002 24.5757L16.002 30.4521L10.8397 30.4521L10.8397 29.1174L12.6986 27.6719C12.8463 27.5569 12.9241 27.3682 12.9012 27.1782L11.8821 18.7515L12.3256 17.3811L14.2046 15.436ZM10.3246 16.249L11.2822 17.2405L10.9849 18.1619L10.3256 18.1619L9.66638 18.1619L9.36792 17.2373L10.3246 16.249ZM24.2581 18.7139C23.4092 18.7139 22.7117 19.437 22.7117 20.3159L22.7117 20.8523C22.7117 21.1392 22.7916 21.4053 22.9214 21.6392C22.4889 21.9255 22.1976 22.4238 22.1976 22.9895L22.1976 23.5217C22.1976 24.0872 22.4883 24.5867 22.9204 24.8733C22.7909 25.1069 22.7117 25.3735 22.7117 25.6599L22.7117 26.1965C22.7117 26.4209 22.7578 26.6343 22.8397 26.8289C22.1674 27.0837 21.6794 27.7478 21.6794 28.5278L21.6794 29.1707C21.6794 30.168 22.4722 30.9844 23.4354 30.9844L30.2479 30.9844C31.2112 30.9844 32 30.168 32 29.1707L32 28.5278C32 27.7466 31.5137 27.0818 30.8407 26.8279C30.9222 26.6335 30.9678 26.4202 30.9678 26.1965L30.9678 25.6599C30.9678 25.0945 30.6764 24.5969 30.2439 24.3118C30.374 24.0769 30.4536 23.8091 30.4536 23.5217L30.4536 22.9895C30.4536 22.2546 29.9629 21.6331 29.3064 21.447C29.3788 21.2625 29.4214 21.0623 29.4214 20.8523L29.4214 20.3159C29.4214 19.437 28.7229 18.7139 27.874 18.7139L24.2581 18.7139ZM9.74695 19.2305L10.3256 19.2305L10.9001 19.2305L11.8376 27.0051L10.3256 28.1804L8.80945 27.0051L9.74695 19.2305ZM24.2581 19.7825L26.3236 19.7825L26.3236 21.3845L24.2581 21.3845C23.9631 21.3845 23.7439 21.1575 23.7439 20.8523L23.7439 20.3159C23.7439 20.0105 23.9631 19.7825 24.2581 19.7825ZM27.3558 19.7825L27.874 19.7825C28.1688 19.7825 28.3881 20.0105 28.3881 20.3159L28.3881 20.8523C28.3881 21.1575 28.1688 21.3845 27.874 21.3845L27.3558 21.3845L27.3558 19.7825ZM23.7439 22.4531L24.2581 22.4531L24.2581 24.0581L23.7439 24.0581C23.4491 24.0581 23.2258 23.8269 23.2258 23.5217L23.2258 22.9895C23.2258 22.6843 23.4491 22.4531 23.7439 22.4531ZM25.2914 22.4531L28.9072 22.4531C29.2021 22.4531 29.4214 22.6843 29.4214 22.9895L29.4214 23.5217C29.4214 23.8269 29.2021 24.0581 28.9072 24.0581L25.2914 24.0581L25.2914 22.4531ZM1.55139 24.5757L3.61597 24.5757L3.61597 30.4521L1.55139 30.4521L1.55139 24.5757ZM17.0353 24.5757L19.0999 24.5757L19.0999 30.4521L17.0353 30.4521L17.0353 24.5757ZM24.2581 25.1279L27.874 25.1279L27.874 26.7129L24.1774 26.7129C23.9263 26.6741 23.7439 26.4717 23.7439 26.1965L23.7439 25.6599C23.7439 25.3547 23.9631 25.1279 24.2581 25.1279ZM28.9072 25.1279L29.4214 25.1279C29.7162 25.1279 29.9395 25.3547 29.9395 25.6599L29.9395 26.1965C29.9395 26.4717 29.7538 26.6741 29.502 26.7129L28.9072 26.7129L28.9072 25.1279ZM23.4354 27.7817L30.2479 27.7817C30.6572 27.7817 30.9678 28.1042 30.9678 28.5278L30.9678 29.1707C30.9678 29.5942 30.6572 29.9158 30.2479 29.9158L23.4354 29.9158C23.0262 29.9158 22.7117 29.5942 22.7117 29.1707L22.7117 28.5278C22.7117 28.1042 23.0262 27.7817 23.4354 27.7817ZM24.2581 28.3149C23.9746 28.3162 23.745 28.5537 23.7439 28.8472C23.7428 29.1423 23.973 29.3823 24.2581 29.3835L29.4214 29.3835C29.708 29.3848 29.9407 29.1438 29.9395 28.8472C29.9384 28.552 29.7064 28.3137 29.4214 28.3149L24.2581 28.3149Z" fill-rule="nonzero" fill="#F1EBEB"/>
	<defs/>
</svg>
