<svg width="32.000000" height="31.520752" viewBox="0 0 32 31.5208" fill="none" xmlns="http://www.w3.org/2000/svg" xmlns:xlink="http://www.w3.org/1999/xlink">
	<desc>
			Created with Pixso.
	</desc>
	<path d="M13.1979 29.3035L22.2047 31.5039C22.4739 31.5686 22.7543 31.4414 22.859 31.2061L23.7179 29.2729C23.7932 29.2471 23.8616 29.2068 23.918 29.1545L26.8201 26.5071C26.9246 26.4124 26.9833 26.2834 26.9834 26.1489L26.9834 22.3933C26.9823 22.1157 26.7358 21.8911 26.4318 21.8901C26.1259 21.8889 25.877 22.1143 25.8757 22.3933L25.8757 24.6313L23.4226 24.6313C22.5695 24.6313 21.865 25.2739 21.865 26.0522L21.865 28.2932L5.12012 28.2932C4.7229 28.2932 4.42139 28.0142 4.42139 27.6516L4.42139 3.86914C4.42139 3.64355 4.37109 3.42798 4.27966 3.23169L25.177 3.23169C25.5742 3.23169 25.8757 3.50659 25.8757 3.86914L25.8757 8.21362C25.8768 8.49268 26.1259 8.71802 26.4318 8.7168C26.7358 8.71582 26.9822 8.49121 26.9834 8.21362L26.9834 5.68164L29.0645 6.18896L28.4761 8.19507C28.3967 8.46484 28.5726 8.74268 28.8687 8.8147C29.1644 8.88696 29.468 8.72632 29.5469 8.45654L30.2792 5.96484C30.3584 5.69507 30.1824 5.41797 29.8865 5.34619L26.9834 4.63477L26.9834 3.86914C26.9834 2.96436 26.1687 2.22021 25.177 2.22021L17.1069 2.22021L8.09253 0.0168457C8.03381 0.00292969 7.97339 -0.00292969 7.91296 0.00146484C7.67627 0.0151367 7.47583 0.165527 7.41431 0.374512L6.87451 2.2207L2.50256 2.2312C1.56348 2.28589 0.807617 2.99976 0.807617 3.86938L0.807617 7.30029C0.808716 7.57764 1.05505 7.80249 1.35925 7.80347L3.31384 7.80347L3.31384 14.4541L0.019043 25.5601C-0.0601807 25.8301 0.114746 26.1069 0.410645 26.1787L3.31372 26.8882L3.31372 27.6521C3.31372 28.521 4.06738 29.2371 5.00549 29.293L13.1979 29.3035ZM8.34229 1.12378L12.8257 2.22021L8.01892 2.22021L8.34229 1.12378ZM3.31384 6.79272L1.91516 6.79272L1.91516 3.8689C1.91516 3.50659 2.21777 3.23145 2.61499 3.23145C3.01221 3.23145 3.31384 3.50659 3.31384 3.8689L3.31384 6.79272ZM8.12927 4.04761C7.82214 4.04712 7.57312 4.27466 7.57434 4.55469L7.57434 7.30005C7.57544 7.57861 7.82385 7.80371 8.12927 7.80322L10.1357 7.80322C10.4398 7.802 10.6849 7.57739 10.6863 7.30005C10.6868 7.02124 10.4412 6.79395 10.1357 6.79272L8.68408 6.79272L8.68408 6.43164L10.1357 6.43164C10.4412 6.43066 10.687 6.2041 10.6863 5.92529C10.6852 5.64795 10.4397 5.42334 10.1357 5.42212L8.68408 5.42212L8.68408 5.05811L10.1357 5.05811C10.4398 5.05713 10.6849 4.83203 10.6863 4.55469C10.6868 4.27612 10.4412 4.04883 10.1357 4.04761L8.12927 4.04761ZM12.1205 4.04761C12.0182 4.05054 11.9189 4.08057 11.8339 4.13232C11.5773 4.28662 11.5074 4.60181 11.6781 4.83496L12.4763 5.92725L11.6781 7.01953C11.5104 7.25195 11.58 7.56421 11.8339 7.71826C12.0875 7.8728 12.4304 7.81079 12.6007 7.58008L13.1427 6.83789L13.6846 7.58008C13.855 7.81274 14.2003 7.87476 14.4547 7.71826C14.707 7.56299 14.7748 7.25098 14.6061 7.01953L13.8079 5.92725L14.6061 4.83496C14.7777 4.60303 14.7097 4.28784 14.4547 4.13232C14.3573 4.073 14.2418 4.04321 14.1248 4.04761C13.9465 4.05371 13.7827 4.13867 13.6846 4.27466L13.1427 5.0166L12.6007 4.27466C12.504 4.14038 12.3429 4.05591 12.167 4.04761C12.1515 4.04712 12.136 4.04712 12.1205 4.04761L12.1205 4.04761ZM16.1497 4.04761C15.8438 4.04858 15.5968 4.27588 15.598 4.55469L15.598 7.30005C15.5991 7.57739 15.8455 7.802 16.1497 7.80322C16.4551 7.80371 16.7034 7.57861 16.7045 7.30005L16.7045 6.43164L17.6045 6.43164L17.6045 7.30005C17.6056 7.57739 17.8519 7.802 18.1561 7.80322C18.4615 7.80371 18.7097 7.57861 18.7109 7.30005L18.7109 4.55469C18.712 4.27466 18.4633 4.04712 18.1561 4.04761L16.1497 4.04761ZM20.1625 4.04761C19.8567 4.04858 19.6097 4.27563 19.6108 4.55469L19.6108 7.30005C19.6119 7.57739 19.8584 7.802 20.1625 7.80322C20.468 7.80371 20.7162 7.57861 20.7174 7.30005L20.7174 6.21753C20.9364 6.49829 21.3914 6.49927 21.613 6.22046L21.613 7.29907C21.6141 7.57764 21.8624 7.80273 22.1678 7.80225C22.4733 7.80273 22.7216 7.57764 22.7228 7.29907L22.7228 4.55396C22.7239 4.27368 22.475 4.04614 22.1678 4.04663C21.9603 4.04639 21.7699 4.15186 21.6747 4.32007L21.1685 5.0127L20.6244 4.27368L20.6244 4.27271C20.5217 4.13135 20.3483 4.04663 20.1625 4.04663L20.1625 4.04761ZM16.7045 5.05811L17.6045 5.05811L17.6045 5.42212L16.7045 5.42212L16.7045 5.05811ZM7.37756 8.16528C7.06995 8.16431 6.82031 8.39185 6.82153 8.67236C6.82263 8.95142 7.07166 9.17676 7.37756 9.17578L23.4226 9.17578C23.7272 9.17529 23.9741 8.95044 23.9753 8.67236C23.9764 8.39307 23.7289 8.16577 23.4226 8.16528L7.37756 8.16528ZM25.4258 9.0791C24.5726 9.0791 23.8682 9.72168 23.8682 10.5C23.8683 10.5654 23.8824 10.6299 23.9093 10.6904L24.1992 11.3396C22.2385 12.1267 20.8634 13.9141 20.8634 15.9893C20.8634 18.7886 23.3633 21.0691 26.4316 21.0691C29.5001 21.0691 32 18.7886 32 15.9893C32 13.9128 30.6227 12.1248 28.6599 11.3386L28.9497 10.6904C29.1536 10.2327 28.9078 9.75342 28.5907 9.49341C28.2736 9.2334 27.8734 9.07886 27.4333 9.07886L25.4258 9.0791ZM25.4258 10.0894L27.4333 10.0894C27.547 10.0894 27.7529 10.1621 27.8508 10.2424C27.9487 10.3228 27.9291 10.2988 27.9244 10.3096L27.6042 11.0259C27.226 10.9517 26.8339 10.9104 26.4318 10.9104C26.0287 10.9104 25.6361 10.9521 25.2571 11.0269L25.0094 10.4705C25.0349 10.2629 25.1898 10.0894 25.4258 10.0894L25.4258 10.0894ZM5.87292 10.4517C5.56543 10.4504 5.3158 10.6782 5.31702 10.9587L5.31702 13.0171C5.31812 13.2961 5.56714 13.5215 5.87292 13.5205L7.88049 13.5205C8.18469 13.5193 8.43091 13.2947 8.43213 13.0171L8.43213 10.9587C8.43323 10.6797 8.18628 10.4526 7.88049 10.4517L5.87292 10.4517ZM9.88367 10.4517C9.57739 10.4521 9.32971 10.6794 9.33093 10.9587C9.33203 11.2366 9.5791 11.4614 9.88367 11.4622L15.9009 11.4622C16.2051 11.4609 16.4513 11.2363 16.4525 10.9587C16.4536 10.6797 16.2067 10.4526 15.9009 10.4517L9.88367 10.4517ZM17.9083 10.4517C17.6008 10.4504 17.3512 10.6782 17.3524 10.9587C17.3535 11.2378 17.6025 11.4631 17.9083 11.4622L19.4086 11.4622C19.7145 11.4631 19.9634 11.2378 19.9646 10.9587C19.9657 10.6782 19.7162 10.4504 19.4086 10.4517L17.9083 10.4517ZM6.42456 11.4622L7.32446 11.4622L7.32446 12.51L6.42456 12.51L6.42456 11.4622ZM26.9834 11.9543C27.8025 12.0461 28.5497 12.3389 29.1683 12.7773L28.8762 13.0437C28.6588 13.2412 28.6588 13.5618 28.8762 13.7593C29.0923 13.9551 29.4412 13.9551 29.6572 13.7593L29.9514 13.4917C30.432 14.0552 30.7534 14.7358 30.8546 15.4822L30.4425 15.4822C30.1349 15.481 29.8853 15.7087 29.8865 15.9893C29.8876 16.2683 30.1365 16.4946 30.4425 16.4934L30.8546 16.4934C30.7539 17.2407 30.4325 17.9226 29.9514 18.4868L29.6572 18.2202C29.5493 18.1211 29.4014 18.0664 29.2483 18.0701C29.108 18.0762 28.975 18.1292 28.8762 18.2202C28.6588 18.4177 28.6588 18.7383 28.8762 18.9358L29.1683 19.2021C28.5498 19.6406 27.8022 19.9333 26.9834 20.0251L26.9834 19.6482C26.9823 19.3704 26.7361 19.1458 26.4318 19.1448C26.1257 19.1438 25.8768 19.3689 25.8757 19.6482L25.8757 20.0242C25.0582 19.9319 24.3125 19.6392 23.6952 19.2012L23.9872 18.9358C24.2046 18.7383 24.2046 18.4177 23.9872 18.2202C23.8784 18.1201 23.7284 18.0654 23.574 18.0701C23.4338 18.0762 23.3008 18.1292 23.2019 18.2202L22.911 18.4858C22.4305 17.9216 22.1106 17.2402 22.01 16.4934L22.4177 16.4934C22.7238 16.4946 22.9727 16.2683 22.9738 15.9893C22.9749 15.7087 22.7253 15.481 22.4177 15.4822L22.01 15.4822C22.111 14.7366 22.4313 14.0569 22.911 13.4939L23.2019 13.7593C23.4185 13.9575 23.7708 13.9575 23.9872 13.7593C24.2046 13.5618 24.2046 13.2412 23.9872 13.0437L23.6941 12.7783C24.3116 12.3401 25.0576 12.0476 25.8757 11.9553L25.8757 12.3313C25.8768 12.6106 26.1257 12.8357 26.4318 12.8347C26.7361 12.8337 26.9823 12.6089 26.9834 12.3313L26.9834 11.9543ZM9.88367 12.283C9.5791 12.2834 9.33215 12.5083 9.33093 12.7864C9.32983 13.0657 9.57739 13.293 9.88367 13.2935L10.8853 13.2935C11.1929 13.2947 11.4424 13.0669 11.4413 12.7864C11.4402 12.5073 11.1912 12.282 10.8853 12.283L9.88367 12.283ZM12.8917 12.283C12.5875 12.2842 12.3413 12.5088 12.3401 12.7864C12.339 13.0652 12.5858 13.2925 12.8917 13.2935L20.4146 13.2935C20.7205 13.2922 20.9674 13.0652 20.9662 12.7864C20.9651 12.5088 20.7188 12.2842 20.4146 12.283L12.8917 12.283ZM26.4069 13.6545C26.2047 13.6621 26.0231 13.7695 25.9331 13.9348L24.9315 15.7622C24.8933 15.8328 24.8737 15.9106 24.8741 15.9893C24.8741 16.3796 24.9662 16.7661 25.2257 17.0864C25.4852 17.4067 25.9407 17.6233 26.4318 17.6233C26.9227 17.6233 27.3739 17.4067 27.6334 17.0864C27.8929 16.7661 27.985 16.3796 27.985 15.9893C27.9855 15.9106 27.9659 15.8328 27.9276 15.7622L26.926 13.9348C26.8289 13.7561 26.6254 13.6462 26.4069 13.6545ZM5.87292 15.0271C5.56665 15.0261 5.31763 15.252 5.31702 15.5315L5.31702 17.5898C5.31592 17.8704 5.56543 18.0979 5.87292 18.0969L7.88049 18.0969C8.18628 18.0959 8.43323 17.8689 8.43213 17.5898L8.43213 15.5315C8.43152 15.2534 8.18506 15.0283 7.88049 15.0271L5.87292 15.0271ZM9.88367 15.0271C9.57861 15.0278 9.33154 15.2532 9.33093 15.5315C9.32983 15.8108 9.57739 16.0381 9.88367 16.0386L13.3947 16.0386C13.7006 16.0376 13.9475 15.8103 13.9463 15.5315C13.9458 15.2534 13.6992 15.0283 13.3947 15.0271L9.88367 15.0271ZM15.3979 15.0271C15.0933 15.0283 14.8468 15.2534 14.8462 15.5315C14.8451 15.8103 15.092 16.0376 15.3979 16.0386L15.9009 16.0386C16.2067 16.0376 16.4537 15.8103 16.4525 15.5315C16.4519 15.2534 16.2054 15.0283 15.9009 15.0271L15.3979 15.0271ZM26.4318 15.2925L26.8568 16.0681C26.8407 16.2485 26.8021 16.4116 26.7422 16.4856C26.6709 16.5735 26.6234 16.613 26.4318 16.613C26.24 16.613 26.1881 16.5735 26.1169 16.4856C26.057 16.4116 26.0184 16.2485 26.0023 16.0681L26.4318 15.2925ZM6.42456 16.0386L7.32446 16.0386L7.32446 17.0864L6.42456 17.0864L6.42456 16.0386ZM9.88367 16.8547C9.57739 16.8552 9.32971 17.0825 9.33093 17.3618C9.33154 17.6401 9.57861 17.8655 9.88367 17.866L10.8853 17.866C11.1915 17.8672 11.4407 17.6414 11.4413 17.3618C11.4424 17.0813 11.1929 16.8535 10.8853 16.8547L9.88367 16.8547ZM12.8917 16.8547C12.5858 16.8557 12.3389 17.0828 12.3401 17.3618C12.3407 17.6396 12.5872 17.865 12.8917 17.866L19.4086 17.866C19.7148 17.8672 19.964 17.6414 19.9646 17.3618C19.9657 17.0813 19.7162 16.8535 19.4086 16.8547L12.8917 16.8547ZM3.31384 18.2429L3.31384 24.4517L3.31384 25.8411L1.23267 25.3318L3.31384 18.2429ZM5.87292 19.5999C5.56543 19.5986 5.3158 19.8264 5.31702 20.1069L5.31702 22.1653C5.3175 22.4448 5.56665 22.6707 5.87292 22.6697L7.88049 22.6697C8.18506 22.6685 8.43152 22.4431 8.43213 22.1653L8.43213 20.1069C8.43323 19.8279 8.18628 19.6008 7.88049 19.5999L5.87292 19.5999ZM9.88367 19.5999C9.57739 19.6003 9.32971 19.8276 9.33093 20.1069C9.33203 20.3848 9.5791 20.6096 9.88367 20.6101L12.3888 20.6101C12.6946 20.6113 12.9435 20.386 12.9447 20.1069C12.9458 19.8264 12.6963 19.5986 12.3888 19.5999L9.88367 19.5999ZM14.3962 19.5999C14.0887 19.5986 13.8391 19.8264 13.8403 20.1069C13.8414 20.386 14.0905 20.6113 14.3962 20.6101L15.9009 20.6101C16.2051 20.6091 16.4513 20.3845 16.4525 20.1069C16.4536 19.8279 16.2067 19.6008 15.9009 19.5999L14.3962 19.5999ZM6.42456 20.6101L7.32446 20.6101L7.32446 21.6582L6.42456 21.6582L6.42456 20.6101ZM9.88367 21.4312C9.5791 21.4316 9.33215 21.6565 9.33093 21.9343C9.32983 22.2139 9.57739 22.4412 9.88367 22.4417L10.8853 22.4417C11.1929 22.4426 11.4424 22.2151 11.4413 21.9343C11.4402 21.6553 11.1912 21.4302 10.8853 21.4312L9.88367 21.4312ZM12.8917 21.4312C12.5875 21.4321 12.3413 21.657 12.3401 21.9343C12.339 22.2134 12.5858 22.4407 12.8917 22.4417L24.4242 22.4417C24.7305 22.4412 24.9781 22.2139 24.9769 21.9343C24.9758 21.6565 24.7288 21.4316 24.4242 21.4312L12.8917 21.4312ZM5.87292 23.7175C5.56543 23.7163 5.3158 23.9441 5.31702 24.2246C5.31812 24.5037 5.56714 24.729 5.87292 24.728L17.4054 24.728C17.7096 24.7268 17.9558 24.5022 17.957 24.2246C17.9581 23.9456 17.7113 23.7185 17.4054 23.7175L5.87292 23.7175ZM5.87292 25.5479C5.56665 25.5469 5.31763 25.7727 5.31702 26.0522C5.31592 26.3328 5.56543 26.5605 5.87292 26.5593L12.3888 26.5593C12.6963 26.5605 12.9459 26.3328 12.9447 26.0522C12.9442 25.7727 12.6951 25.5469 12.3888 25.5479L5.87292 25.5479ZM23.4226 25.6416L25.8757 25.6416L25.8757 25.9397L23.296 28.2932L22.9738 28.2932L22.9738 26.0522C22.9738 25.8201 23.1681 25.6416 23.4226 25.6416ZM17.4833 29.3035L22.5085 29.3035L22.0165 30.4116L17.4833 29.3035Z" fill-rule="nonzero" fill="#F1EBEB"/>
	<defs/>
</svg>
