<svg width="30.868164" height="29.419434" viewBox="0 0 30.8682 29.4194" fill="none" xmlns="http://www.w3.org/2000/svg" xmlns:xlink="http://www.w3.org/1999/xlink">
	<desc>
			Created with Pixso.
	</desc>
	<g id="path1994">
		<path d="M16.0087 14.3655C16.2655 14.3357 16.4628 14.0542 16.4639 13.7163C16.4639 9.79053 16.4639 5.86499 16.4639 1.93921C16.4634 1.72168 16.3805 1.5188 16.2426 1.39771C15.3914 0.651611 14.4406 0.186035 13.4432 0.0458984C11.8341 -0.0222168 10.8018 0.246582 9.54919 1.35034C8.65063 0.407227 7.41406 0.0336914 6.41064 0.0012207L6.41064 0.0012207C6.15649 -0.00463867 5.90466 0.0109863 5.65527 0.0458984C4.65796 0.186035 3.70618 0.651611 2.85498 1.39771C2.71765 1.5188 2.63525 1.72119 2.63464 1.93799C2.63452 5.64795 2.63464 9.35693 2.63464 13.0647L2.49817 13.0647C1.95386 13.0647 1.50012 13.6594 1.50012 14.373L1.50012 18.2991C1.50012 19.0127 1.95386 19.6074 2.49817 19.6074L2.99524 19.6074L2.99524 22.2239L1.12769 22.2239C0.51355 22.2239 0 22.8918 0 23.697L0 27.9463C0 28.7512 0.51355 29.4194 1.12769 29.4194L17.8411 29.4194C18.4553 29.4194 18.965 28.7512 18.965 27.9463L18.965 23.697C18.965 22.8918 18.4553 22.2239 17.8411 22.2239L16.9688 22.2239L16.9688 19.6074C16.9688 18.8938 16.514 18.2991 15.9697 18.2991L14.9716 18.2991L14.9716 14.373L16.0087 14.3655ZM9.05212 13.0596L3.63269 13.0596L3.63269 12.0747C4.7561 11.4038 6.23181 10.6331 7.34253 11.1802C7.60059 11.3088 7.8894 11.1382 7.98682 10.7996C8.08301 10.4624 7.95312 10.0864 7.69629 9.95898C6.2251 9.23413 4.76306 10.0073 3.63269 10.6833L3.63269 2.37769C4.51123 1.67456 5.46875 1.29688 6.47986 1.32861C7.08655 1.34839 7.71228 1.5144 8.35132 1.84741C8.66455 2.03296 8.82288 2.2041 8.91174 2.3877C9.00208 2.57373 9.05212 2.81909 9.05212 3.24243L9.05212 13.0596ZM10.0503 3.24243C10.0503 2.81909 10.0994 2.57397 10.1896 2.3877C10.2786 2.20435 10.433 2.03296 10.7462 1.84741C11.3853 1.51465 12.011 1.34766 12.6177 1.32861C13.6288 1.29712 14.5873 1.67578 15.4657 2.37891L15.4657 10.6833C14.3356 10.0076 12.8768 9.23438 11.4061 9.95898C11.1473 10.084 11.015 10.4604 11.1107 10.7996C11.2078 11.1394 11.4973 11.3108 11.756 11.1816C12.8668 10.6343 14.3424 11.4038 15.4657 12.0747L15.4657 13.0596L10.0503 13.0596L10.0503 3.24243ZM12.7581 2.53589C12.1139 2.52417 11.4639 2.6582 10.8456 2.99194C10.5913 3.13062 10.4709 3.51343 10.5765 3.84668C10.6814 4.18164 10.9735 4.34131 11.2286 4.20337C12.1831 3.68823 13.2985 3.7666 14.3156 4.21899C14.5773 4.33643 14.8618 4.15259 14.9501 3.80884C15.0389 3.46582 14.8982 3.09351 14.6362 2.97852L14.6362 2.97705C14.0399 2.7124 13.4021 2.5498 12.7581 2.53638L12.7581 2.53589ZM6.36584 2.53735C5.70862 2.51758 5.05054 2.66724 4.43591 2.99072C4.18018 3.12549 4.05627 3.50659 4.15906 3.8418C4.26233 4.17627 4.55286 4.33813 4.80823 4.20337C5.29211 3.94849 5.81897 3.82983 6.34436 3.84546C6.62122 3.85522 6.85083 3.56714 6.85608 3.2041C6.86157 2.84253 6.64185 2.54346 6.36584 2.53735ZM30.3672 29.3901C30.6443 29.3914 30.8693 29.0967 30.8682 28.7334L30.8682 24.7637C30.8693 24.4006 30.6443 24.1057 30.3672 24.1072L25.095 24.1072C24.8193 24.1086 24.5968 24.4026 24.5978 24.7637L24.5978 28.106C23.5352 28.0981 22.4863 28.1323 21.4592 28.0779C21.2976 28.0156 21.2065 27.9407 21.1385 27.8262C21.0658 27.7031 21.0083 27.5159 20.969 27.2666L20.4397 19.1089L28.3368 19.1089C28.267 20.2053 28.1969 21.301 28.1272 22.3975C28.1047 22.7578 28.3096 23.0737 28.5844 23.1028C28.8585 23.1313 29.0986 22.8643 29.1215 22.5049C29.1934 21.373 29.2659 20.241 29.3379 19.1089L29.4382 19.1089C29.7139 19.1104 29.9382 18.8186 29.9392 18.4575C29.9403 18.0942 29.7153 17.7993 29.4382 17.8008L28.8164 17.8008L28.8164 7.41895C28.8174 7.05713 28.5942 6.76294 28.3182 6.76221L25.5111 6.76221C25.234 6.76074 25.009 7.05566 25.0101 7.41895L25.0101 8.97363L23.6222 8.97363L23.6222 6.68042C23.6221 6.48364 23.5544 6.29736 23.4379 6.1731L22.0343 4.7002C21.9485 4.60962 21.8423 4.55908 21.7322 4.55591C21.6144 4.55396 21.4994 4.60327 21.4076 4.7002L20.004 6.1731C19.8861 6.29639 19.8169 6.48291 19.8159 6.68042L19.8159 9.62646C19.817 9.98779 20.0413 10.2795 20.3169 10.2781C20.5913 10.2773 20.8138 9.98633 20.8149 9.62646L20.8149 6.99463L21.7205 6.04785L22.623 6.99463L22.623 8.97363L22.1406 8.97363C21.8665 8.9751 21.6445 9.26611 21.6434 9.62524L21.6434 11.5508C21.6272 11.521 21.6075 11.491 21.5918 11.4612C21.4965 11.2812 21.3389 11.1758 21.1718 11.1802C21.0197 11.186 20.8771 11.2786 20.7848 11.437C20.3564 12.1729 19.9274 12.9075 19.4991 13.6436C19.4325 13.7571 19.3962 13.8962 19.3958 14.0396L19.3958 17.8008L19.3334 17.8008C19.0577 17.8022 18.8352 18.0962 18.8363 18.4575C18.8374 18.8167 19.0593 19.1077 19.3334 19.1091L19.4377 19.1091L19.9894 27.531C20.0477 27.9004 20.1487 28.2871 20.35 28.6272C20.5514 28.9673 20.8602 29.2356 21.2312 29.3618C21.2649 29.3735 21.2994 29.3816 21.3345 29.3865L30.3672 29.3901ZM6.34338 5.15259C5.69934 5.14087 5.05029 5.2749 4.43201 5.60864C4.17627 5.74536 4.05396 6.12866 4.15906 6.46338C4.26343 6.79858 4.55579 6.95898 4.81116 6.82104C5.76562 6.30615 6.88477 6.3833 7.90198 6.83667C8.16248 6.95068 8.44434 6.76758 8.53259 6.42651C8.62183 6.08521 8.48303 5.71338 8.22266 5.59619C7.62634 5.33154 6.98743 5.16772 6.34338 5.15405L6.34338 5.15259ZM12.7833 5.15454C12.1262 5.13477 11.468 5.28442 10.8534 5.60791C10.5967 5.74072 10.4709 6.12158 10.5728 6.45776C10.6755 6.79492 10.9683 6.95776 11.2247 6.82056C11.7086 6.56567 12.2365 6.44702 12.7618 6.46289C13.0375 6.4707 13.2649 6.1814 13.2698 5.82007C13.2747 5.46069 13.0575 5.16357 12.7833 5.15454ZM26.0092 8.07007L27.8173 8.07007L27.8173 17.8003L26.0092 17.8003C26.0092 14.5569 26.0092 11.3135 26.0092 8.07007ZM22.6416 10.2776L25.0101 10.2776L25.0101 11.1797L24.3883 11.1797C24.1123 11.1782 23.8878 11.4707 23.8872 11.8325C23.8861 12.1958 24.1111 12.4907 24.3883 12.4893L25.0101 12.4893L25.0101 13.3875L24.3883 13.3875C24.1127 13.386 23.8883 13.6777 23.8872 14.0391C23.8861 14.4023 24.1111 14.697 24.3883 14.6958L25.0101 14.6958L25.0101 15.5938L24.3883 15.5938C24.1111 15.5925 23.8861 15.8872 23.8872 16.2505C23.8883 16.6118 24.1127 16.9036 24.3883 16.9021L25.0101 16.9021L25.0101 17.8003L22.9662 17.8003L22.9662 14.1399C22.9652 14.0317 22.9437 13.9255 22.9038 13.8308C22.8237 13.6367 22.7333 13.4561 22.6416 13.2776L22.6416 10.2776ZM21.1718 12.9236C21.4653 13.4111 21.7725 13.9062 21.968 14.3481L21.968 17.8003L20.3949 17.8003L20.3949 14.2612C20.6539 13.8164 20.9127 13.3687 21.1718 12.9236ZM2.49817 14.3726L13.9774 14.3726L13.9774 18.2986L2.49817 18.2986L2.49817 14.3726ZM3.48853 15.3472C3.21289 15.3486 2.99036 15.6426 2.99133 16.0039L2.99133 16.6555C2.98975 17.0173 3.21252 17.312 3.48853 17.3135C3.76599 17.3149 3.99109 17.0193 3.9895 16.6555L3.9895 16.0039C3.9906 15.6406 3.76562 15.3457 3.48853 15.3472ZM5.48572 15.6755C5.21008 15.677 4.98755 15.9709 4.98853 16.3323C4.98962 16.6917 5.21155 16.9824 5.48572 16.9839L12.4744 16.9839C12.7484 16.9824 12.9703 16.6917 12.9714 16.3323C12.9725 15.9709 12.75 15.677 12.4744 15.6755L5.48572 15.6755ZM3.99341 19.6067C7.98547 19.6067 11.9775 19.6067 15.9697 19.6067L15.9697 22.2234L3.99341 22.2234L3.99341 19.6067ZM1.12769 23.533L17.8411 23.533C17.9196 23.533 17.9668 23.5935 17.9668 23.6965L17.9668 27.9458C17.9668 28.0486 17.9196 28.1091 17.8411 28.1091L1.12769 28.1091C1.04932 28.1091 0.998047 28.0483 0.998047 27.9458L0.998047 23.6965C0.998047 23.5935 1.04932 23.533 1.12769 23.533ZM21.9973 23.7068C21.9537 23.7075 21.9105 23.7168 21.8687 23.7317C21.6021 23.8245 21.4436 24.1833 21.5148 24.5327C21.5634 24.7695 21.5623 25.3127 21.6659 25.8806C21.7177 26.1646 21.8022 26.4766 21.9973 26.7441C22.1924 27.0117 22.4943 27.1809 22.8112 27.2029C23.0854 27.2205 23.3193 26.9451 23.3346 26.5857C23.3484 26.2258 23.1375 25.9189 22.8628 25.8997C22.7428 25.8918 22.7388 25.8684 22.7195 25.8425C22.7003 25.8159 22.6636 25.7349 22.6348 25.5767C22.577 25.26 22.5917 24.7366 22.4797 24.1904C22.4207 23.905 22.2229 23.707 21.9973 23.7075L21.9973 23.7068ZM1.99329 24.8362C1.71765 24.8347 1.49341 25.1265 1.49231 25.4878L1.49231 26.1394C1.49121 26.5027 1.71619 26.7976 1.99329 26.7961C2.26892 26.7947 2.49146 26.5007 2.49036 26.1394L2.49036 25.4878C2.48926 25.1284 2.26733 24.8376 1.99329 24.8362ZM16.9648 24.8362C16.6892 24.8347 16.465 25.1265 16.4639 25.4878L16.4639 26.1445C16.465 26.5059 16.6892 26.7974 16.9648 26.7961C17.2389 26.7947 17.4609 26.5037 17.4619 26.1445L17.4619 25.4878C17.4609 25.1284 17.2389 24.8376 16.9648 24.8362ZM3.48853 25.1594C3.21289 25.1609 2.99036 25.4548 2.99133 25.8162C2.99243 26.1755 3.21436 26.4663 3.48853 26.4678L14.9677 26.4678C15.2422 26.467 15.4647 26.176 15.4657 25.8162C15.4668 25.4543 15.2437 25.1602 14.9677 25.1594L3.48853 25.1594ZM25.5959 25.4163L26.4469 25.4163L26.4469 28.0813L25.5959 28.0813L25.5959 25.4163ZM27.4459 25.4163L29.87 25.4163L29.87 28.0813L27.4459 28.0813L27.4459 25.4163Z" fill-rule="nonzero" fill="#555555"/>
	</g>
	<defs/>
</svg>
