<svg width="30.868164" height="29.419189" viewBox="0 0 30.8682 29.4192" fill="none" xmlns="http://www.w3.org/2000/svg" xmlns:xlink="http://www.w3.org/1999/xlink">
	<desc>
			Created with Pixso.
	</desc>
	<g id="path1550">
		<path d="M12.731 27.3499L21.4193 29.4036C21.679 29.4641 21.9495 29.3452 22.0505 29.1255L22.879 27.3213C22.9517 27.2974 23.0176 27.2598 23.072 27.2109L25.8715 24.74C25.9722 24.6514 26.0289 24.531 26.0289 24.4055L26.0289 20.9004C26.0278 20.6414 25.7903 20.4316 25.4968 20.4307C25.2018 20.4297 24.9617 20.6399 24.9606 20.9004L24.9606 22.9893L22.5941 22.9893C21.7712 22.9893 21.0917 23.5889 21.0917 24.3154L21.0917 26.407L4.93909 26.407C4.55579 26.407 4.26501 26.1465 4.26501 25.8083L4.26501 3.61108C4.26501 3.40063 4.21643 3.19946 4.1283 3.01611L24.2865 3.01611C24.6697 3.01611 24.9606 3.27295 24.9606 3.61108L24.9606 7.66602C24.9615 7.92651 25.2018 8.13672 25.4968 8.13574C25.7903 8.13477 26.0278 7.92505 26.0289 7.66602L26.0289 5.30298L28.0364 5.77637L27.4689 7.64868C27.3923 7.90039 27.562 8.15991 27.8475 8.22705C28.1329 8.29443 28.4258 8.14453 28.5018 7.89258L29.2081 5.56714C29.2847 5.31543 29.1149 5.05688 28.8293 4.98975L26.0289 4.32568L26.0289 3.61108C26.0289 2.76685 25.2432 2.07227 24.2865 2.07227L16.5018 2.07227L7.80627 0.015625C7.74963 0.00268555 7.69141 -0.00268555 7.63306 0.00146484C7.40479 0.0141602 7.21143 0.154541 7.1521 0.349365L6.63135 2.07251L2.41406 2.08252C1.50818 2.13354 0.779053 2.7998 0.779053 3.61133L0.779053 6.81348C0.780151 7.07251 1.01782 7.28223 1.31116 7.2832L3.19653 7.2832L3.19653 13.4905L0.0184326 23.8562C-0.0581055 24.1079 0.110596 24.3665 0.396118 24.4336L3.19653 25.0957L3.19653 25.8086C3.19653 26.6194 3.92358 27.2878 4.82837 27.3401L12.731 27.3499ZM8.04724 1.04883L12.3721 2.07202L7.73535 2.07202L8.04724 1.04883ZM3.19653 6.33984L1.84753 6.33984L1.84753 3.61108C1.84753 3.27295 2.1394 3.01611 2.52258 3.01611C2.90576 3.01611 3.19653 3.27295 3.19653 3.61108L3.19653 6.33984ZM7.84167 3.77783C7.54541 3.77734 7.3053 3.98975 7.30652 4.25122L7.30652 6.81323C7.3075 7.07324 7.54712 7.28345 7.84167 7.28296L9.77722 7.28296C10.0706 7.28198 10.3071 7.07227 10.3082 6.81323C10.3088 6.55322 10.0719 6.34106 9.77722 6.33984L8.37695 6.33984L8.37695 6.00269L9.77722 6.00269C10.0719 6.00195 10.3091 5.79053 10.3082 5.53027C10.3073 5.27148 10.0706 5.06177 9.77722 5.06079L8.37695 5.06079L8.37695 4.72095L9.77722 4.72095C10.0706 4.71997 10.3071 4.51001 10.3082 4.25122C10.3088 3.99097 10.0719 3.77881 9.77722 3.77783L7.84167 3.77783ZM11.6918 3.77783C11.5931 3.78052 11.4974 3.80835 11.4153 3.85693C11.1678 4.00098 11.1003 4.29517 11.265 4.5127L12.035 5.53223L11.265 6.55176C11.1033 6.76855 11.1704 7.05981 11.4153 7.20361C11.66 7.3479 11.9908 7.29004 12.155 7.07471L12.6779 6.38208L13.2006 7.07471C13.365 7.29199 13.6981 7.34961 13.9435 7.20361C14.1869 7.05884 14.2522 6.76758 14.0895 6.55176L13.3195 5.53223L14.0895 4.5127C14.255 4.29614 14.1895 4.00195 13.9435 3.85693C13.8495 3.80151 13.738 3.77368 13.6252 3.77783C13.4532 3.78345 13.2952 3.86279 13.2006 3.9895L12.6779 4.68213L12.155 3.9895C12.0618 3.86426 11.9064 3.78564 11.7367 3.77783C11.7217 3.77734 11.7068 3.77734 11.6918 3.77783L11.6918 3.77783ZM15.5784 3.77783C15.2833 3.77881 15.0452 3.99072 15.0463 4.25122L15.0463 6.81323C15.0474 7.07227 15.285 7.28198 15.5784 7.28296C15.873 7.28345 16.1125 7.07324 16.1136 6.81323L16.1136 6.00269L16.9818 6.00269L16.9818 6.81323C16.9828 7.07227 17.2205 7.28198 17.5139 7.28296C17.8085 7.28345 18.048 7.07324 18.0492 6.81323L18.0492 4.25122C18.0502 3.98975 17.8102 3.77734 17.5139 3.77783L15.5784 3.77783ZM19.4493 3.77783C19.1543 3.77881 18.9161 3.99072 18.9172 4.25122L18.9172 6.81323C18.9183 7.07227 19.156 7.28198 19.4493 7.28296C19.744 7.28345 19.9835 7.07324 19.9846 6.81323L19.9846 5.80298C20.1959 6.06519 20.6348 6.06592 20.8485 5.80591L20.8485 6.8125C20.8496 7.07251 21.0892 7.28271 21.3838 7.28223C21.6785 7.28271 21.918 7.07251 21.9191 6.8125L21.9191 4.25024C21.9202 3.98877 21.6801 3.77637 21.3838 3.77686C21.1836 3.77661 20.9999 3.875 20.9081 4.03198L20.4197 4.67847L19.8949 3.98877L19.8949 3.98779C19.7959 3.85596 19.6285 3.77686 19.4493 3.77686L19.4493 3.77783ZM16.1136 4.72095L16.9818 4.72095L16.9818 5.06079L16.1136 5.06079L16.1136 4.72095ZM7.11658 7.62085C6.81995 7.61987 6.5791 7.83252 6.58032 8.09424C6.5813 8.35474 6.82153 8.56494 7.11658 8.56396L22.5941 8.56396C22.8879 8.56348 23.1262 8.35376 23.1273 8.09424C23.1284 7.8335 22.8896 7.62158 22.5941 7.62085L7.11658 7.62085ZM24.5265 8.47363C23.7035 8.47363 23.024 9.07349 23.024 9.80005C23.024 9.86108 23.0377 9.92139 23.0636 9.97754L23.3433 10.5837C21.452 11.3181 20.1255 12.9866 20.1255 14.9233C20.1255 17.5359 22.5369 19.6643 25.4968 19.6643C28.4568 19.6643 30.8682 17.5359 30.8682 14.9233C30.8682 12.9854 29.5396 11.3164 27.6462 10.5828L27.9258 9.97754C28.1224 9.55054 27.8854 9.10327 27.5795 8.8606C27.2734 8.61768 26.8876 8.47363 26.463 8.47363L24.5265 8.47363ZM24.5265 9.41675L26.463 9.41675C26.5726 9.41675 26.7712 9.48462 26.8657 9.55957C26.9602 9.63452 26.9412 9.6123 26.9366 9.62207L26.6278 10.2908C26.2629 10.2214 25.8848 10.1831 25.4968 10.1831C25.108 10.1831 24.7294 10.2222 24.3638 10.2917L24.1248 9.77222C24.1494 9.57886 24.2988 9.41675 24.5265 9.41675L24.5265 9.41675ZM5.66528 9.75488C5.36853 9.75391 5.12781 9.96631 5.12891 10.2283L5.12891 12.1494C5.13 12.4097 5.37024 12.6201 5.66528 12.6191L7.60168 12.6191C7.89514 12.6179 8.13269 12.4082 8.13391 12.1494L8.13391 10.2283C8.13489 9.96777 7.89673 9.75586 7.60168 9.75488L5.66528 9.75488ZM9.53406 9.75488C9.23865 9.75537 8.99976 9.96753 9.00098 10.2283C9.00195 10.4875 9.24023 10.6975 9.53406 10.698L15.3385 10.698C15.6318 10.697 15.8694 10.4873 15.8706 10.2283C15.8716 9.96777 15.6334 9.75586 15.3385 9.75488L9.53406 9.75488ZM17.2749 9.75488C16.9783 9.75366 16.7375 9.96631 16.7386 10.2283C16.7397 10.4885 16.98 10.699 17.2749 10.698L18.7222 10.698C19.0172 10.699 19.2573 10.4885 19.2584 10.2283C19.2595 9.96631 19.0188 9.75391 18.7222 9.75488L17.2749 9.75488ZM6.19739 10.698L7.06543 10.698L7.06543 11.676L6.19739 11.676L6.19739 10.698ZM26.0289 11.1575C26.8191 11.2429 27.5399 11.5164 28.1366 11.9255L27.8549 12.1743C27.6451 12.3584 27.6451 12.6575 27.8549 12.8418C28.0632 13.0247 28.3999 13.0247 28.6082 12.8418L28.892 12.5923C29.3557 13.1182 29.6656 13.7534 29.7632 14.45L29.3657 14.45C29.069 14.449 28.8282 14.6614 28.8293 14.9233C28.8304 15.1838 29.0706 15.395 29.3657 15.3938L29.7632 15.3938C29.6661 16.0913 29.3561 16.7278 28.892 17.2544L28.6082 17.0056C28.5042 16.9131 28.3615 16.8621 28.2139 16.8655C28.0785 16.8711 27.9502 16.9207 27.8549 17.0056C27.6451 17.1899 27.6451 17.489 27.8549 17.6733L28.1366 17.9219C27.54 18.3311 26.8188 18.6045 26.0289 18.6899L26.0289 18.3384C26.0278 18.0791 25.7904 17.8694 25.4968 17.8687C25.2017 17.8674 24.9615 18.0776 24.9606 18.3384L24.9606 18.6892C24.1719 18.603 23.4526 18.3298 22.8571 17.9211L23.1388 17.6733C23.3485 17.489 23.3485 17.1899 23.1388 17.0056C23.0338 16.9121 22.8892 16.8611 22.7402 16.8655C22.605 16.8711 22.4766 16.9207 22.3813 17.0056L22.1006 17.2534C21.6372 16.7271 21.3285 16.0911 21.2314 15.3938L21.6249 15.3938C21.9199 15.395 22.1602 15.1838 22.1611 14.9233C22.1622 14.6614 21.9215 14.449 21.6249 14.45L21.2314 14.45C21.3289 13.7542 21.6379 13.1196 22.1006 12.5942L22.3813 12.8418C22.5901 13.0271 22.9299 13.0271 23.1388 12.8418C23.3485 12.6575 23.3485 12.3584 23.1388 12.1743L22.8561 11.9265C23.4518 11.5173 24.1714 11.2444 24.9606 11.1584L24.9606 11.5093C24.9615 11.7698 25.2017 11.98 25.4968 11.979C25.7904 11.978 26.028 11.7683 26.0289 11.5093L26.0289 11.1575ZM9.53406 11.4641C9.24023 11.4646 9.00208 11.6746 9.00098 11.9338C8.99988 12.1946 9.23865 12.4067 9.53406 12.4072L10.5002 12.4072C10.7969 12.4082 11.0377 12.1958 11.0366 11.9338C11.0355 11.6733 10.7953 11.4631 10.5002 11.4641L9.53406 11.4641ZM12.4358 11.4641C12.1423 11.4651 11.9048 11.6748 11.9036 11.9338C11.9026 12.1943 12.1407 12.4062 12.4358 12.4072L19.6925 12.4072C19.9875 12.4062 20.2258 12.1943 20.2246 11.9338C20.2235 11.6748 19.986 11.4651 19.6925 11.4641L12.4358 11.4641ZM25.4729 12.7444C25.2778 12.7515 25.1027 12.8516 25.0159 13.0059L24.0497 14.7114C24.0128 14.7771 23.9939 14.8499 23.9944 14.9233C23.9944 15.2876 24.0831 15.6484 24.3335 15.9475C24.5839 16.2463 25.0232 16.4485 25.4968 16.4485C25.9705 16.4485 26.4056 16.2463 26.656 15.9475C26.9064 15.6484 26.9951 15.2876 26.9951 14.9233C26.9956 14.8499 26.9768 14.7773 26.9398 14.7114L25.9736 13.0059C25.8799 12.8391 25.6836 12.7366 25.4729 12.7444ZM5.66528 14.0254C5.36975 14.0244 5.12952 14.2351 5.12891 14.4958L5.12891 16.4172C5.12781 16.679 5.36853 16.8914 5.66528 16.8904L7.60168 16.8904C7.89673 16.8894 8.13501 16.6775 8.13391 16.4172L8.13391 14.4958C8.1333 14.2366 7.89551 14.0264 7.60168 14.0254L5.66528 14.0254ZM9.53406 14.0254C9.23987 14.0259 9.00146 14.2363 9.00098 14.4958C8.99988 14.7568 9.23865 14.9688 9.53406 14.9695L12.9209 14.9695C13.2159 14.9683 13.4542 14.7563 13.453 14.4958C13.4525 14.2366 13.2147 14.0264 12.9209 14.0254L9.53406 14.0254ZM14.8533 14.0254C14.5594 14.0264 14.3217 14.2366 14.3212 14.4958C14.3201 14.7563 14.5582 14.9683 14.8533 14.9695L15.3385 14.9695C15.6334 14.9683 15.8717 14.7563 15.8706 14.4958C15.87 14.2366 15.6322 14.0264 15.3385 14.0254L14.8533 14.0254ZM25.4968 14.2732L25.9069 14.9971C25.8914 15.1653 25.8541 15.3174 25.7963 15.3865C25.7275 15.4685 25.6818 15.5054 25.4968 15.5054C25.3119 15.5054 25.2618 15.4685 25.1932 15.3865C25.1354 15.3174 25.0981 15.1653 25.0826 14.9971L25.4968 14.2732ZM6.19739 14.9695L7.06543 14.9695L7.06543 15.9475L6.19739 15.9475L6.19739 14.9695ZM9.53406 15.731C9.23865 15.7314 8.99976 15.9436 9.00098 16.2043C9.00146 16.4641 9.23987 16.6746 9.53406 16.675L10.5002 16.675C10.7957 16.676 11.036 16.4651 11.0366 16.2043C11.0376 15.9426 10.7969 15.73 10.5002 15.731L9.53406 15.731ZM12.4358 15.731C12.1407 15.7319 11.9025 15.9438 11.9036 16.2043C11.9042 16.4636 12.142 16.6741 12.4358 16.675L18.7222 16.675C19.0176 16.676 19.2578 16.4651 19.2584 16.2043C19.2595 15.9426 19.0188 15.73 18.7222 15.731L12.4358 15.731ZM3.19653 17.0269L3.19653 22.8215L3.19653 24.1182L1.18909 23.6431L3.19653 17.0269ZM5.66528 18.2932C5.36853 18.2922 5.12781 18.5046 5.12891 18.7666L5.12891 20.6877C5.12952 20.9485 5.36975 21.1592 5.66528 21.1582L7.60168 21.1582C7.89551 21.1572 8.1333 20.947 8.13391 20.6877L8.13391 18.7666C8.13489 18.5061 7.89673 18.2942 7.60168 18.2932L5.66528 18.2932ZM9.53406 18.2932C9.23865 18.2937 8.99976 18.5056 9.00098 18.7666C9.00195 19.0259 9.24023 19.2356 9.53406 19.2361L11.9506 19.2361C12.2456 19.2373 12.4857 19.0269 12.4868 18.7666C12.4879 18.5046 12.2472 18.292 11.9506 18.2932L9.53406 18.2932ZM13.8871 18.2932C13.5905 18.292 13.3496 18.5046 13.3508 18.7666C13.3518 19.0269 13.592 19.2373 13.8871 19.2361L15.3385 19.2361C15.6318 19.2351 15.8694 19.0254 15.8706 18.7666C15.8716 18.5061 15.6334 18.2942 15.3385 18.2932L13.8871 18.2932ZM6.19739 19.2361L7.06543 19.2361L7.06543 20.2144L6.19739 20.2144L6.19739 19.2361ZM9.53406 20.0024C9.24023 20.0029 9.00208 20.2129 9.00098 20.4722C8.99988 20.7329 9.23865 20.9451 9.53406 20.9456L10.5002 20.9456C10.7969 20.9465 11.0377 20.7341 11.0366 20.4722C11.0355 20.2117 10.7953 20.0015 10.5002 20.0024L9.53406 20.0024ZM12.4358 20.0024C12.1423 20.0034 11.9048 20.2131 11.9036 20.4722C11.9026 20.7327 12.1407 20.9446 12.4358 20.9456L23.5603 20.9456C23.8557 20.9451 24.0946 20.7329 24.0935 20.4722C24.0924 20.2129 23.8541 20.0029 23.5603 20.0024L12.4358 20.0024ZM5.66528 22.1362C5.36853 22.1353 5.12781 22.3479 5.12891 22.6096C5.13 22.8701 5.37024 23.0803 5.66528 23.0793L16.7898 23.0793C17.0833 23.0784 17.3208 22.8687 17.3219 22.6096C17.323 22.3494 17.0848 22.1372 16.7898 22.1362L5.66528 22.1362ZM5.66528 23.8447C5.36975 23.8438 5.12952 24.0544 5.12891 24.3154C5.12781 24.5771 5.36853 24.7898 5.66528 24.7888L11.9506 24.7888C12.2472 24.7898 12.488 24.5771 12.4868 24.3154C12.4863 24.0544 12.246 23.8438 11.9506 23.8447L5.66528 23.8447ZM22.5941 23.9324L24.9606 23.9324L24.9606 24.2104L22.472 26.407L22.1611 26.407L22.1611 24.3154C22.1611 24.0986 22.3486 23.9324 22.5941 23.9324ZM16.8649 27.3499L21.7125 27.3499L21.2378 28.3843L16.8649 27.3499Z" fill-rule="nonzero" fill="#555555"/>
	</g>
	<defs/>
</svg>
