<svg width="30.868164" height="29.419434" viewBox="0 0 30.8682 29.4194" fill="none" xmlns="http://www.w3.org/2000/svg" xmlns:xlink="http://www.w3.org/1999/xlink">
	<desc>
			Created with Pixso.
	</desc>
	<g id="path955">
		<path d="M10.6556 0.000244141C9.97559 -0.000732422 9.28381 0.0786133 8.68848 0.223389C8.03052 0.386719 7.4668 0.605469 7.05969 0.950928C6.48547 0.854004 5.93896 0.972168 5.50574 1.25C5.00903 1.5686 4.66162 2.06812 4.4624 2.63794C4.10657 3.65576 4.20593 4.92847 4.90576 5.98071L4.63062 5.98071C3.81177 5.98071 3.13892 6.65552 3.13892 7.47583C3.13892 8.29614 3.81177 8.97388 4.63062 8.97388L5.28894 8.97388C5.61768 9.70166 6.23657 10.3313 6.93518 10.8333C7.23108 11.0459 7.54492 11.2327 7.86487 11.3943L7.68982 12.0156C7.62451 11.9829 7.55273 11.9651 7.47974 11.9631C7.37769 11.9617 7.27759 11.991 7.19287 12.0479L5.70032 13.0454C5.52637 13.1609 5.44299 13.3728 5.49121 13.5762L2.35229 14.4771C2.26978 14.502 2.19507 14.5474 2.13538 14.6096L0.683594 16.1047C0.61499 16.1755 0.56897 16.2646 0.551392 16.3618C0.551392 16.3618 0 19.376 0 22.4368C-0.00109863 22.7136 0.223389 22.9382 0.499878 22.9373L0.499878 28.9187C0.498779 29.1943 0.720703 29.4185 0.995728 29.4194L18.9202 29.4194C19.1967 29.4204 19.421 29.1956 19.42 28.9187L19.42 22.9373C19.6951 22.9363 19.917 22.7122 19.9159 22.4368C19.9159 19.376 19.3655 16.3616 19.3655 16.3616C19.3478 16.2646 19.3019 16.1755 19.2333 16.1045L17.7844 14.6094C17.7238 14.5466 17.6484 14.5012 17.5646 14.4771L14.4266 13.5762C14.4753 13.373 14.3927 13.1614 14.2195 13.0452L12.724 12.0479C12.6326 11.9875 12.5239 11.9592 12.4148 11.967C12.3508 11.9714 12.2885 11.9883 12.231 12.0166L12.0579 11.4038C12.3848 11.24 12.705 11.05 13.007 10.833C13.7056 10.3311 14.3246 9.70166 14.6532 8.97363L15.3115 8.97363C16.1304 8.97363 16.8032 8.2959 16.8032 7.47559C16.8032 6.65552 16.1304 5.98047 15.3115 5.98047L15.0072 5.98047C15.3418 5.08374 15.4214 4.15625 15.4321 3.36719C15.2759 2.26855 14.7003 1.43628 13.9404 0.904053C13.1805 0.371826 12.2518 0.11499 11.3276 0.0283203C11.1075 0.00952148 10.8823 0.000488281 10.6556 0L10.6556 0.000244141ZM18.1743 0.742432C17.4894 0.742432 17.0775 1.60156 17.5054 2.13721L18.9202 3.91187L18.9202 13.2109C18.9202 13.8936 19.4852 14.4585 20.1667 14.4585L29.6263 14.4585C30.3079 14.4585 30.8682 13.8936 30.8682 13.2109L30.8682 1.99023C30.8682 1.30762 30.3079 0.742432 29.6263 0.742432L18.1743 0.742432ZM10.6674 1.00342C10.8549 1.00439 11.0435 1.01099 11.2352 1.02246C12.0355 1.09741 12.7987 1.32397 13.3667 1.72168C13.9312 2.11694 14.314 2.66309 14.4364 3.49634C14.4578 4.20947 14.3328 4.81226 14.1086 5.52026C12.4227 5.50146 11.0649 5.31641 10.0848 5.02368C9.04956 4.7146 8.44922 4.28223 8.24023 3.9231C8.16003 3.80444 8.0752 3.70508 7.98254 3.63672C7.73596 3.51611 7.43848 3.61768 7.31738 3.8645C6.91882 4.67407 6.24646 4.93774 5.82959 5.15991C5.44849 4.42798 5.17505 3.60962 5.3988 2.96948C5.53833 2.57031 5.77234 2.26318 6.0426 2.08984C6.29346 1.92896 6.58191 1.86548 6.96338 1.95166C7.08191 2.07153 7.28186 2.26147 7.63049 2.49902C7.85852 2.65552 8.17017 2.59619 8.32483 2.36646C8.47913 2.13867 8.41992 1.82886 8.1925 1.67407C8.11206 1.61914 8.0769 1.58228 8.0127 1.53296C8.25146 1.40869 8.56348 1.28247 8.92773 1.19189C9.54895 1.05127 10.1046 1.00146 10.6674 1.00415L10.6674 1.00342ZM18.4651 1.73975L29.6263 1.73975C29.7698 1.73975 29.8724 1.84644 29.8724 1.99023L29.8724 13.2109C29.8724 13.3545 29.7698 13.4612 29.6263 13.4612L20.1667 13.4612C20.0234 13.4612 19.9159 13.3545 19.9159 13.2109L19.9159 3.7356C19.9153 3.6228 19.8766 3.51367 19.806 3.42578L18.4651 1.73975ZM21.9083 2.98755C21.7764 2.98804 21.6499 3.04126 21.5569 3.13501C21.4639 3.229 21.412 3.35596 21.4125 3.48828L21.4125 6.47754C21.412 6.60962 21.4639 6.73682 21.5569 6.83057C21.6499 6.92456 21.7764 6.97754 21.9083 6.97803C22.0404 6.97754 22.1669 6.92456 22.2599 6.83057C22.3529 6.73682 22.4048 6.60962 22.4043 6.47754L22.4043 5.98071L23.4 5.98071L23.4 6.47754C23.3998 6.54346 23.4126 6.60864 23.4376 6.66968C23.4628 6.73047 23.4996 6.78589 23.5463 6.83252C23.5928 6.87891 23.6481 6.91577 23.709 6.94092C23.7699 6.96582 23.8351 6.97852 23.9009 6.97803C24.0328 6.97754 24.1593 6.92456 24.2523 6.83057C24.3453 6.73682 24.3973 6.60962 24.3967 6.47754L24.3967 3.48828C24.3973 3.35596 24.3453 3.229 24.2523 3.13501C24.1593 3.04126 24.0328 2.98804 23.9009 2.98755L21.9083 2.98755ZM25.8923 2.98755C25.8267 2.9873 25.7615 3 25.7008 3.02515C25.64 3.05029 25.5848 3.08716 25.5383 3.13354C25.4918 3.18018 25.4551 3.2356 25.4301 3.29639C25.405 3.35718 25.3922 3.42236 25.3926 3.48828L25.3926 6.47754C25.3922 6.54321 25.405 6.6084 25.4301 6.66943C25.4551 6.73022 25.4919 6.7854 25.5383 6.83203C25.5848 6.87866 25.64 6.91553 25.7008 6.94043C25.7615 6.96558 25.8267 6.97827 25.8923 6.97803L27.1342 6.97803C27.8151 6.97803 28.3807 6.4126 28.3807 5.73047C28.3807 5.44995 28.2817 5.19214 28.1221 4.98242C28.2816 4.77319 28.3807 4.51636 28.3807 4.23633C28.3807 3.5542 27.8151 2.98755 27.1342 2.98755L25.8923 2.98755ZM22.4043 3.98584L23.4 3.98584L23.4 4.9834L22.4043 4.9834L22.4043 3.98584ZM26.3883 3.98584L27.1342 3.98584C27.2806 3.98584 27.384 4.0896 27.384 4.23633C27.384 4.38306 27.2806 4.48267 27.1342 4.48267L26.3883 4.48267L26.3883 3.98584ZM7.79871 4.94531C8.26318 5.38916 8.93921 5.72437 9.79797 5.98071C10.8583 6.29736 12.2322 6.48071 13.8889 6.51245L13.8889 8.06421C13.8066 8.67969 13.2247 9.44922 12.4264 10.0229C11.6263 10.5979 10.6329 10.9688 9.97107 10.9688C9.3092 10.9688 8.3158 10.5979 7.51575 10.0229C6.71741 9.44922 6.1355 8.67969 6.05322 8.06421L6.05322 6.34399C6.47009 6.1355 7.224 5.68115 7.79871 4.94531ZM26.3883 5.47998L27.1342 5.47998C27.2806 5.47998 27.384 5.58374 27.384 5.73047C27.384 5.8772 27.2806 5.98071 27.1342 5.98071L26.3883 5.98071L26.3883 5.47998ZM4.63062 6.97803L5.0575 6.97803L5.0575 7.97656L4.63062 7.97656C4.34619 7.97656 4.13464 7.76074 4.13464 7.47583C4.13464 7.19092 4.34619 6.97803 4.63062 6.97803ZM14.8846 6.97803L15.3115 6.97803C15.5959 6.97803 15.8075 7.19092 15.8075 7.47583C15.8075 7.76074 15.5959 7.97656 15.3115 7.97656L14.8846 7.97656L14.8846 6.97803ZM21.9083 7.97656C21.777 7.97705 21.6511 8.02954 21.5583 8.12256C21.4655 8.21558 21.413 8.34155 21.4125 8.47314L21.4125 11.4663C21.413 11.5979 21.4655 11.7241 21.5583 11.8171C21.6511 11.9102 21.777 11.9626 21.9083 11.9631L23.9009 11.9631C24.0322 11.9626 24.1581 11.9102 24.251 11.8171C24.3439 11.7241 24.3962 11.5979 24.3967 11.4663C24.3965 11.3347 24.3442 11.2083 24.2513 11.115C24.1583 11.0217 24.0323 10.9692 23.9009 10.9688L22.4043 10.9688L22.4043 8.97388L23.9009 8.97388C24.0328 8.97339 24.1593 8.92041 24.2523 8.82642C24.3453 8.73242 24.3973 8.60547 24.3967 8.47314C24.3962 8.34155 24.3439 8.21558 24.251 8.12256C24.1581 8.02954 24.0322 7.97705 23.9009 7.97656L21.9083 7.97656ZM25.8923 7.97656C25.7603 7.97607 25.6334 8.02808 25.5398 8.12109C25.446 8.21436 25.3931 8.34106 25.3926 8.47314L25.3926 11.4663C25.3931 11.5986 25.446 11.7253 25.5398 11.8184C25.6334 11.9116 25.7603 11.9636 25.8923 11.9631L27.1342 11.9631C27.8151 11.9631 28.3807 11.4004 28.3807 10.7183L28.3807 9.22021C28.3807 8.53833 27.8151 7.97656 27.1342 7.97656L25.8923 7.97656ZM26.3883 8.97388L27.1342 8.97388C27.2806 8.97388 27.384 9.07373 27.384 9.22021L27.384 10.7183C27.384 10.8652 27.2806 10.9688 27.1342 10.9688L26.3883 10.9688L26.3883 8.97388ZM8.79248 11.7732C9.19128 11.8945 9.58911 11.9631 9.97107 11.9631C10.3466 11.9631 10.7373 11.8975 11.1293 11.78L11.3811 12.6802L9.9585 13.8198L8.53674 12.6802L8.79248 11.7732ZM7.44287 13.0823L9.2146 14.4995L8.46387 15.2505L6.75928 13.5381L7.44287 13.0823ZM12.4741 13.0823L13.1616 13.5381L11.452 15.2505L10.7062 14.4995L12.4741 13.0823ZM6.2157 14.407L8.03113 16.2234L8.4541 17.4985L7.47583 25.3667C7.45386 25.5437 7.52783 25.72 7.67041 25.8274L9.46057 27.1733L9.46057 28.4221L4.48376 28.4221L4.48376 22.9373C4.75879 22.9363 4.98071 22.7122 4.97974 22.4368L4.97974 18.4492C4.98083 18.1736 4.75879 17.9495 4.48376 17.9485C4.20728 17.9473 3.98291 18.1721 3.98401 18.4492L3.98401 21.939L1.04053 21.939C1.11426 19.3293 1.50085 16.7927 1.52185 16.6755L2.56616 15.5981L3.64941 16.2957C3.87988 16.4446 4.1875 16.3789 4.33691 16.1487C4.4856 15.9177 4.42004 15.6096 4.19006 15.46L3.6864 15.1348L6.2157 14.407ZM13.7023 14.407L16.2334 15.1345L15.7307 15.46C15.4994 15.6084 15.432 15.9167 15.58 16.1484C15.7295 16.3789 16.036 16.4443 16.2665 16.2954L17.3527 15.5962L18.3989 16.6753C18.4199 16.7927 18.8026 19.3293 18.8765 21.939L15.932 21.939L15.932 18.449C15.9331 18.1736 15.7111 17.9492 15.436 17.9482C15.1595 17.9473 14.9351 18.1721 14.9362 18.449L14.9362 22.4365C14.9352 22.7136 15.1595 22.9382 15.436 22.9373L15.436 28.4219L10.4563 28.4219L10.4563 27.1763L12.2494 25.8271C12.392 25.7197 12.4669 25.5437 12.4449 25.3665L11.4618 17.5012L11.8896 16.2224L13.7023 14.407ZM9.95947 15.1658L10.8832 16.0911L10.5963 16.9512L9.96045 16.9512L9.32446 16.9512L9.03662 16.0881L9.95947 15.1658ZM23.4 17.4663C22.5812 17.4663 21.9083 18.1411 21.9083 18.9614L21.9083 19.4622C21.9083 19.7297 21.9855 19.9783 22.1106 20.1965C21.6935 20.4636 21.4125 20.929 21.4125 21.4568L21.4125 21.9536C21.4125 22.4812 21.6929 22.9478 22.1096 23.2151C21.9849 23.4331 21.9083 23.6819 21.9083 23.9495L21.9083 24.45C21.9083 24.6594 21.9529 24.8586 22.0319 25.0403C21.3833 25.2781 20.9126 25.8979 20.9126 26.626L20.9126 27.2261C20.9126 28.1567 21.6774 28.9189 22.6066 28.9189L29.1781 28.9189C30.1073 28.9189 30.8682 28.1567 30.8682 27.2261L30.8682 26.626C30.8682 25.897 30.399 25.2764 29.7499 25.0393C29.8285 24.8579 29.8724 24.6589 29.8724 24.45L29.8724 23.9495C29.8724 23.4214 29.5914 22.957 29.1742 22.6909C29.2998 22.4719 29.3765 22.2219 29.3765 21.9536L29.3765 21.4568C29.3765 20.771 28.9031 20.1909 28.2699 20.0173C28.3397 19.845 28.3807 19.6582 28.3807 19.4622L28.3807 18.9614C28.3807 18.1411 27.7069 17.4663 26.8881 17.4663L23.4 17.4663ZM9.40222 17.9485L9.96045 17.9485L10.5146 17.9485L11.4189 25.2048L9.96045 26.3018L8.49792 25.2048L9.40222 17.9485ZM23.4 18.4636L25.3926 18.4636L25.3926 19.9587L23.4 19.9587C23.1156 19.9587 22.9042 19.7471 22.9042 19.4622L22.9042 18.9614C22.9042 18.6765 23.1156 18.4636 23.4 18.4636ZM26.3883 18.4636L26.8881 18.4636C27.1725 18.4636 27.384 18.6765 27.384 18.9614L27.384 19.4622C27.384 19.7471 27.1725 19.9587 26.8881 19.9587L26.3883 19.9587L26.3883 18.4636ZM22.9042 20.9563L23.4 20.9563L23.4 22.4543L22.9042 22.4543C22.6198 22.4543 22.4043 22.2385 22.4043 21.9536L22.4043 21.4568C22.4043 21.1719 22.6198 20.9563 22.9042 20.9563ZM24.3967 20.9563L27.8848 20.9563C28.1692 20.9563 28.3807 21.1719 28.3807 21.4568L28.3807 21.9536C28.3807 22.2385 28.1692 22.4543 27.8848 22.4543L24.3967 22.4543L24.3967 20.9563ZM1.49658 22.9373L3.48804 22.9373L3.48804 28.4221L1.49658 28.4221L1.49658 22.9373ZM16.4327 22.9373L18.4242 22.9373L18.4242 28.4221L16.4327 28.4221L16.4327 22.9373ZM23.4 23.4526L26.8881 23.4526L26.8881 24.9321L23.3223 24.9321C23.08 24.8958 22.9042 24.7068 22.9042 24.45L22.9042 23.9495C22.9042 23.6646 23.1156 23.4526 23.4 23.4526ZM27.8848 23.4526L28.3807 23.4526C28.6652 23.4526 28.8806 23.6646 28.8806 23.9495L28.8806 24.45C28.8806 24.7068 28.7014 24.8958 28.4585 24.9321L27.8848 24.9321L27.8848 23.4526ZM22.6066 25.9294L29.1781 25.9294C29.5729 25.9294 29.8724 26.2305 29.8724 26.626L29.8724 27.2261C29.8724 27.6213 29.5729 27.9214 29.1781 27.9214L22.6066 27.9214C22.2118 27.9214 21.9083 27.6213 21.9083 27.2261L21.9083 26.626C21.9083 26.2305 22.2118 25.9294 22.6066 25.9294ZM23.4 26.4272C23.1266 26.4282 22.9052 26.6501 22.9042 26.9241C22.9031 27.1995 23.1251 27.4236 23.4 27.4246L28.3807 27.4246C28.6572 27.4258 28.8816 27.2009 28.8806 26.9241C28.8795 26.6487 28.6558 26.4263 28.3807 26.4272L23.4 26.4272Z" fill-rule="nonzero" fill="#555555"/>
	</g>
	<defs/>
</svg>
