<svg width="32.000000" height="31.520752" viewBox="0 0 32 31.5208" fill="none" xmlns="http://www.w3.org/2000/svg" xmlns:xlink="http://www.w3.org/1999/xlink">
	<desc>
			Created with Pixso.
	</desc>
	<path d="M16.5956 15.3914C16.8619 15.3596 17.0664 15.0581 17.0675 14.696C17.0675 10.49 17.0675 6.28394 17.0675 2.07788C17.067 1.84473 16.9811 1.6272 16.8381 1.49731C15.9557 0.698242 14.9701 0.199463 13.9362 0.0490723C12.2679 -0.0239258 11.1979 0.264404 9.89941 1.44678C8.96777 0.436279 7.68591 0.0361328 6.64575 0.0012207L6.64575 0.0012207C6.3822 -0.00512695 6.12109 0.0117188 5.86267 0.0490723C4.82874 0.199463 3.84204 0.698242 2.95959 1.49731C2.81738 1.6272 2.73181 1.84424 2.7312 2.07642C2.73108 6.05127 2.7312 10.0251 2.7312 13.998L2.58984 13.998C2.02551 13.998 1.55505 14.6353 1.55505 15.3997L1.55505 19.6062C1.55505 20.3706 2.02551 21.0078 2.58984 21.0078L3.1051 21.0078L3.1051 23.8113L1.16907 23.8113C0.532471 23.8113 0 24.5271 0 25.3896L0 29.9424C0 30.8049 0.532471 31.5208 1.16907 31.5208L18.4952 31.5208C19.132 31.5208 19.6604 30.8049 19.6604 29.9424L19.6604 25.3896C19.6604 24.5271 19.132 23.8113 18.4952 23.8113L17.5909 23.8113L17.5909 21.0078C17.5909 20.2434 17.1195 19.6062 16.5552 19.6062L15.5205 19.6062L15.5205 15.3997L16.5956 15.3914ZM9.38403 13.9924L3.76599 13.9924L3.76599 12.937C4.93042 12.2185 6.46033 11.3926 7.61169 11.9788C7.87927 12.1167 8.17871 11.9338 8.27966 11.571C8.37939 11.2097 8.24475 10.8071 7.97852 10.6702C6.45337 9.89355 4.93774 10.7222 3.76599 11.4463L3.76599 2.54736C4.67664 1.79419 5.66931 1.38965 6.71753 1.42358C7.34644 1.44482 7.99512 1.62256 8.65759 1.97925C8.9823 2.17822 9.14636 2.36157 9.23853 2.55835C9.33215 2.75757 9.38403 3.02026 9.38403 3.47412L9.38403 13.9924ZM10.4187 3.47412C10.4187 3.02026 10.4697 2.75781 10.5632 2.55835C10.6555 2.36157 10.8156 2.17822 11.1403 1.97925C11.8026 1.6228 12.4514 1.44385 13.0803 1.42358C14.1284 1.38965 15.1221 1.79565 16.0328 2.54883L16.0328 11.4463C14.8612 10.7224 13.349 9.8938 11.8243 10.6702C11.556 10.8042 11.4189 11.2078 11.5182 11.571C11.6187 11.9351 11.9188 12.1189 12.187 11.9802C13.3386 11.3938 14.8683 12.2185 16.0328 12.937L16.0328 13.9924L10.4187 13.9924L10.4187 3.47412ZM13.2258 2.71704C12.5581 2.70459 11.8842 2.84814 11.2433 3.20581C10.9797 3.35425 10.8549 3.7644 10.9644 4.12158C11.073 4.48022 11.3759 4.65137 11.6404 4.50342C12.6299 3.95166 13.786 4.03564 14.8405 4.52026C15.1117 4.646 15.4067 4.44922 15.4983 4.08081C15.5903 3.71338 15.4445 3.31445 15.173 3.19116L15.173 3.1897C14.5547 2.90601 13.8934 2.73193 13.2258 2.71753L13.2258 2.71704ZM6.59924 2.71851C5.91797 2.69727 5.23572 2.85767 4.59851 3.20459C4.3335 3.34888 4.20508 3.75708 4.31165 4.11621C4.41858 4.47461 4.71973 4.64795 4.9845 4.50342C5.48608 4.23071 6.03235 4.10327 6.57703 4.12012C6.86389 4.13062 7.10205 3.82178 7.10754 3.43311C7.11316 3.04541 6.88538 2.72534 6.59924 2.71851ZM31.4806 31.4893C31.7679 31.4907 32.0011 31.175 32 30.7859L32 26.5327C32.0011 26.1433 31.7679 25.8276 31.4806 25.8291L26.015 25.8291C25.7294 25.8306 25.4987 26.1455 25.4998 26.5327L25.4998 30.1135C24.3982 30.1052 23.3109 30.1418 22.2461 30.0835C22.0786 30.0168 21.9841 29.9365 21.9137 29.8137C21.8381 29.6819 21.7786 29.4812 21.7378 29.2141L21.1892 20.4739L29.3759 20.4739C29.3035 21.6487 29.2308 22.8225 29.1586 23.9973C29.1353 24.3833 29.3475 24.7217 29.6324 24.7529C29.9166 24.7837 30.1656 24.4973 30.1892 24.1123C30.2638 22.8997 30.3389 21.6865 30.4136 20.4739L30.5177 20.4739C30.8033 20.4753 31.0359 20.1628 31.037 19.7759C31.0382 19.3867 30.8049 19.0708 30.5177 19.0723L29.8729 19.0723L29.8729 7.94873C29.874 7.56128 29.6427 7.24609 29.3567 7.24512L26.4465 7.24512C26.1593 7.24365 25.926 7.55957 25.9271 7.94873L25.9271 9.61475L24.4883 9.61475L24.4883 7.15771C24.4882 6.94678 24.4181 6.74707 24.2974 6.61401L22.8423 5.03589C22.7533 4.93896 22.6432 4.88452 22.5291 4.88135C22.4069 4.87915 22.2877 4.93213 22.1925 5.03589L20.7374 6.61401C20.6152 6.74609 20.5436 6.9458 20.5425 7.15771L20.5425 10.3142C20.5436 10.7012 20.7761 11.0139 21.0619 11.0125C21.3464 11.0115 21.577 10.6997 21.5781 10.3142L21.5781 7.49438L22.5168 6.47998L23.4525 7.49438L23.4525 9.61475L22.9524 9.61475C22.6682 9.61621 22.4382 9.92798 22.437 10.3127L22.437 12.3757C22.4203 12.344 22.3998 12.3118 22.3835 12.28C22.2847 12.0872 22.1212 11.9741 21.948 11.9788C21.7903 11.9851 21.6426 12.0842 21.5469 12.2539C21.1028 13.0425 20.6581 13.8296 20.2141 14.6179C20.145 14.7397 20.1074 14.8887 20.1069 15.0422L20.1069 19.0723L20.0422 19.0723C19.7566 19.0737 19.5259 19.3887 19.527 19.7759C19.5281 20.1606 19.7582 20.4724 20.0422 20.4739L20.1504 20.4739L20.7223 29.4976C20.7827 29.8933 20.8875 30.3076 21.0962 30.6719C21.3049 31.0364 21.6251 31.3237 22.0096 31.4592C22.0446 31.4717 22.0804 31.4805 22.1167 31.4856L31.4806 31.4893ZM6.57605 5.52051C5.90833 5.50806 5.23547 5.65161 4.59448 6.00928C4.32935 6.15576 4.20251 6.56641 4.31165 6.92505C4.4198 7.28418 4.72278 7.45605 4.98755 7.30835C5.97705 6.75659 7.13721 6.83911 8.19177 7.3252C8.46179 7.44727 8.75391 7.25098 8.84546 6.88574C8.93799 6.51978 8.79419 6.12158 8.52417 5.99585C7.90601 5.7124 7.24365 5.53687 6.57605 5.52222L6.57605 5.52051ZM13.2521 5.52271C12.5708 5.50146 11.8884 5.66187 11.2513 6.00854C10.9852 6.15088 10.8549 6.55884 10.9603 6.91895C11.0669 7.28027 11.3705 7.45483 11.6364 7.30762C12.1379 7.03467 12.6851 6.90747 13.2299 6.92432C13.5156 6.93286 13.7513 6.62305 13.7562 6.23584C13.7614 5.85083 13.5363 5.53247 13.2521 5.52271ZM26.9629 8.64648L28.8373 8.64648L28.8373 19.0718L26.9629 19.0718C26.9629 15.5967 26.9629 12.1216 26.9629 8.64648ZM23.4718 11.0117L25.9271 11.0117L25.9271 11.9783L25.2825 11.9783C24.9963 11.9768 24.7637 12.29 24.7631 12.6777C24.762 13.0669 24.9952 13.3828 25.2825 13.3813L25.9271 13.3813L25.9271 14.3438L25.2825 14.3438C24.9968 14.342 24.7643 14.6548 24.7631 15.0417C24.762 15.4309 24.9952 15.7468 25.2825 15.7454L25.9271 15.7454L25.9271 16.7078L25.2825 16.7078C24.9952 16.7063 24.762 17.0222 24.7631 17.4114C24.7643 17.7983 24.9968 18.1108 25.2825 18.1094L25.9271 18.1094L25.9271 19.0718L23.8082 19.0718L23.8082 15.1499C23.8073 15.0339 23.785 14.9204 23.7435 14.8186C23.6606 14.6108 23.5668 14.4172 23.4718 14.2261L23.4718 11.0117ZM21.948 13.8467C22.2524 14.3691 22.5708 14.8994 22.7736 15.373L22.7736 19.0718L21.1427 19.0718L21.1427 15.28C21.4111 14.8032 21.6794 14.3235 21.948 13.8467ZM2.58984 15.3992L14.4899 15.3992L14.4899 19.6055L2.58984 19.6055L2.58984 15.3992ZM3.61646 16.4434C3.33069 16.4451 3.09998 16.76 3.10107 17.147L3.10107 17.8452C3.09937 18.2327 3.33032 18.5486 3.61646 18.55C3.90405 18.5518 4.13745 18.2349 4.13574 17.8452L4.13574 17.147C4.13684 16.7578 3.90369 16.4419 3.61646 16.4434ZM5.68677 16.7952C5.40112 16.7969 5.17041 17.1118 5.17151 17.4988C5.17261 17.8838 5.40271 18.1956 5.68677 18.197L12.9318 18.197C13.2159 18.1956 13.4459 17.8838 13.447 17.4988C13.4482 17.1118 13.2175 16.7969 12.9318 16.7952L5.68677 16.7952ZM4.13977 21.0073C8.27832 21.0073 12.4167 21.0073 16.5552 21.0073L16.5552 23.8108L4.13977 23.8108L4.13977 21.0073ZM1.16907 25.2139L18.4952 25.2139C18.5767 25.2139 18.6256 25.2788 18.6256 25.3892L18.6256 29.9419C18.6256 30.052 18.5767 30.1169 18.4952 30.1169L1.16907 30.1169C1.08777 30.1169 1.03467 30.0518 1.03467 29.9419L1.03467 25.3892C1.03467 25.2788 1.08777 25.2139 1.16907 25.2139ZM22.8038 25.4001C22.7588 25.4011 22.7139 25.4106 22.6705 25.4268C22.3942 25.5264 22.2299 25.9106 22.3037 26.2849C22.354 26.5388 22.3529 27.1208 22.4603 27.7292C22.514 28.0334 22.6016 28.3677 22.8038 28.6545C23.0061 28.9412 23.3191 29.1226 23.6476 29.146C23.9319 29.1648 24.1744 28.8699 24.1902 28.4849C24.2045 28.0989 23.9858 27.7703 23.7012 27.7498C23.5767 27.7412 23.5725 27.7161 23.5526 27.6882C23.5326 27.6599 23.4946 27.573 23.4647 27.4036C23.4048 27.0645 23.42 26.5037 23.304 25.9182C23.2428 25.6125 23.0377 25.4004 22.8038 25.4009L22.8038 25.4001ZM2.06641 26.6104C1.78064 26.6086 1.5481 26.9214 1.547 27.3083L1.547 28.0063C1.5459 28.3958 1.77905 28.7117 2.06641 28.71C2.35205 28.7085 2.58276 28.3936 2.58167 28.0063L2.58167 27.3083C2.58057 26.9233 2.35046 26.6118 2.06641 26.6104ZM17.5869 26.6104C17.3011 26.6086 17.0686 26.9214 17.0675 27.3083L17.0675 28.012C17.0686 28.3992 17.3011 28.7117 17.5869 28.71C17.8711 28.7085 18.1011 28.397 18.1022 28.012L18.1022 27.3083C18.1012 26.9233 17.8711 26.6118 17.5869 26.6104ZM3.61646 26.9565C3.33069 26.958 3.09998 27.2732 3.10107 27.6602C3.10217 28.0452 3.33228 28.3567 3.61646 28.3582L15.5165 28.3582C15.801 28.3574 16.0317 28.0457 16.0328 27.6602C16.0339 27.2725 15.8026 26.9573 15.5165 26.9565L3.61646 26.9565ZM26.5344 27.2317L27.4165 27.2317L27.4165 30.0872L26.5344 30.0872L26.5344 27.2317ZM28.4523 27.2317L30.9652 27.2317L30.9652 30.0872L28.4523 30.0872L28.4523 27.2317Z" fill-rule="nonzero" fill="#F1EBEB"/>
	<defs/>
</svg>
