<svg width="32.006470" height="32.003174" viewBox="0 0 32.0065 32.0032" fill="none" xmlns="http://www.w3.org/2000/svg" xmlns:xlink="http://www.w3.org/1999/xlink">
	<desc>
			Created with Pixso.
	</desc>
	<path d="M31.5138 31.0176L30.7059 31.0176L30.7059 21.6379C31.1143 21.6121 32.0043 21.8069 32.0043 21.1531C32.0043 20.4995 31.1185 20.6929 30.7059 20.667L30.7059 11.2874L31.5138 11.2874C31.6 11.2864 31.6843 11.2627 31.7584 11.2185C31.8324 11.1746 31.8934 11.1116 31.9352 11.0361C31.9769 10.9607 31.998 10.8757 31.9962 10.7896C31.9944 10.7034 31.9698 10.6191 31.9249 10.5457L28.6919 5.38843C28.6483 5.3186 28.5878 5.26099 28.5159 5.22119C28.444 5.1814 28.363 5.1604 28.2808 5.1604L21.3718 5.1604L16.3427 0.137207C16.2504 0.0490723 16.1276 0 16 0C15.8724 0 15.7496 0.0490723 15.6573 0.137207L10.6282 5.1604L3.71777 5.1604C3.6355 5.1604 3.55469 5.1814 3.48267 5.22119C3.41077 5.26099 3.35022 5.3186 3.30664 5.38843L0.0750732 10.5601C0.0301514 10.6335 0.00561523 10.7175 0.00378418 10.8037C0.00195312 10.8896 0.0228271 10.9746 0.0644531 11.05C0.106079 11.1252 0.16687 11.1882 0.240723 11.2324C0.314453 11.2766 0.398682 11.3005 0.484741 11.3018L1.29846 11.3018L1.29846 20.6814C0.888672 20.7073 0 20.5125 0 21.1675C0 21.8228 0.885742 21.6265 1.29846 21.6523L1.29846 31.032L0.486206 31.032C0.362061 31.0388 0.245117 31.0928 0.159668 31.1831C0.0740967 31.2734 0.0264893 31.3931 0.0264893 31.5176C0.0264893 31.6418 0.0740967 31.7615 0.159668 31.8518C0.245117 31.9421 0.362061 31.9963 0.486206 32.0032L31.5138 32.0032C31.6445 32.0032 31.7698 31.9512 31.8622 31.8586C31.9546 31.7664 32.0065 31.6411 32.0065 31.5103C32.0065 31.3796 31.9546 31.2542 31.8622 31.1619C31.7698 31.0693 31.6445 31.0176 31.5138 31.0176ZM10.344 31.0176L2.26501 31.0176L2.26501 21.6379L10.344 21.6379L10.344 31.0176ZM10.344 20.6726L2.26501 20.6726L2.26501 11.2932L10.344 11.2932L10.344 20.6726ZM10.344 10.3279L1.36047 10.3279L3.98608 6.12573L10.344 6.12573L10.344 10.3279ZM17.7781 31.0176L14.2219 31.0176L14.2219 26.0117C14.2351 25.5488 14.4282 25.1094 14.7603 24.7866C15.0923 24.4639 15.537 24.2832 16 24.2832C16.463 24.2832 16.9077 24.4639 17.2397 24.7866C17.5718 25.1094 17.7649 25.5488 17.7781 26.0117L17.7781 31.0176ZM20.6865 31.0176L18.7548 31.0176L18.7548 26.0117C18.7548 25.283 18.4653 24.584 17.9501 24.0686C17.4348 23.553 16.736 23.2637 16.0072 23.2637C15.2786 23.2637 14.5797 23.553 14.0643 24.0686C13.5491 24.584 13.2596 25.283 13.2596 26.0117L13.2596 31.0176L11.3135 31.0176L11.3135 5.8457L15.9993 1.15894L20.6865 5.8457L20.6865 31.0176ZM29.7365 31.0176L21.6575 31.0176L21.6575 21.6379L29.7365 21.6379L29.7365 31.0176ZM29.7365 20.6726L21.6575 20.6726L21.6575 11.2932L29.7365 11.2932L29.7365 20.6726ZM21.6575 10.3279L21.6575 6.13013L28.0139 6.13013L30.641 10.332L21.6575 10.3279ZM24.0826 29.4028L27.3142 29.4028C27.3779 29.4028 27.4412 29.3901 27.5 29.3657C27.559 29.3413 27.6124 29.3054 27.6575 29.2603C27.7025 29.2151 27.7382 29.1614 27.7625 29.1025C27.7867 29.0435 27.7991 28.9802 27.799 28.9165L27.799 25.3652C27.799 24.8081 27.5776 24.2737 27.1837 23.8796C26.7898 23.4856 26.2555 23.2642 25.6984 23.2642C25.1412 23.2642 24.6071 23.4856 24.2131 23.8796C23.8192 24.2737 23.5979 24.8081 23.5979 25.3652L23.5979 28.9209C23.5977 28.9846 23.61 29.0476 23.6342 29.1064C23.6583 29.1653 23.694 29.219 23.7388 29.2642C23.7837 29.3093 23.837 29.3452 23.8958 29.3696C23.9545 29.3943 24.0175 29.407 24.0812 29.4072L24.0826 29.4028ZM24.5674 25.3623C24.5674 25.0623 24.6865 24.7747 24.8986 24.5625C25.1107 24.3503 25.3984 24.2312 25.6984 24.2312C25.9984 24.2312 26.286 24.3503 26.4982 24.5625C26.7103 24.7747 26.8295 25.0623 26.8295 25.3623L26.8295 28.4331L24.5659 28.4331L24.5674 25.3623ZM4.68726 29.4028L7.91882 29.4028C8.04749 29.4023 8.17078 29.3511 8.26172 29.2598C8.35254 29.1687 8.40356 29.0452 8.40356 28.9165L8.40356 25.3652C8.38928 24.8174 8.1615 24.2969 7.76904 23.9143C7.37659 23.532 6.85022 23.3179 6.30237 23.3179C5.75439 23.3179 5.22815 23.532 4.83557 23.9143C4.44312 24.2969 4.21545 24.8174 4.20105 25.3652L4.20105 28.9209C4.20105 29.0496 4.25208 29.1731 4.34302 29.2642C4.43384 29.3555 4.55713 29.4067 4.68579 29.4072L4.68726 29.4028ZM5.17346 25.3623C5.17346 25.0623 5.2926 24.7747 5.50476 24.5625C5.7168 24.3503 6.00452 24.2312 6.30444 24.2312C6.60449 24.2312 6.89221 24.3503 7.10425 24.5625C7.31641 24.7747 7.43555 25.0623 7.43555 25.3623L7.43555 28.4331L5.172 28.4331L5.17346 25.3623ZM24.0826 19.0579L27.3142 19.0579C27.3778 19.0579 27.4409 19.0454 27.4996 19.021C27.5585 18.9966 27.6119 18.9609 27.657 18.916C27.7019 18.8708 27.7377 18.8174 27.7621 18.7585C27.7864 18.6997 27.799 18.6367 27.799 18.573L27.799 15.019C27.799 14.4617 27.5776 13.9272 27.1837 13.5334C26.7898 13.1394 26.2555 12.918 25.6984 12.918C25.1412 12.918 24.6071 13.1394 24.2131 13.5334C23.8192 13.9272 23.5979 14.4617 23.5979 15.019L23.5979 18.5759C23.5979 18.7043 23.6487 18.8274 23.7394 18.9182C23.83 19.0093 23.9529 19.0605 24.0812 19.0608L24.0826 19.0579ZM24.5674 15.0176C24.5674 14.7175 24.6865 14.4297 24.8986 14.2175C25.1107 14.0054 25.3984 13.8862 25.6984 13.8862C25.9984 13.8862 26.286 14.0054 26.4982 14.2175C26.7103 14.4297 26.8295 14.7175 26.8295 15.0176L26.8295 18.0896L24.5659 18.0896L24.5674 15.0176ZM15.9993 12.918C15.4423 12.9185 14.9082 13.1399 14.5144 13.5337C14.1206 13.9277 13.8992 14.4619 13.8988 15.019L13.8988 21.1633C13.8992 21.2917 13.9503 21.4148 14.0411 21.5056C14.132 21.5964 14.255 21.6477 14.3834 21.6482L17.6166 21.6482C17.745 21.6477 17.868 21.5964 17.9589 21.5056C18.0497 21.4148 18.1008 21.2917 18.1013 21.1633L18.1013 15.019C18.1005 14.4617 17.8788 13.9275 17.4846 13.5337C17.0906 13.1396 16.5564 12.9185 15.9993 12.918ZM17.1318 20.677L14.8682 20.677L14.8682 15.019C14.8787 14.7258 15.0026 14.448 15.2136 14.2441C15.4247 14.0405 15.7067 13.9265 16 13.9265C16.2933 13.9265 16.5753 14.0405 16.7864 14.2441C16.9974 14.448 17.1213 14.7258 17.1318 15.019L17.1318 20.677ZM13.8988 8.22974C13.9131 8.77759 14.1407 9.2981 14.5333 9.68066C14.9258 10.063 15.452 10.2771 16 10.2771C16.548 10.2771 17.0742 10.063 17.4667 9.68066C17.8593 9.2981 18.0869 8.77759 18.1013 8.22974C18.0869 7.68188 17.8593 7.16113 17.4667 6.77881C17.0742 6.39624 16.548 6.18237 16 6.18237C15.452 6.18237 14.9258 6.39624 14.5333 6.77881C14.1407 7.16113 13.9131 7.68188 13.8988 8.22974ZM17.1318 8.22974C17.1213 8.52295 16.9974 8.80054 16.7864 9.00439C16.5753 9.20801 16.2933 9.32202 16 9.32202C15.7067 9.32202 15.4247 9.20801 15.2136 9.00439C15.0026 8.80054 14.8787 8.52295 14.8682 8.22974C14.8787 7.93652 15.0026 7.65869 15.2136 7.45483C15.4247 7.25122 15.7067 7.13721 16 7.13721C16.2933 7.13721 16.5753 7.25122 16.7864 7.45483C16.9974 7.65869 17.1213 7.93652 17.1318 8.22974ZM4.68579 19.0608L7.91882 19.0608C8.04724 19.0605 8.17041 19.0093 8.26123 18.9185C8.35205 18.8276 8.4032 18.7043 8.40356 18.5759L8.40356 15.019C8.38928 14.4712 8.1615 13.9504 7.76904 13.5681C7.37659 13.1855 6.85022 12.9717 6.30237 12.9717C5.75439 12.9717 5.22815 13.1855 4.83557 13.5681C4.44312 13.9504 4.21545 14.4712 4.20105 15.019L4.20105 18.5759C4.20142 18.7043 4.25269 18.8276 4.34351 18.9185C4.43433 19.0093 4.55737 19.0605 4.68579 19.0608ZM5.172 15.0205C5.172 14.7205 5.29114 14.4326 5.5033 14.2205C5.71533 14.0083 6.00305 13.8892 6.3031 13.8892C6.60303 13.8892 6.89075 14.0083 7.10278 14.2205C7.31494 14.4326 7.43408 14.7205 7.43408 15.0205L7.43408 18.0925L5.172 18.0925L5.172 15.0205Z" fill-rule="nonzero" fill="#D32026"/>
	<defs/>
</svg>
