<svg width="31.308350" height="26.692627" viewBox="0 0 31.3083 26.6926" fill="none" xmlns="http://www.w3.org/2000/svg" xmlns:xlink="http://www.w3.org/1999/xlink">
	<desc>
			Created with Pixso.
	</desc>
	<path d="M11.138 3.4187L20.1703 3.4187L20.1703 0.782715C20.1703 0.350342 20.5211 0 20.9531 0L24.4575 0C24.8895 0 25.2399 0.350342 25.2399 0.782715L25.2399 3.4187L27.1924 3.4187C29.4579 3.4187 31.3083 5.26904 31.3083 7.53467L31.3083 22.5769C31.3083 24.8423 29.4579 26.6926 27.1924 26.6926L4.11597 26.6926C1.85046 26.6926 0 24.8423 0 22.5769L0 7.53467C0 5.26904 1.85046 3.4187 4.11597 3.4187L6.06848 3.4187L6.06848 0.782715C6.06848 0.350342 6.41882 0 6.8512 0L10.3552 0C10.7876 0 11.138 0.350342 11.138 0.782715L11.138 3.4187ZM4.3291 12.1062L6.50879 12.1062L6.50879 14.2859L4.3291 14.2859L4.3291 12.1062ZM4.3291 19.1787L6.50879 19.1787L6.50879 21.3579L4.3291 21.3579L4.3291 19.1787ZM20.6746 19.1787L22.8542 19.1787L22.8542 21.3579L20.6746 21.3579L20.6746 19.1787ZM15.226 19.1787L17.4056 19.1787L17.4056 21.3579L15.226 21.3579L15.226 19.1787ZM9.77771 19.1787L11.957 19.1787L11.957 21.3579L9.77771 21.3579L9.77771 19.1787ZM4.3291 15.6423L6.50879 15.6423L6.50879 17.822L4.3291 17.822L4.3291 15.6423ZM20.6746 15.6423L22.8542 15.6423L22.8542 17.822L20.6746 17.822L20.6746 15.6423ZM15.226 15.6423L17.4056 15.6423L17.4056 17.822L15.226 17.822L15.226 15.6423ZM9.77771 15.6423L11.957 15.6423L11.957 17.822L9.77771 17.822L9.77771 15.6423ZM20.6746 12.1062L22.8542 12.1062L22.8542 14.2859L20.6746 14.2859L20.6746 12.1062ZM15.226 12.1062L17.4056 12.1062L17.4056 14.2859L15.226 14.2859L15.226 12.1062ZM9.77771 12.1062L11.957 12.1062L11.957 14.2859L9.77771 14.2859L9.77771 12.1062ZM1.56549 8.75977L24.7134 8.75977C25.7429 8.75977 25.7429 10.3254 24.7134 10.3254L1.56549 10.3254L1.56549 22.5769C1.56549 23.9778 2.71484 25.1272 4.11597 25.1272L27.1924 25.1272C28.5935 25.1272 29.7429 23.9778 29.7429 22.5769L29.7429 7.53467C29.7429 6.13354 28.5935 4.98413 27.1924 4.98413L25.2399 4.98413L25.2399 6.25244C25.2399 6.68457 24.8895 7.03516 24.4575 7.03516L20.9531 7.03516C20.5211 7.03516 20.1703 6.68457 20.1703 6.25244L20.1703 4.98413L11.138 4.98413L11.138 6.25244C11.138 6.68457 10.7876 7.03516 10.3552 7.03516L6.8512 7.03516C6.41882 7.03516 6.06848 6.68457 6.06848 6.25244L6.06848 4.98413L4.11597 4.98413C2.71484 4.98413 1.56549 6.13354 1.56549 7.53467L1.56549 8.75977ZM9.57251 1.56543L7.63397 1.56543L7.63397 5.46973L9.57251 5.46973L9.57251 1.56543ZM23.6747 1.56543L21.7358 1.56543L21.7358 5.46973L23.6747 5.46973L23.6747 1.56543Z" fill-rule="nonzero" fill="#D32026"/>
	<defs/>
</svg>
