<svg width="32.000000" height="32.000000" viewBox="0 0 32 32" fill="none" xmlns="http://www.w3.org/2000/svg" xmlns:xlink="http://www.w3.org/1999/xlink">
	<desc>
			Created with Pixso.
	</desc>
	<g clip-path="url(#clip13_740)">
		<path d="M16 10L16 12" stroke="#D32026" stroke-width="2.000000" stroke-linejoin="round" stroke-linecap="round"/>
		<path d="M16 20L16 22" stroke="#D32026" stroke-width="2.000000" stroke-linejoin="round" stroke-linecap="round"/>
		<path d="M14 20L17 20C18.1 20 19 19.1001 19 18C19 16.8999 18.1 16 17 16L15 16C13.9 16 13 15.1001 13 14C13 12.8999 13.9 12 15 12L18 12" stroke="#D32026" stroke-width="2.000000" stroke-linejoin="round" stroke-linecap="round"/>
		<path d="M16 6C21.5 6 26 10.5 26 16C26 21.5 21.5 26 16 26C10.5 26 6 21.5 6 16L6 13" stroke="#D32026" stroke-width="2.000000" stroke-linejoin="round" stroke-linecap="round"/>
		<path d="M10 17L6 13L2 17" stroke="#D32026" stroke-width="2.000000" stroke-linejoin="round" stroke-linecap="round"/>
		<path d="M16 2C23.7 2 30 8.30005 30 16C30 23.7 23.7 30 16 30" stroke="#D32026" stroke-width="2.000000" stroke-linejoin="round" stroke-linecap="round"/>
	</g>
	<defs>
		<clipPath id="clip13_740">
			<rect width="32.000000" height="32.000000" fill="white"/>
		</clipPath>
	</defs>
</svg>
