<svg width="9.624023" height="14.222168" viewBox="0 0 9.62402 14.2222" fill="none" xmlns="http://www.w3.org/2000/svg" xmlns:xlink="http://www.w3.org/1999/xlink">
	<desc>
			Created with Pixso.
	</desc>
	<path d="M8.2179 1.23608C7.28052 0.411865 6.14526 0 4.81201 0C3.47876 0 2.34351 0.411865 1.40613 1.23608C0.46875 2.06006 0 3.05518 0 4.22168C0 4.92529 0.401001 6.10132 1.203 7.74927C2.005 9.39722 2.80701 10.897 3.60901 12.2488C4.41101 13.6003 4.81201 14.2578 4.81201 14.2207C4.93701 14.0171 5.10889 13.7393 5.32751 13.3875C5.54626 13.0356 5.93164 12.3738 6.48376 11.4016C7.03577 10.4294 7.52002 9.53613 7.93665 8.72144C8.35327 7.90674 8.73865 7.06396 9.09277 6.19385C9.4469 5.32349 9.62402 4.66626 9.62402 4.22168C9.62402 3.05518 9.15527 2.06006 8.2179 1.23608ZM5.84314 5.1106C5.55151 5.36987 5.20264 5.49951 4.79639 5.49951C4.39014 5.49951 4.04126 5.36987 3.74963 5.1106C3.45801 4.85132 3.31213 4.54126 3.31213 4.18018C3.31213 3.81909 3.45801 3.51343 3.74963 3.26367C4.04126 3.01367 4.39014 2.88867 4.79639 2.88867C5.20264 2.88867 5.55151 3.01367 5.84314 3.26367C6.13477 3.51343 6.28064 3.81909 6.28064 4.18018C6.28064 4.54126 6.13477 4.85132 5.84314 5.1106Z" fill-rule="nonzero" fill="#D32026"/>
	<defs/>
</svg>
