<svg width="12.000000" height="12.000000" viewBox="0 0 12 12" fill="none" xmlns="http://www.w3.org/2000/svg" xmlns:xlink="http://www.w3.org/1999/xlink">
	<desc>
			Created with Pixso.
	</desc>
	<g clip-path="url(#clip1_917)">
		<path d="M11.946 9.56445L11.8863 9.38452C11.7448 8.96411 11.2811 8.52539 10.8552 8.40991L9.27863 7.97925C8.85107 7.86304 8.24121 8.01929 7.92841 8.33228L7.35785 8.90283C5.28424 8.34253 3.6582 6.71631 3.09863 4.64307L3.66925 4.07251C3.98206 3.75977 4.13843 3.15063 4.02209 2.72314L3.59222 1.14575C3.47589 0.718994 3.03656 0.255371 2.61694 0.115479L2.43695 0.0549316C2.01648 -0.0849609 1.41681 0.0566406 1.10406 0.369385L0.250549 1.22363C0.0980835 1.37524 0.000610352 1.81079 0.000610352 1.81079C-0.0292358 4.52051 1.03333 7.13135 2.95013 9.0481C4.86224 10.9602 7.4632 12.0212 10.1652 11.9985C10.1793 11.9985 10.6257 11.9026 10.7781 11.7507L11.6317 10.8972C11.9445 10.5845 12.0859 9.98486 11.946 9.56445Z" fill-rule="nonzero" fill="#D32026"/>
	</g>
	<defs>
		<clipPath id="clip1_917">
			<rect width="12.000000" height="12.000000" fill="white"/>
		</clipPath>
	</defs>
</svg>
