<?xml version="1.0" encoding="utf-8"?><svg viewBox="0 0 1482.991 1531.832" xmlns="http://www.w3.org/2000/svg" xmlns:xlink="http://www.w3.org/1999/xlink"><style>:root>svg{display:none}:root>svg:target{display:block}</style><svg viewBox="0 0 50 47.653" id="ava-01" xmlns="http://www.w3.org/2000/svg"><ellipse cx="25" cy="23.827" rx="25" ry="23.827"/><path d="M32.225 22.312l.031 13.406h4.867l-.031-22.398h-4.29l-8.257 13.922-8.383-13.922h-4.289v22.398h4.867V22.57l6.594 10.781h2.305l6.586-11.039z"/></svg><svg viewBox="0 0 50 47.653" id="ava-02" xmlns="http://www.w3.org/2000/svg"><ellipse cx="25" cy="23.827" rx="25" ry="23.827"/><path d="M34.017 26.023q-1.086-1.375-3.132-1.984 1.5-.735 2.328-2 .836-1.266.836-2.93 0-2.781-2.18-4.281-2.172-1.508-6.07-1.508H15.36v22.398H26.4q4.195 0 6.452-1.664 2.258-1.664 2.258-4.64 0-2.016-1.093-3.391zM25.346 22.6h-4.829v-5.445h4.829q1.664 0 2.546.71.883.704.883 2.009 0 1.351-.867 2.039-.867.687-2.562.687zM29.86 29q0 2.875-3.648 2.875h-5.696V26.21h5.696q3.648 0 3.648 2.79z"/></svg><svg viewBox="0 0 50 47.653" id="ava-03" xmlns="http://www.w3.org/2000/svg"><ellipse cx="25" cy="23.827" rx="25" ry="23.827"/><path d="M33.857 35.718v-4.156H21.662v-5.188h10.406v-4.03H21.662v-4.868h11.78V13.32H16.514v22.398h17.344z"/></svg><svg viewBox="0 0 1079.41 1053.94" id="decor-1" xmlns="http://www.w3.org/2000/svg"><path d="M551.7 262.719l136.166 97.473c24.879 142.136 95.408 159.391 105.559 168.618 10.152 9.227-109.65-104.926 30.445 9.505 112.077 91.545 113.048 169.528 99.525 197.077l-272.976-110.43" opacity=".021"/><path d="M555.139 263.433l127.597 109.035c12.703 143.531 81.63 166.966 90.975 177.043 9.345 10.078-100.494-114.084 29.578 12.162 104.057 100.996 98.372 178.615 82.521 204.801l-263.049-134.1" opacity=".042"/><path d="M558.684 264.044l118.057 119.767c.429 143.833 67.23 173.27 75.698 184.122 8.468 10.852-90.573-122.374 28.485 14.725 95.247 109.679 82.947 186.344 64.891 210.966L594.693 636.875" opacity=".063"/><path d="M562.345 264.561l107.618 129.588c-11.847 143.041 52.318 178.257 59.844 189.8 7.527 11.543-79.962-129.732 27.177 17.176 85.711 117.527 66.891 192.654 46.766 215.526L566.467 638.446" opacity=".083"/><path d="M566.128 264.998l96.361 138.422c-24.034 141.16 37.008 181.886 43.535 194.033 6.528 12.146-68.743-136.104 25.661 19.497 75.523 124.48 50.325 197.497 28.286 218.446L538.333 637.09" opacity=".104"/><path d="M570.04 265.363l84.37 146.204c-36.038 138.204 21.417 184.131 26.895 196.788 5.479 12.658-57.001-141.438 23.95 21.67 64.761 130.486 33.377 200.838 9.59 219.703L510.538 632.831" opacity=".125"/><path d="M574.087 265.671l71.738 152.872c-47.767 134.197 5.662 184.974 10.05 198.047 4.389 13.072-44.825-145.698 22.056 23.677 53.506 135.5 16.175 202.65-9.178 219.288l-185.42-233.837" opacity=".146"/><path d="M578.275 265.932l58.558 158.377c-59.132 129.168-10.135 184.41-6.87 197.798 3.264 13.388-32.309-148.848 19.994 25.504 41.843 139.482-1.15 202.92-27.877 217.204L456.957 615.818" opacity=".167"/><path d="M582.606 266.16l44.934 162.677c-70.049 123.156-25.856 182.442-23.74 196.043 2.116 13.601-19.545-150.865 17.782 27.138 29.861 142.402-18.468 201.645-46.364 213.467L431.649 603.222" opacity=".188"/><path d="M587.083 266.367l30.967 165.739c-80.431 116.207-41.379 179.086-40.428 192.797.952 13.711-6.633-151.734 15.433 28.564 17.653 144.239-35.643 198.836-64.498 208.106L407.636 588.04" opacity=".208"/><path d="M591.708 266.567l16.765 167.539c-90.201 108.374-56.588 174.367-56.809 188.083-.22 13.717 6.329-151.448 12.967 29.774 5.31 144.977-52.548 194.514-82.141 201.16l-97.354-282.721" opacity=".229"/><path d="M596.481 266.773l2.435 168.064c-99.285 99.715-71.366 168.321-72.757 181.938-1.391 13.618 19.244-150.01 10.402 30.756-7.073 144.613-69.053 188.712-99.159 192.684l-73.046-289.757" opacity=".25"/><path d="M601.401 266.998l-11.913 167.31c-107.614 90.299-85.601 160.994-88.152 174.409-2.55 13.415 32.011-147.43 7.758 31.505-19.403 143.147-85.032 181.472-115.422 182.741L345.49 528.375" opacity=".271"/><path d="M606.467 267.255l-26.171 165.283c-115.123 80.194-99.184 152.441-102.875 165.552-3.691 13.11 44.535-143.728 5.054 32.013-31.584 140.593-100.365 172.852-130.807 171.408l-22.951-297.177" opacity=".292"/><path d="M611.674 267.557l-40.229 161.997c-121.757 69.48-112.013 142.729-116.816 155.435-4.803 12.707 56.72-138.932 2.313 32.279-43.526 136.969-114.933 162.917-145.196 158.77l2.454-297.505" opacity=".313"/><path d="M617.021 267.916l-53.982 157.479C435.576 483.632 439.05 557.325 433.172 569.53c-5.879 12.205 68.473-133.079-.447 32.299-55.136 132.301-128.626 151.741-158.48 144.923l27.841-295.567" opacity=".333"/><path d="M622.5 268.344l-67.324 151.763c-132.199 46.549-135.021 120.127-141.931 131.738-6.909 11.611 79.706-126.213-3.202 32.072-66.326 126.628-141.341 139.411-170.558 129.974l53.016-291.381" opacity=".354"/><path d="M628.106 268.853l-80.153 144.891c-135.929 34.509-145.026 107.41-152.914 118.339-7.888 10.929 90.332-118.386-5.933 31.602-77.012 119.99-152.981 126.019-181.338 114.035l77.787-284.977" opacity=".375"/><path d="M633.831 269.453L541.46 406.371c-138.626 22.205-153.927 93.875-162.733 104.038-8.807 10.163 100.269-109.659-8.62 30.891-87.112 112.439-163.456 111.669-190.738 97.229l101.967-276.404" opacity=".396"/><path d="M639.67 270.155L535.782 398.056c-140.266 9.733-161.657 79.627-171.314 88.947-9.658 9.32 109.445-100.097-11.241 29.945-96.548 104.032-172.686 96.468-198.686 79.682l125.37-265.728" opacity=".417"/><path d="M645.61 270.968L530.997 388.88c-140.84-2.814-168.156 64.771-178.591 73.177-10.435 8.407 117.787-89.772-13.776 28.771-105.25 94.835-180.602 80.534-205.122 61.53l147.819-253.029" opacity=".438"/><path d="M651.644 271.901L527.178 378.925c-140.341-15.339-173.376 49.423-184.509 56.852-11.134 7.429 125.233-78.765-16.206 27.378-113.151 84.915-187.145 63.987-209.998 42.909l169.144-238.405" opacity=".458"/><path d="M657.761 272.96l-133.372 95.323c-138.775-27.747-177.276 33.699-189.023 40.094-11.747 6.394 131.726-67.159-18.512 25.776-120.191 74.349-192.263 46.953-213.275 23.961L292.76 236.149" opacity=".479"/><path d="M663.95 274.154L522.687 357.05c-136.152-39.945-179.827 17.718-192.098 23.03-12.271 5.311 137.216-55.041-20.678 23.979-126.316 63.216-195.918 29.561-214.93 4.831L302.76 205.052" opacity=".5"/></svg><svg viewBox="0 0 1482.99 1496.09" id="decor-10" xmlns="http://www.w3.org/2000/svg"><g opacity=".8"><path d="M439.212 633.926l122.255 210.155C468.053 953.099 58.497 922.505 468.69 1028c410.193 105.49 722.59-194.765 426.972 30.48-236.497 180.19-107.154 86.26-12.92 16.77" opacity=".042"/><path d="M448.165 606.057l103.14 217.87c-103.883 100.12-512.038 36.181-110.209 174.239 401.828 138.054 743.254-133.162 425.643 65.254-254.09 158.74-115.554 76.49-14.525 15.52" opacity=".083"/><path d="M461.445 578.852l83.241 223.926c-113.561 90.461-517.21-6.338-126.804 163.234 390.407 169.568 758.268-70.545 421.077 99.538-269.751 136.07-123.076 66.13-16.021 14.15" opacity=".125"/><path d="M479.008 552.659l62.707 228.278C419.34 861.049 23.27 732.128 399.282 931.922c376.013 199.798 767.498-7.391 413.305 133.068-283.357 112.36-129.661 55.27-17.393 12.67" opacity=".167"/><path d="M500.773 527.819l41.697 230.893C412.212 827.866 26.735 667.804 385.492 896.3c358.758 228.5 770.898 55.819 402.387 165.58-294.807 87.8-135.259 43.99-18.633 11.1" opacity=".208"/><path d="M526.63 504.662L547 736.413c-137.15 57.67-509.1-132.314-170.329 123.144C715.442 1115.02 1145.1 978.162 765.078 1056.39c-304.015 62.57-139.828 32.37-19.732 9.45" opacity=".25"/><path d="M556.436 483.507l-1.113 230.845C412.326 760.099 56.733 541.637 372.94 822.114 689.147 1102.59 1133.05 1002.6 744.412 1048.7c-310.908 36.87-143.333 20.51-20.682 7.72" opacity=".292"/><path d="M590.019 464.656l-22.586 228.182c-147.757 33.476-484.287-211.801-193.05 91.561C665.62 1087.76 1120.39 1025.39 726.092 1039.01c-315.435 10.89-145.746 8.5-21.472 5.94" opacity=".333"/><path d="M627.179 448.394L583.29 672.176c-151.392 20.95-466.296-249.274-202.247 74.663 264.05 323.941 726.217 299.671 329.269 280.701-317.56-15.17-147.05-3.58-22.1 4.11" opacity=".375"/><path d="M667.687 434.986l-64.857 217.68c-153.874 8.264-444.757-284.851-209.904 57.195 234.853 342.049 700.914 356.069 304.323 304.659-317.27-41.122-147.236-15.64-22.559 2.24" opacity=".417"/><path d="M711.289 424.676l-85.332 209.92c-155.185-4.484-419.833-318.259-215.964 39.294 203.869 357.55 670.267 409.75 277.062 326.3-314.565-66.763-146.301-27.58-22.848.36" opacity=".458"/><path d="M757.709 417.684L652.552 618.247c-155.316-17.198-391.715-349.246-220.381 21.093 171.334 370.34 634.519 460.32 247.691 345.452-309.465-91.891-144.251-39.304-22.961-1.525" opacity=".5"/><path d="M806.647 414.205l-124.181 189.68c-154.265-29.782-360.615-377.575-223.121 2.731S1053.3 1113.99 675.781 968.593c-302.011-116.322-141.105-50.732-22.901-3.397" opacity=".542"/><path d="M857.786 414.406L715.525 591.759c-152.039-42.138-326.77-403.03-224.162-15.651 102.609 387.379 548.857 550.582 183.534 375.747-292.259-139.866-136.885-61.773-22.666-5.242" opacity=".583"/><path d="M910.791 418.428L751.533 582.104C602.876 527.93 461.094 156.687 528.036 548.19c66.941 391.503 499.584 589.59 149.234 386.657-280.281-162.347-131.623-72.343-22.258-7.048" opacity=".625"/><path d="M965.314 426.382L790.271 575.136c-144.143-65.798-251.897-444.568-221.132-51.919 30.766 392.648 446.511 624.113 113.799 394.624-266.17-183.592-125.358-82.363-21.681-8.8" opacity=".667"/><path d="M1020.99 438.348l-189.492 132.7c-138.531-76.921-211.438-460.334-217.083-69.529-5.645 390.804 390.045 653.891 77.498 399.588-250.035-203.439-118.141-91.756-20.939-10.485" opacity=".708"/><path d="M1077.46 454.378L874.955 570.013c-131.866-87.459-169.37-472.598-211.382-86.61C621.56 869.39 994.174 1162.09 704.18 884.914c-231.996-221.739-110.024-100.451-20.038-12.09" opacity=".75"/><path d="M1134.34 474.491l-213.973 97.69c-124.198-97.33-126.013-481.264-204.073-103.032-78.061 378.232 268.645 698.321 3.406 400.379-212.191-238.35-101.069-108.382-18.984-13.604" opacity=".792"/><path d="M1191.26 498.674l-223.818 79.002C851.858 471.215 885.745 91.409 772.231 459.007c-113.514 367.599 204.645 712.633-33.819 396.2-190.772-253.149-91.345-115.488-17.786-15.015" opacity=".833"/><path d="M1247.83 526.886l-231.95 59.713c-106.094-114.782-36.763-487.57-184.866-133.403C682.91 807.363 970.101 1174.73 760.226 842.2c-167.9-266.02-80.927-121.715-16.452-16.309" opacity=".875"/><path d="M1303.68 559.054l-238.32 39.969c-95.793-122.229 8.45-485.162-173.112-147.122-181.566 338.04 72.471 724.929-107.218 378.849-143.751-276.867-69.891-127.016-14.993-17.482" opacity=".917"/><path d="M1358.44 595.074l-242.88 19.922c-84.76-128.747 53.61-479.063-160.036-159.722-213.647 319.34 5.303 722.816-142.832 365.81-118.507-285.606-58.325-131.349-13.42-18.52" opacity=".958"/><path d="M1411.75 634.814l-245.59-.278c-73.09-134.284 98.36-469.316-145.75-171.105-244.098 298.21-61.902 715.199-177.355 349.987C750.693 521.246 796.741 678.734 831.31 794"/></g></svg><svg viewBox="0 0 876.119 961.8" id="decor-11" xmlns="http://www.w3.org/2000/svg"><path d="M750.467 608.578c-142.334 61.289 153.271 223.197-137.796 32.717-232.854-152.384-54.746-173.809 63.415-165.473" opacity=".042"/><path d="M734.71 597.343C589.364 651.1 876.09 828.256 595.391 622.804c-224.56-164.362-45.575-176.436 71.988-161.927" opacity=".083"/><path d="M718.402 586.54c-147.961 46.076 129.101 237.996-140.461 18.134-215.65-175.889-36.278-178.579 80.364-157.938" opacity=".125"/><path d="M701.521 576.137c-150.169 38.27 116.468 244.427-141.218 10.759-206.149-186.935-26.882-180.233 88.52-153.516" opacity=".167"/><path d="M684.047 566.106c-151.966 30.358 103.516 250.187-141.587 3.353-196.083-197.467-17.413-181.393 96.432-148.672" opacity=".208"/><path d="M665.961 556.414c-153.347 22.363 90.281 255.261-141.569-4.062-185.479-207.459-7.895-182.056 104.082-143.422" opacity=".25"/><path d="M647.246 547.028c-154.306 14.307 76.798 259.637-141.161-11.465-174.368-216.882 1.643-182.219 111.445-137.778" opacity=".292"/><path d="M627.888 537.916c-154.844 6.211 63.105 263.3-140.368-18.838-162.778-225.71 11.178-181.883 118.503-131.756" opacity=".333"/><path d="M607.873 529.043c-154.957-1.901 49.238 266.242-139.19-26.158-150.742-233.92 20.682-181.049 125.236-125.374" opacity=".375"/><path d="M587.189 520.375c-154.645-10.008 35.236 268.454-137.63-33.407C311.265 245.48 479.687 307.25 581.185 368.321" opacity=".417"/><path d="M565.826 511.876c-153.909-18.088 21.138 269.931-135.693-40.564-125.466-248.395 39.493-177.895 137.655-111.596" opacity=".458"/><path d="M543.776 503.511c-152.751-26.118 6.983 270.667-133.384-47.61-112.293-254.622 48.749-175.585 143.307-104.239" opacity=".5"/><path d="M521.034 495.243c-151.175-34.077-7.192 270.661-130.709-54.526-98.814-260.149 57.871-172.793 148.566-96.596" opacity=".542"/><path d="M497.595 487.036c-149.184-41.942-21.348 269.914-127.677-61.291-85.063-264.965 66.836-169.528 153.418-88.689" opacity=".583"/><path d="M473.458 478.854c-146.786-49.692-35.446 268.427-124.295-67.89-71.079-269.053 75.617-165.797 157.85-80.537" opacity=".625"/><path d="M448.62 470.66c-143.983-57.307-49.445 266.204-120.571-74.302-56.9-272.405 84.191-161.613 161.849-72.166" opacity=".667"/><path d="M423.085 462.417c-140.786-64.763-63.309 263.251-116.517-80.51-42.566-275.009 92.533-156.985 165.404-63.597" opacity=".708"/><path d="M396.856 454.089c-137.204-72.043-77 259.577-112.143-86.498-28.115-276.86 100.622-151.927 168.504-54.853" opacity=".75"/><path d="M369.939 445.639c-133.246-79.125-90.48 255.192-107.464-92.248-13.586-277.952 108.436-146.453 171.145-45.959" opacity=".792"/><path d="M342.339 437.033c-128.922-85.99-103.711 250.106-102.488-97.747.979-278.282 115.951-140.576 173.315-36.938" opacity=".833"/><path d="M314.067 428.233c-124.245-92.619-116.659 244.336-97.232-102.976 15.542-277.85 123.15-134.315 175.011-27.817" opacity=".875"/><path d="M285.134 419.206c-119.228-98.995-129.287 237.896-91.71-107.923 30.062-276.656 130.011-127.687 176.228-18.62" opacity=".917"/><path d="M255.552 409.918c-113.884-105.1-141.56 230.803-85.936-112.576 44.5-274.703 136.515-120.707 176.961-9.371" opacity=".958"/><path d="M225.336 400.333C117.109 289.418 71.891 623.411 145.41 283.415c58.816-271.998 142.645-113.398 177.208-.098"/></svg><svg viewBox="0 0 973.14 925.999" id="decor-2" xmlns="http://www.w3.org/2000/svg"><path d="M753.98 418.442l-177.686-90.658c21.461-109.383 331.181-251.942-10.759-158.765-341.94 93.177-440.984 416.356-322.289 149.561 94.955-213.436 41.065-99.766 2.25-16.25" opacity=".042"/><path d="M759.31 440.469l-167.108-103.37c32.819-107.649 355.664-227.553 5.977-159.281-349.686 68.272-482.076 383.749-336.074 125.985 116.803-206.21 51.297-96.628 3.944-16.06" opacity=".083"/><path d="M761.222 463.778L605.965 348.483c43.927-105.096 377.438-201.434 22.667-158.586-354.772 42.848-519.5 348.221-347.3 101.451 137.759-197.415 61.137-92.755 5.606-15.748" opacity=".125"/><path d="M759.603 488.117L617.378 361.775c54.701-101.743 396.342-173.781 39.184-156.683-357.156 17.098-552.969 310.043-355.883 76.145 157.668-187.119 70.513-88.177 7.227-15.317" opacity=".167"/><path d="M754.364 513.232l-128.11-136.429c65.059-97.615 412.226-144.805 55.404-153.588-356.824-8.782-582.23 269.506-361.759 50.259 176.378-175.396 79.353-82.927 8.793-14.768" opacity=".208"/><path d="M745.448 538.857L632.427 393.38c74.922-92.744 424.973-114.727 71.202-149.324-353.775-34.596-607.061 226.917-364.88 23.991 193.744-162.34 87.587-77.047 10.29-14.107" opacity=".25"/><path d="M732.822 564.727L635.75 411.309c84.214-87.168 434.49-83.777 86.458-143.924-348.034-60.146-627.271 182.602-365.225-2.459 209.637-148.049 95.156-70.58 11.71-13.34" opacity=".292"/><path d="M716.481 590.571l-80.383-160.19c92.865-80.929 440.702-52.19 101.055-137.428-339.644-85.239-642.707 136.895-362.79-28.892 223.934-132.63 102-63.576 13.042-12.47" opacity=".333"/><path d="M696.452 616.121l-63.083-165.744c100.81-74.073 443.551-20.204 114.884-129.886-328.669-109.683-653.252 90.148-357.594-55.105 236.526-116.201 108.068-56.087 14.273-11.505" opacity=".375"/><path d="M672.786 641.112l-45.303-170.037c107.988-66.654 443.027 11.935 127.838-121.356-315.192-133.292-658.824 42.715-349.676-80.897 247.318-98.89 113.313-48.173 15.396-10.453" opacity=".417"/><path d="M645.564 665.28l-27.177-173.036c114.343-58.727 439.133 43.984 139.819-111.902-299.317-155.887-659.383-5.044-339.097-106.074 256.228-80.825 117.697-39.892 16.402-9.322" opacity=".458"/><path d="M614.895 688.369l-8.845-174.717c119.828-50.354 431.9 75.697 150.736-101.597-281.164-177.295-654.924-52.764-325.938-130.444 263.189-62.145 121.184-31.307 17.283-8.119" opacity=".5"/><path d="M580.911 710.131l9.554-175.068c124.402-41.598 421.375 106.834 160.507-90.519C490.1 247.19 105.491 344.462 440.674 290.723c268.146-42.992 123.749-22.483 18.033-6.855" opacity=".542"/><path d="M543.772 730.33l27.881-174.088c128.028-32.525 407.648 137.159 169.055-78.752-238.593-215.91-631.124-146.638-292.297-176.027 271.063-23.512 125.373-13.489 18.646-5.538" opacity=".583"/><path d="M503.662 748.739l45.994-171.783c130.681-23.203 390.817 166.44 176.318-66.385-214.5-232.824-611.965-192.079-272.071-196.894 271.916-3.852 126.042-4.391 19.116-4.179" opacity=".625"/><path d="M460.784 765.145l63.759-168.17c132.339-13.706 371.01 194.454 182.237-53.512C518.008 295.497 118.632 307.404 457.007 327.2c270.699 15.837 125.752 4.739 19.44-2.788" opacity=".667"/><path d="M415.366 779.353l81.038-163.277c132.989-4.105 348.38 220.987 186.771-40.234-161.61-261.22-559.855-278.24-225.576-233.985 267.423 35.405 124.505 13.834 19.617-1.377" opacity=".708"/><path d="M367.656 791.181l97.7-157.142c132.627 5.529 323.098 245.84 189.882-26.648-133.216-272.487-527.301-318.305-199.662-249.926 262.112 54.703 122.31 22.823 19.646.045" opacity=".75"/><path d="M317.914 800.467l113.619-149.81c131.256 15.12 295.358 268.821 191.549-12.859-103.81-281.68-490.735-355.948-172.228-263.967 254.806 73.586 119.184 31.639 19.523 1.468" opacity=".792"/><path d="M266.422 807.071l128.673-141.339c128.886 24.595 265.369 289.756 191.757 1.027C513.24 378.03 136.419 275.877 443.369 390.761c245.56 91.908 115.152 40.214 19.253 2.879" opacity=".833"/><path d="M213.47 810.867l142.747-131.792c125.536 33.884 233.362 308.486 190.507 14.905-42.855-293.581-406.703-422.84-113.646-285.927 234.446 109.53 110.243 48.482 18.836 4.267" opacity=".875"/><path d="M159.363 811.756l155.735-121.242c121.23 42.915 199.578 324.866 187.807 28.67-11.772-296.198-359.878-451.58-82.945-293.681 221.547 126.32 104.495 56.382 18.276 5.623" opacity=".917"/><path d="M104.412 809.659L271.951 699.89c116 51.619 164.275 338.78 183.676 42.217 19.402-296.561-310.314-476.884-51.611-299.201 206.962 142.148 97.952 63.853 17.576 6.937" opacity=".958"/><path d="M48.937 804.518l178.066-97.46c109.89 59.93 127.722 350.112 178.149 55.442 50.427-294.667-258.388-498.558-19.885-302.442 190.802 156.893 90.662 70.838 16.743 8.198"/></svg><svg viewBox="0 0 854.871 1045.74" id="decor-3" xmlns="http://www.w3.org/2000/svg"><path d="M361.631 179.055c76.937 270.849 349.427-160.237 34.696 250.117-251.785 328.284-265.444 14.476-240.801-183.464" opacity=".042"/><path d="M373.715 186.964c65.366 272.569 359.733-136.429 23.692 249.421-268.834 308.679-268.425-2.377-234.617-196.49" opacity=".083"/><path d="M386.386 196.01c53.616 273.542 369.054-112.247 12.623 248.04-285.145 288.23-270.67-19.222-227.79-208.976" opacity=".125"/><path d="M399.597 206.216c41.719 273.764 377.364-87.758 1.52 245.98-300.675 266.99-272.173-36.014-220.338-220.89" opacity=".167"/><path d="M413.302 217.603c29.707 273.237 384.638-63.028-9.588 243.245-315.38 245.019-272.931-52.707-212.283-232.198" opacity=".208"/><path d="M427.45 230.189c17.615 271.96 390.86-38.126-20.669 239.843-329.222 222.376-272.94-69.257-203.646-242.87" opacity=".25"/><path d="M441.992 243.987c5.475 269.939 396.009-13.119-31.693 235.785-342.161 199.123-272.201-85.617-194.451-252.877" opacity=".292"/><path d="M456.877 259.008c-6.682 267.178 400.073 11.925-42.631 231.081C60.083 665.413 143.53 388.347 229.523 227.899" opacity=".333"/><path d="M472.051 275.261c-18.819 263.683 403.04 36.935-53.451 225.741C53.406 652.048 150.11 383.415 244.111 230.218" opacity=".375"/><path d="M487.462 292.748c-30.905 259.466 404.903 61.844-64.125 219.785C48.114 638.885 157.81 379.422 259.561 233.896" opacity=".417"/><path d="M503.057 311.471c-42.907 254.538 405.656 86.583-74.625 213.225-384.224 101.313-261.836-148.27-152.613-285.725" opacity=".458"/><path d="M518.78 331.427c-54.791 248.912 405.297 111.085-84.918 206.081-392.173 75.996-257.428-163.022-141.034-292.031" opacity=".5"/><path d="M534.577 352.609c-66.524 242.605 403.827 135.283-94.979 198.372-399.045 50.471-252.314-177.327-129.067-297.536" opacity=".542"/><path d="M550.394 375.008c-78.075 235.632 401.251 159.111-104.78 190.12C40.79 589.935 199.106 373.981 328.867 262.903" opacity=".583"/><path d="M566.176 398.613C476.763 626.626 963.75 581.114 451.882 579.959c-409.494-.925-240.027-204.443-104.107-306.086" opacity=".625"/><path d="M581.867 423.406C481.363 643.175 974.675 628.798 458.373 595.481c-413.042-26.654-232.888-217.178-91.181-309.109" opacity=".667"/><path d="M597.414 449.367C486.093 660.291 984.379 677.087 465.058 611.7c-415.457-52.309-225.111-229.318-78.006-311.283" opacity=".708"/><path d="M612.762 476.476C490.929 677.975 992.823 725.899 471.907 628.621 55.173 550.799 255.19 387.792 407.291 316.016" opacity=".75"/><path d="M627.857 504.705c-132.01 191.523 372.116 270.443-148.968 141.541-416.867-103.122-207.728-251.681-51.05-313.07" opacity=".792"/><path d="M642.648 534.026C500.822 715.047 1005.8 824.748 485.975 664.575c-415.86-128.138-198.17-261.842-37.344-312.677" opacity=".833"/><path d="M657.081 564.408C505.828 734.432 1010.27 874.611 493.132 683.607 79.422 530.803 305.063 412.321 469.598 372.18" opacity=".875"/><path d="M671.105 595.815C510.84 754.375 1013.37 924.65 500.331 703.337 89.902 526.286 322.878 423.351 490.67 394.015" opacity=".917"/><path d="M684.671 628.211c-168.839 146.662 330.399 346.565-177.132 95.55-406.021-200.812-166.35-287.919 4.239-306.371" opacity=".958"/><path d="M697.73 661.554c-176.949 134.362 317.62 363.346-183.004 83.317-400.502-224.023-154.791-295.062 18.127-302.579"/></svg><svg viewBox="0 0 671.276 772.173" id="decor-4" xmlns="http://www.w3.org/2000/svg"><path d="M182.761 364.015l35.111-94.984c77.488-11.109 76.676-61.977 80.415-68.96 3.738-6.982-43.385 75.161.825-21.854 35.369-77.611 79.802-74.407 97.597-63.103l-21.81 194.685" opacity=".021"/><path d="M182.648 361.528l43.018-88.117c80.128-2.108 83.092-51.49 87.439-57.839 4.346-6.348-50.006 67.984 2.475-21.084 41.985-71.255 87.218-63.186 104.586-50.244l-36.844 186.215" opacity=".042"/><path d="M182.461 358.958l50.597-80.58c82.159 6.91 88.876-40.611 93.798-46.277 4.921-5.666-56.247 60.29 4.106-20.155 48.282-64.356 93.97-51.483 110.779-37.002l-51.597 176.329" opacity=".063"/><path d="M182.203 356.299l57.791-72.43c83.564 15.875 93.983-29.422 99.443-34.363 5.459-4.941-62.06 52.137 5.705-19.072 54.212-56.967 100.008-39.388 116.13-23.478l-65.958 165.1" opacity=".083"/><path d="M181.88 353.546l64.545-63.729c84.333 24.72 98.375-18.01 104.331-22.188 5.956-4.177-67.4 43.588 7.262-17.843 59.729-49.145 105.284-26.994 120.596-9.775l-79.817 152.614" opacity=".104"/><path d="M181.496 350.695l70.809-54.543c84.461 33.376 102.019-6.46 108.425-9.843 6.407-3.383-72.227 34.707 8.763-16.479 64.792-40.949 109.759-14.395 124.144 4.001L400.57 412.798" opacity=".125"/><path d="M181.06 347.742l76.533-44.942c83.945 41.779 104.885 5.138 111.694 2.576 6.809-2.563-76.505 25.562 10.197-14.99 69.361-32.44 113.399-1.685 126.747 17.748l-105.61 124.263" opacity=".146"/><path d="M180.575 344.683l81.675-34.998c82.79 49.863 106.954 16.697 114.113 14.975 7.159-1.722-80.2 16.222 11.553-13.385 73.403-23.686 116.176 11.037 128.387 31.359L398.954 451.246" opacity=".167"/><path d="M180.05 341.518l86.195-24.788c81.006 57.567 108.208 28.129 115.663 27.26 7.455-.869-83.285 6.759 12.822-11.68 76.886-14.75 118.068 23.675 129.049 44.732l-128.195 92.136" opacity=".188"/><path d="M179.49 338.244l90.06-14.39c78.605 64.835 108.639 39.348 116.334 39.339 7.694-.009-85.737-2.756 13.993-9.885 79.783-5.704 119.062 36.132 128.728 57.763L390.54 486.029" opacity=".208"/><path d="M178.905 334.862l93.238-3.882c75.606 71.608 108.244 50.267 116.119 51.117 7.874.851-87.536-12.249 15.057-8.015 82.074 3.387 119.15 48.315 127.429 70.356l-146.885 57.209" opacity=".229"/><path d="M178.3 331.371l95.707 6.656c72.032 77.836 107.025 60.803 115.02 62.507 7.995 1.704-88.667-21.65 16.008-6.085 83.74 12.452 118.331 60.131 125.159 82.413l-154.587 39.026" opacity=".25"/><path d="M177.684 327.774l97.448 17.142c67.909 83.472 104.991 70.876 113.046 73.421 8.055 2.545-89.126-30.886 16.835-4.108 84.769 21.423 116.612 71.488 121.937 93.843l-161.112 20.545" opacity=".271"/><path d="M177.064 324.071l98.447 27.499c63.27 88.472 102.158 80.41 110.211 83.776 8.054 3.366-88.904-39.887 17.536-2.1 85.152 30.23 114.004 82.302 117.786 104.559l-166.41 1.908" opacity=".292"/><path d="M176.448 320.266l98.698 37.646c58.148 92.8 98.547 89.332 106.537 93.494 7.991 4.161-88.007-48.584 18.103-.075 84.887 38.806 110.529 92.488 112.739 114.478l-170.443-16.744" opacity=".313"/><path d="M175.844 316.362l98.196 47.507c52.585 96.421 94.187 97.575 102.054 102.5 7.867 4.925-86.44-56.911 18.531 1.949 83.977 47.089 106.214 101.972 106.835 123.528l-173.179-35.269" opacity=".333"/><path d="M175.26 312.365l96.947 57.006c46.621 99.308 89.109 105.074 96.793 110.725 7.683 5.652-84.216-64.805 18.819 3.96 82.427 55.012 101.089 110.679 100.117 131.636L313.34 562.168" opacity=".354"/><path d="M174.702 308.278l94.961 66.071c40.302 101.44 83.354 111.774 90.795 118.109 7.442 6.335-81.349-72.206 18.964 5.94 80.25 62.516 95.196 118.543 92.637 138.742l-174.684-71.373" opacity=".375"/><path d="M174.179 304.108l92.252 74.634c33.676 102.799 76.963 117.623 84.106 124.593 7.143 6.97-77.864-79.058 18.964 7.874 77.463 69.546 88.578 125.507 84.452 144.794L280.51 567.325" opacity=".396"/><path d="M173.697 299.861l88.84 82.628c26.795 103.377 69.988 122.578 76.778 130.13 6.79 7.552-73.787-85.308 18.82 9.749 74.085 76.045 81.285 131.513 75.625 149.742L262.877 566.801" opacity=".417"/><path d="M173.262 295.545l84.754 89.993c19.709 103.167 62.479 126.599 68.864 134.675 6.386 8.077-69.147-90.908 18.533 11.55 70.144 81.966 73.374 136.52 66.222 153.551L244.614 564.176" opacity=".438"/><path d="M172.882 291.166l80.021 96.673c12.474 102.172 54.496 129.657 60.428 138.196 5.932 8.54-63.983-95.816 18.104 13.263 65.669 87.263 64.905 140.487 56.315 156.192L225.861 559.445" opacity=".458"/><path d="M172.562 286.732l74.68 102.618c5.143 100.4 46.097 131.728 51.53 140.666 5.434 8.937-58.33-99.997 17.538 14.874 60.694 91.896 55.942 143.386 45.979 157.644L206.765 552.617" opacity=".479"/><path d="M172.307 282.252l68.771 107.783c-2.227 97.863 37.347 132.795 42.241 142.063 4.894 9.268-52.234-103.414 16.838 16.373 55.258 95.83 46.553 145.193 35.294 157.896L187.475 543.72" opacity=".5"/></svg><svg viewBox="0 0 1031 956" id="decor-5" xmlns="http://www.w3.org/2000/svg"><path d="M317.423 698.534s.446-139.388-84.448-145.138c-84.893-5.751-78.932-112.913-9.183-150.449 69.75-37.536 18.676-105.883-69.173-107.336-87.849-1.453-28.897-.692-13.127-96.349 15.771-95.657 114.841-78.044 114.841-78.044S413.309 6.963 455.984 574.697c101.759 8.477 117.21 164.685 112.216 241.729" opacity=".042"/><path d="M331.238 677.005s10.972-138.812-73.165-153.079c-84.136-14.268-70.105-120.423 2.214-150.8 72.319-30.377 26.601-103.602-60.804-113.885-87.405-10.284-28.735-3.596-5.801-97.303C216.617 68.231 313.98 95.742 313.98 95.742S478.987-2.289 478.624 567.577c100.732 18.68 104.327 175.847 93.534 252.096" opacity=".083"/><path d="M345.129 657.301s21.413-137.18-61.326-159.856c-82.739-22.676-60.744-127.016 13.594-150.003 74.338-22.988 34.324-100.532-51.972-119.568-86.296-19.036-28.354-6.472 1.57-97.516 29.924-91.043 124.838-53.844 124.838-53.844s171.784-81.061 128.385 486.6c98.938 28.741 90.65 185.672 74.139 260.544" opacity=".125"/><path d="M358.956 639.422s31.692-134.504-49.02-165.416c-80.711-30.912-50.92-132.642 24.871-148.065 75.791-15.423 41.785-96.697-42.744-124.34-84.53-27.644-27.758-9.3 8.928-96.987s128.43-41.083 128.43-41.083S606.672.057 520.569 561.193c96.39 38.583 76.283 194.083 54.18 267.01" opacity=".167"/><path d="M372.583 623.356s41.729-130.805-36.341-169.718c-78.07-38.912-40.71-137.259 35.958-145 76.667-7.74 48.929-92.126-33.192-128.166-82.12-36.041-26.949-12.056 16.219-95.72C398.396 1.09 486.271 56.744 486.271 56.744s181.37-45.405 53.217 504.936c93.11 48.131 61.336 201.017 33.81 271.444" opacity=".208"/><path d="M385.872 609.074s51.449-126.11-23.385-172.727c-74.834-46.617-30.189-140.831 46.771-140.831 76.96 0 55.701-86.855-23.386-131.018-79.086-44.163-25.936-14.721 23.386-93.724 49.323-79.003 132.661-14.72 132.661-14.72S726.028 29.063 556.8 564.42c89.121 57.314 45.921 206.422 13.182 273.812" opacity=".25"/><path d="M398.692 596.536s60.776-120.456-10.253-174.422c-71.028-53.966-19.438-143.332 57.229-135.591 76.668 7.741 62.048-80.921-13.402-132.871s-24.726-17.274 30.375-91.015c55.101-73.742 133.268-1.322 133.268-1.322s185.446-8.368-23.568 507.93c84.454 66.06 30.158 210.255-7.547 274.095" opacity=".292"/><path d="M410.91 585.688s69.642-113.884 2.959-174.789c-66.683-60.906-8.54-144.742 67.251-129.319 75.791 15.423 67.923-74.372-3.316-133.714-71.24-59.34-23.328-19.695 37.132-87.613C575.397-7.666 647.797 72.34 647.797 72.34S833.17 82.658 585.96 575.967c79.143 74.303 14.164 212.489-28.219 272.293" opacity=".333"/><path d="M422.403 576.463s77.978-106.446 16.148-173.827c-61.83-67.38 2.424-145.049 76.762-122.062 74.337 22.988 73.281-67.257 6.794-133.538-66.487-66.281-21.752-21.967 43.608-83.546 65.359-61.578 131.441 25.406 131.441 25.406s183.889 28.923-99.635 495.49c73.23 81.981-1.937 213.105-48.675 268.419" opacity=".375"/><path d="M433.05 568.783s85.72-98.198 29.214-171.541c-56.506-73.344 13.369-144.254 85.687-113.877 72.319 30.377 78.082-59.631 16.854-132.347-61.229-72.716-20.01-24.071 49.751-78.841 69.762-54.77 129.023 38.529 129.023 38.529s181.004 47.31-136.676 483.583c66.76 89.035-18.024 212.099-68.761 262.502" opacity=".417"/><path d="M442.738 562.556s92.81-89.202 42.058-167.95c-50.752-78.748 24.212-142.361 93.962-104.825 69.749 37.536 82.287-51.55 26.784-130.148-55.504-78.598-18.116-25.992 55.516-73.537s125.622 51.361 125.622 51.361 176.743 65.335-172.676 467.995c59.782 95.411-33.973 209.479-88.324 254.586" opacity=".458"/><path d="M451.361 557.679s99.193-79.527 54.582-163.08c-44.612-83.553 34.871-139.384 101.52-94.975 66.65 44.408 85.868-43.077 36.511-126.959-49.357-83.882-16.084-27.715 60.859-67.673 76.942-39.958 121.265 63.8 121.265 63.8s171.136 82.865-207.363 448.847c52.35 101.061-49.663 205.264-107.214 244.733" opacity=".5"/><path d="M458.821 554.042s104.822-69.248 66.69-156.97c-38.132-87.722 45.265-135.346 108.307-84.402 63.042 50.943 88.794-34.277 45.96-122.804-42.834-88.527-13.93-29.227 65.738-61.294 79.667-32.067 115.985 75.755 115.985 75.755s164.229 99.763-240.47 426.281c44.518 105.942-64.977 199.488-125.289 233.019" opacity=".542"/><path d="M465.029 551.521s109.653-58.44 78.291-149.664c-31.362-91.224 55.313-130.278 114.268-73.188 58.955 57.091 91.045-25.214 55.06-117.713-35.986-92.498-11.67-30.517 70.116-54.448 81.786-23.932 109.823 87.133 109.823 87.133s156.073 115.901-271.748 400.471c36.348 110.017-79.795 192.194-142.41 219.53" opacity=".583"/><path d="M469.906 549.988s113.648-47.189 89.295-141.221c-24.353-94.031 64.942-124.218 119.361-61.415 54.419 62.803 92.603-15.961 63.739-111.727-28.863-95.766-9.32-31.575 73.962-47.189 83.282-15.614 102.825 97.848 102.825 97.848S1065.81 417.442 618.13 657.898c27.901 113.254-94.006 183.436-158.447 204.37" opacity=".625"/><path d="M473.38 549.304s116.78-35.578 99.621-131.701c-17.159-96.123 74.076-117.214 123.545-49.176 49.469 68.038 93.456-6.586 71.935-104.891s-6.901-32.392 77.244-39.57c84.144-7.178 95.044 107.818 95.044 107.818S1077.03 477.2 612.891 671.713c19.242 115.629-107.501 173.282-173.278 187.655" opacity=".667"/><path d="M475.395 549.325s119.022-23.697 109.188-121.18c-9.835-97.483 82.646-109.317 126.788-36.562 44.143 72.755 93.598 2.839 79.583-97.256-14.015-100.096-4.428-32.963 79.938-31.65 84.367 1.313 86.54 116.967 86.54 116.967S1082.19 538.213 605.131 685.3c10.436 117.125-120.179 161.811-186.791 169.513" opacity=".708"/><path d="M475.902 549.902s120.359-11.635 117.924-109.736c-2.436-98.101 90.587-100.588 129.067-23.67 38.48 76.918 93.027 12.243 86.624-88.882-6.402-101.124-1.921-33.283 82.025-23.489 83.946 9.794 77.377 125.227 77.377 125.227s112.311 170.514-374.044 269.057c1.551 117.729-131.941 149.107-198.882 150.08" opacity=".75"/><path d="M474.865 550.88s120.78.516 125.763-97.457c4.982-97.973 97.839-91.094 130.364-10.598 32.524 80.495 91.748 21.553 93.007-79.831 1.258-101.383.599-33.349 83.486-15.149 82.887 18.2 67.625 132.533 67.625 132.533s99 181.161-392.94 230.411c-7.345 117.437-142.7 135.268-209.458 129.504" opacity=".792"/><path d="M472.26 552.103s120.281 12.662 132.644-84.437c12.362-97.099 104.346-80.906 130.668 2.555 26.322 83.461 89.771 30.699 98.682-70.172 8.91-100.87 3.115-33.162 84.312-6.694 81.198 26.468 57.36 138.831 57.36 138.831s84.944 190.429-408.846 190.011c-16.187 116.251-152.372 120.4-218.442 107.943" opacity=".833"/><path d="M468.074 553.413s118.867 24.712 138.515-70.774c19.649-95.486 110.06-70.102 129.978 15.689 19.919 85.79 87.112 39.612 103.606-59.979 16.495-99.591 5.608-32.723 84.498 1.811 78.889 34.535 46.656 144.072 46.656 144.072s70.243 198.249-421.64 148.165c-24.904 114.18-160.885 104.616-225.762 85.561" opacity=".875"/><path d="M462.305 554.65s116.549 36.574 143.334-56.572c26.785-93.146 114.935-58.766 128.299 28.702 13.364 87.468 83.788 48.223 107.741-49.33 23.953-97.552 8.058-32.034 84.039 10.304 75.982 42.338 35.598 148.217 35.598 148.217s55.004 204.559-431.224 105.19c-33.433 111.241-168.174 88.036-231.365 62.528" opacity=".917"/><path d="M454.968 555.655s113.343 48.157 147.06-41.94c33.718-90.098 118.935-46.982 125.643 41.497 6.707 88.479 79.827 56.468 111.056-38.305 31.23-94.772 10.447-31.102 82.942 18.718 72.494 49.819 24.269 151.233 24.269 151.233s39.343 209.313-437.528 61.416c-41.706 107.455-174.182 70.785-235.206 39.018" opacity=".958"/><path d="M446.083 556.27s109.275 59.375 149.669-26.989c40.393-86.363 122.03-34.839 122.03 53.978 0 88.817 75.26 64.282 113.527-26.989 38.268-91.27 12.756-29.933 81.212 26.989 68.457 56.921 12.756 153.099 12.756 153.099s23.386 212.474-440.501 17.174c-49.663 102.851-178.865 52.996-237.258 15.212"/></svg><svg viewBox="0 0 1450.87 1451.08" id="decor-6" xmlns="http://www.w3.org/2000/svg"><path d="M1145.48 730.637l-209.011 54.946c-58.433-103.076 96.871-439.748-119.24-119.514-216.114 320.234-72.747 650.371-160.763 351.311-70.412-239.247-35.639-109.447-9.451-14.64" opacity=".042"/><path d="M1142.05 721.187l-209.162 37.161c-47.896-109.842 133.942-437.783-105.851-131.946-239.796 305.837-129.179 653.748-188.48 342.315-47.441-249.144-25.053-114.279-7.929-15.704" opacity=".083"/><path d="M1136.7 715.218l-207.717 19.094c-36.995-115.774 169.997-432.488-91.657-143.374-261.653 289.113-184.628 652.142-214.763 330.714-24.108-257.146-14.276-118.243-6.346-16.648" opacity=".125"/><path d="M1129.17 712.612l-204.696.88c-25.812-120.823 204.756-423.899-76.763-153.711C566.192 829.97 609.038 1205.37 608.298 876.379c-.592-263.191-3.389-121.307-4.714-17.466" opacity=".167"/><path d="M1119.2 713.224l-200.111-17.339c-14.433-124.953 237.951-412.086-61.287-162.878-299.241 249.208-290.9 634.113-262.239 300.071 22.929-267.232 7.522-123.447-3.047-18.15" opacity=".208"/><path d="M1106.57 716.888l-194.009-35.426c-2.944-128.132 269.339-397.136-45.344-170.806-314.687 226.331-340.913 617.814-283.07 281.26 46.275-269.24 18.377-124.647-1.356-18.696" opacity=".25"/><path d="M1091.06 723.413l-186.429-53.244c8.567-130.337 298.679-379.164-29.057-177.433-327.738 201.73-388.332 596.804-301.746 260.308 69.268-269.198 29.091-124.9.344-19.101" opacity=".292"/><path d="M1072.48 732.584l-177.429-70.657c20.013-131.549 325.749-358.307-12.547-182.711-338.295 175.596-432.796 571.264-318.127 237.377 91.736-267.109 39.585-124.202 2.043-19.36" opacity=".333"/><path d="M1050.67 744.169l-167.083-87.532c31.307-131.76 350.333-334.722 4.057-186.598-346.276 148.125-473.965 541.371-332.085 212.638 113.504-262.986 49.777-122.558 3.725-19.471" opacity=".375"/><path d="M1025.47 757.915l-155.452-103.74c42.362-130.969 372.252-308.589 20.631-189.064-351.623 119.525-511.528 507.357-343.517 186.28 134.409-256.861 59.59-119.981 5.379-19.434" opacity=".417"/><path d="M996.789 773.557l-142.651-119.16c53.096-129.18 391.342-280.109 37.048-190.092-354.293 90.017-545.198 469.483-352.334 158.506 154.29-248.782 68.949-116.493 6.992-19.25" opacity=".458"/><path d="M964.523 790.81L835.761 657.137c63.425-126.408 407.449-249.496 53.183-189.672-354.267 59.823-574.717 428.036-358.47 129.524 172.999-238.809 77.785-112.116 8.553-18.918" opacity=".5"/><path d="M928.611 809.379L814.72 662.212c73.272-122.675 420.46-216.985 68.913-187.81-351.544 29.174-599.864 383.331-361.877 99.557 190.389-227.019 86.027-106.887 10.048-18.443" opacity=".542"/><path d="M889.019 828.961l-98.153-159.542c82.56-118.007 430.264-182.822 84.118-184.518-346.147-1.697-620.445 335.709-362.531 68.833 206.332-213.502 93.616-100.844 11.467-17.828" opacity=".583"/><path d="M845.741 849.244l-81.669-170.703c91.22-112.442 436.798-147.267 98.683-179.822-338.114-32.555-636.304 285.533-360.425 37.584 220.703-198.358 100.492-94.034 12.798-17.076" opacity=".625"/><path d="M798.798 869.908l-64.563-180.564c99.186-106.021 440.005-110.593 112.498-173.758-327.51-63.165-647.321 233.183-355.577 6.05 233.395-181.706 106.603-86.508 14.032-16.196" opacity=".667"/><path d="M748.239 890.634l-46.966-189.052c106.398-98.793 439.867-73.076 125.457-166.37-314.412-93.295-653.411 179.058-348.022-25.531 244.311-163.671 111.902-78.324 15.158-15.191" opacity=".708"/><path d="M694.142 911.1l-29.011-196.101c112.799-90.813 436.379-35.003 137.459-157.717-298.921-122.714-654.527 123.571-337.818-56.917 253.367-144.39 116.35-69.543 16.17-14.071" opacity=".75"/><path d="M636.609 930.988l-10.836-201.657c118.343-82.142 429.577 3.336 148.417-147.863-281.155-151.2-650.663 67.143-325.044-87.87 260.496-124.011 119.913-60.234 17.059-12.845" opacity=".792"/><path d="M575.772 949.982l7.422-205.679c122.984-72.846 419.496 41.65 158.244-136.884-261.25-178.535-641.846 10.204-309.795-118.154 265.641-102.687 122.562-50.466 17.817-11.52" opacity=".833"/><path d="M511.784 967.774l25.623-208.134c126.691-62.996 406.224 79.646 166.868-124.864C464.919 430.265 76.13 587.964 412.086 487.237c268.765-80.582 124.279-40.314 18.441-10.107" opacity=".875"/><path d="M444.825 984.066l43.63-209.006c129.433-52.666 389.862 117.037 174.221-111.893-215.641-228.93-609.664-103.472-272.36-175.802 269.844-57.863 125.051-29.854 18.924-8.617" opacity=".917"/><path d="M375.096 998.572L436.4 790.284c131.191-41.935 370.533 153.537 180.249-98.071C426.365 440.606 30.107 532.868 366.192 489.488c268.868-34.705 124.87-19.169 19.263-7.063" opacity=".958"/><path d="M302.821 1011.01l78.512-205.979c131.949-30.885 348.384 188.868 184.905-83.502-163.48-272.37-558.957-214.005-226.649-228.107 265.847-11.282 123.74-8.336 19.455-5.454"/></svg><svg viewBox="0 0 702.647 710.409" id="decor-7" xmlns="http://www.w3.org/2000/svg"><path d="M604.846 405.9c-138.88 66.12 92.966 144.781-129.244 44.132-177.768-80.519-14.796-121.98 88.91-132.646" opacity=".042"/><path d="M592.997 399.762c-140.091 60.925 80.856 152.244-129.182 38.931-168.03-90.65-6.106-125.254 95.86-131.224" opacity=".083"/><path d="M580.573 394.025c-140.92 55.563 68.523 159.289-128.767 33.622-157.832-100.533 2.601-128.183 102.546-129.442" opacity=".125"/><path d="M567.559 388.669c-141.361 50.048 56.003 165.897-127.997 28.222-147.201-110.14 11.3-130.762 108.951-127.305" opacity=".167"/><path d="M553.944 383.675c-141.414 44.397 43.33 172.051-126.878 22.745C290.9 286.974 447.036 273.438 542.124 281.6" opacity=".208"/><path d="M539.717 379.022c-141.081 38.623 30.538 177.733-125.41 17.204-124.759-128.423 28.583-134.837 120.849-121.991" opacity=".25"/><path d="M524.87 374.688c-140.36 32.743 17.662 182.928-123.599 11.617-113.009-137.05 37.119-136.324 126.309-118.83" opacity=".292"/><path d="M509.396 370.65c-139.256 26.774 4.737 187.621-121.45 5.997-100.949-145.299 45.553-137.435 131.424-115.341" opacity=".333"/><path d="M493.288 366.884c-137.768 20.732-8.199 191.801-118.966.362-88.614-153.151 53.862-138.171 136.177-111.537" opacity=".375"/><path d="M476.545 363.368C340.641 378 455.43 558.823 360.387 358.093c-76.034-160.583 62.024-138.528 140.558-107.427" opacity=".417"/><path d="M459.164 360.074c-133.668 8.494-33.972 198.573-113.031-10.897-63.247-167.575 70.015-138.504 144.552-103.022" opacity=".458"/><path d="M441.144 356.979c-131.065 2.33-46.736 201.146-109.594-16.489-50.286-174.109 77.815-138.103 148.152-98.336" opacity=".5"/><path d="M422.488 354.055c-128.103-3.839-59.372 203.169-105.857-22.036-37.188-180.164 85.401-137.322 151.345-93.38" opacity=".542"/><path d="M403.198 351.277c-124.789-9.998-71.845 204.633-101.829-27.524-23.987-185.725 92.754-136.164 154.122-88.167" opacity=".583"/><path d="M383.28 348.616c-121.133-16.128-84.12 205.539-97.522-32.934-10.721-190.778 99.852-134.633 156.478-82.714" opacity=".625"/><path d="M362.742 346.047c-117.145-22.215-96.166 205.88-92.948-38.255 2.574-195.308 106.676-132.734 158.404-77.033" opacity=".667"/><path d="M341.591 343.542C228.754 315.3 233.643 549.198 253.472 300.07c15.863-199.302 113.207-130.47 159.897-71.141" opacity=".708"/><path d="M319.838 341.071c-108.219-34.19-119.435 204.87-83.049-48.568 29.108-202.75 119.429-127.849 160.951-65.055" opacity=".75"/><path d="M297.494 338.609c-103.304-40.046-130.593 203.521-77.751-53.533 42.274-205.643 125.324-124.877 161.565-58.789" opacity=".792"/><path d="M274.574 336.126c-98.106-45.79-141.394 201.615-72.24-58.349 55.323-207.972 130.874-121.564 161.735-52.364" opacity=".833"/><path d="M251.092 333.597c-92.64-51.411-151.808 199.156-66.532-63.007 68.221-209.73 136.067-117.917 161.462-45.794" opacity=".875"/><path d="M227.064 330.991C140.145 274.102 65.26 527.142 166.425 263.5c80.931-210.915 140.885-113.947 160.746-39.099" opacity=".917"/><path d="M202.51 328.282c-80.96-62.212-171.358 192.609-54.582-71.79 93.421-211.52 145.319-109.664 159.59-32.296" opacity=".958"/><path d="M177.449 325.444c-74.78-67.364-180.442 188.539-48.375-75.894C234.727 38.004 278.427 144.469 287.07 224.145"/></svg><svg viewBox="0 0 983 966.571" id="decor-8" xmlns="http://www.w3.org/2000/svg"><g opacity=".8"><path d="M212.728 500.651l171.839 116.444c-34.159 113.991-367.17 230.892-6.669 170.162 360.501-60.729 497.914-393.517 346.661-122.939-121.003 216.462-53.161 101.553-4.115 17.04" opacity=".042"/><path d="M209.725 476.611l159.591 128.784C323.72 716.264-20.205 807.582 345.453 774.226c365.658-33.356 536.357-354.2 358.149-96.303-142.567 206.319-63.288 97.065-5.827 16.649" opacity=".083"/><path d="M210.363 451.592l146.129 140.142c-56.685 106.903-408.907 171.944-40.874 166.215 368.033-5.729 570.718-312.187 366.911-68.932-163.047 194.603-72.933 91.837-7.495 16.129" opacity=".125"/><path d="M214.732 425.872l131.554 150.434C278.943 678.43-78.895 716.698 288.711 738.64c367.607 21.943 600.736-267.797 372.881-41.037-182.285 181.408-82.023 85.912-9.106 15.488" opacity=".167"/><path d="M222.893 399.734l115.979 159.582c-77.489 96.568-438.22 107.772-73.838 157.218 364.383 49.446 626.182-221.37 376.013-12.83-200.136 166.831-90.489 79.332-10.648 14.728" opacity=".208"/><path d="M234.877 373.467l99.52 167.514c-87.045 90.277-447.923 74.331-89.538 150.905 358.386 76.573 646.862-173.258 376.283 15.475-216.464 150.985-98.266 72.148-12.109 13.856" opacity=".25"/><path d="M250.688 347.356l82.304 174.172c-95.939 83.299-454.218 40.326-104.558 143.444 349.661 103.118 662.62-123.827 373.69 43.662-231.144 133.99-105.295 64.416-13.477 12.879" opacity=".292"/><path d="M270.299 321.689l64.462 179.504c-104.102 75.687-457.056 6.013-118.781 134.891 338.275 128.879 673.333-73.453 368.251 71.517-244.065 115.976-111.522 56.193-14.742 11.804" opacity=".333"/><path d="M293.653 296.75l46.13 183.47c-111.474 67.498-456.416-28.346-132.101 125.312 324.315 153.657 678.923-22.522 360.012 98.826-255.13 97.079-116.902 47.543-15.897 10.64" opacity=".375"/><path d="M320.669 272.815l27.445 186.04C230.119 517.651-104.187 396.366 203.7 573.633 511.586 750.9 883.046 602.216 552.731 699.019c-264.251 77.442-121.391 38.53-16.929 9.393" opacity=".417"/><path d="M351.233 250.156l8.553 187.194c-123.62 49.646-444.744-96.157-155.63 103.371C493.271 740.249 878.755 620.19 539.552 691.71c-271.363 57.217-124.957 29.225-17.833 8.077" opacity=".458"/><path d="M385.209 229.031l-10.405 186.924c-128.305 40.119-433.803-129.093-165.661 91.177 268.143 220.27 664.717 129.75 319.207 175.444-276.408 36.556-127.571 19.697-18.601 6.698" opacity=".5"/><path d="M422.43 209.692l-29.284 185.23c-132.012 30.286-419.56-161.046-174.43 78.29 245.13 239.335 649.776 179.044 300.588 198.564-279.351 15.616-129.215 10.018-19.228 5.267" opacity=".542"/><path d="M462.707 192.371l-47.939 182.127c-134.715 20.223-402.124-191.773-181.873 64.806 220.252 256.58 629.891 226.976 279.683 220.173-280.167-5.442-129.875.264-19.709 3.798" opacity=".583"/><path d="M505.828 177.288l-66.23 177.638c-136.392 10.006-381.627-221.041-187.931 50.83 193.697 271.871 605.211 273.179 256.648 240.106-278.851-26.459-129.547-9.492-20.038 2.299" opacity=".625"/><path d="M551.559 164.647l-84.017 171.797c-137.031-.287-358.226-248.627-192.558 36.467 165.668 285.093 575.925 317.304 231.66 258.211-275.413-47.274-128.233-19.176-20.217.783" opacity=".667"/><path d="M599.646 154.632L498.482 319.28c-136.628-10.578-332.1-274.32-195.721 21.826C439.139 637.252 845.018 700.119 507.67 615.457c-269.878-67.729-125.943-28.713-20.24-.739" opacity=".708"/><path d="M649.816 147.406L532.274 303.653C397.089 282.865 228.829 5.727 334.88 310.672c106.051 304.945 504.461 397.991 176.599 288.404-262.29-87.67-122.694-38.034-20.11-2.257" opacity=".75"/><path d="M701.782 143.114L568.757 289.769c-132.712-30.84-272.48-319.264-197.564-7.841 74.916 311.423 462.826 433.94 146.945 300.261-252.706-106.943-118.512-47.063-19.827-3.755" opacity=".792"/><path d="M755.242 141.874L607.747 277.822C478.516 237.164 368.304-60.351 411.516 255.18c43.211 315.531 417.669 466.586 116.172 309.834-241.198-125.402-113.428-55.735-19.393-5.227" opacity=".833"/><path d="M809.884 143.785L649.041 267.992c-124.765-50.166-204.583-354.508-193.405-37.271 11.178 317.237 369.333 495.681 84.515 317.048-227.854-142.906-107.48-63.983-18.811-6.658" opacity=".875"/><path d="M865.385 148.919l-172.968 111.52c-119.349-59.292-168.165-368.145-189.106-51.615-20.941 316.529 318.186 521.003 52.215 321.849-212.777-159.323-100.714-71.743-18.086-8.038" opacity=".917"/><path d="M921.417 157.326l-183.775 97.985c-113.027-67.968-130.469-378.98-183.369-65.567-52.9 313.412 264.618 542.361 19.518 324.201-196.08-174.528-93.183-78.958-17.224-9.357" opacity=".958"/><path d="M977.647 169.031l-193.184 83.703c-105.843-76.125-91.779-386.93-176.236-79.02S817.263 733.305 594.899 497.8c-177.891-188.404-84.941-85.572-16.23-10.606"/></g></svg><svg viewBox="0 0 1339.87 1531.83" id="decor-9" xmlns="http://www.w3.org/2000/svg"><path d="M816.479 1071.69s-139.139-43.92-176.54 55.91c-37.402 99.84-142.278 59.35-153.784-35.84-11.506-95.179-98.857-55.31-133.065 49.4-34.209 104.72-11.467 34.38-101.187-14.28-89.72-48.65-35.177-161.769-35.177-161.769s-55.656-223.488 527.655-97.846c46.416-119.18 208.292-89.051 283.429-59.089" opacity=".042"/><path d="M800.115 1048.45s-134.639-56.346-180.27 39.94c-45.631 96.28-146.492 46.43-149.885-49.6-3.394-96.029-93.622-64.092-136.491 37.34-42.868 101.44-14.308 33.28-99.408-23.34-85.099-56.629-21.301-164.621-21.301-164.621s-36.447-228.051 532.948-50.224c56.229-114.774 214.644-70.153 286.822-33.497" opacity=".083"/><path d="M785.603 1025.69s-129.116-68.34-182.629 23.65c-53.514 91.99-149.591 33.18-144.846-62.968 4.745-96.147-87.674-72.384-138.876 24.998-51.202 97.38-17.041 31.93-96.873-32.235-79.832-64.164-7.263-166.21-7.263-166.21s-16.961-230.88 534.183-2.22c65.616-109.494 219.363-50.722 288.031-7.649" opacity=".125"/><path d="M772.89 1003.57s-122.609-79.811-183.597 7.19c-60.988 87-151.551 19.67-138.704-75.865 12.847-95.533-81.059-80.124-140.205 12.464-59.146 92.591-19.644 30.335-93.601-40.879-73.956-71.213 6.83-166.536 6.83-166.536s2.655-231.951 531.354 45.801c74.502-103.381 222.413-30.905 287.053 18.256" opacity=".167"/><path d="M761.914 982.254s-115.169-90.673-183.168-9.327c-67.999 81.343-152.357 6.008-131.507-88.182 20.851-94.191-73.827-87.253-140.467-.163-66.639 87.09-22.098 28.51-89.615-49.212-67.518-77.722 20.87-165.596 20.87-165.596s22.251-231.257 524.481 93.473c82.822-96.481 223.77-10.851 283.892 44.024" opacity=".208"/><path d="M752.596 961.899s-106.852-100.847-181.345-25.773-152.005-7.699-123.308-99.83c28.696-92.131-66.034-93.717-139.66-12.789-73.627 80.929-24.384 26.468-84.949-57.171-60.566-83.638 34.753-163.394 34.753-163.394s41.677-228.803 513.616 140.434c90.511-88.848 223.423 9.283 278.567 69.455" opacity=".25"/><path d="M744.845 942.65s-97.723-110.254-178.142-42.023c-80.419 68.232-150.495-21.347-114.172-110.718 36.324-89.371-57.737-99.469-137.79-25.317-80.052 74.152-26.483 24.223-79.635-64.695-53.152-88.918 48.371-159.95 48.371-159.95s60.785-224.608 498.842 186.326c97.511-80.538 221.371 29.348 271.121 94.358" opacity=".292"/><path d="M738.559 924.646s-87.849-118.822-173.583-57.953c-85.733 60.869-147.84-34.833-104.166-120.763 43.674-85.931-49.002-104.464-134.871-37.653-85.87 66.81-28.382 21.795-73.716-71.726-45.335-93.522 61.62-155.288 61.62-155.288s79.432-218.704 480.272 230.799c103.77-71.614 217.645 49.19 261.615 118.543" opacity=".333"/><path d="M733.625 908.016s-77.307-126.485-167.703-73.442c-90.395 53.043-144.06-48.054-93.368-129.89 50.693-81.836-39.893-108.663-130.926-49.702-91.033 58.961-30.064 19.201-67.235-78.211-37.172-97.413 74.401-149.445 74.401-149.445s97.473-211.135 458.046 273.517c109.238-62.146 212.26 68.657 250.11 141.826" opacity=".375"/><path d="M729.919 892.879s-66.177-133.185-160.546-88.372c-94.37 44.814-139.185-60.908-81.859-138.028 57.325-77.118-30.481-112.035-125.985-61.373-95.504 50.663-31.518 16.462-60.244-84.101-28.725-100.563 86.616-142.463 86.616-142.463s114.774-201.959 432.335 314.152c113.875-52.205 205.254 87.601 236.704 164.03" opacity=".417"/><path d="M727.308 879.343S672.765 740.47 575.14 776.713c-97.625 36.243-133.248-73.3-69.727-145.115 63.521-71.815-20.837-114.556-120.084-72.577-99.248 41.979-32.732 13.596-52.793-89.352-20.062-102.947 98.171-134.398 98.171-134.398S561.906 144.026 834.04 687.669c117.646-41.867 196.69 105.879 221.5 184.985" opacity=".458"/><path d="M725.65 867.502s-42.494-143.503-142.632-116.106c-100.138 27.396-126.299-85.134-57.065-151.098 69.234-65.965-11.034-116.204-113.27-83.229-102.236 32.975-33.696 10.627-44.94-93.922-11.245-104.549 108.979-125.31 108.979-125.31S623.349 118.76 847.984 685.798c120.52-31.21 186.626 123.35 204.616 204.532" opacity=".5"/><path d="M724.797 857.439S694.675 710.398 592.786 728.74c-101.888 18.341-118.387-96.32-43.967-155.931 74.42-59.612-1.147-116.968-105.594-93.247-104.446 23.72-34.404 7.577-36.746-97.777-2.342-105.355 118.958-115.268 118.958-115.268s160.939-165.546 336.364 420.57C984.28 666.772 1036.94 826.971 1047.97 909.61" opacity=".542"/><path d="M724.592 849.223s-17.519-149.46-120.384-140.313c-102.863 9.147-109.575-106.772-30.536-159.577 79.04-52.805 8.749-116.841-97.113-102.555-105.862 14.285-34.851 4.47-28.272-100.888 6.578-105.359 128.031-104.349 128.031-104.349s174.026-150.755 298.908 449.98c123.504-9.266 162.324 155.352 166.304 238.82" opacity=".583"/><path d="M724.878 842.908s-4.785-150.742-107.841-150.859c-103.057-.116-99.93-116.412-16.873-162.008 83.058-45.597 18.578-115.826-87.894-111.084-106.472 4.742-35.032 1.329-19.583-103.231 15.449-104.56 136.131-92.636 136.131-92.636S814.607 88.274 887.993 699.055c123.587 1.854 148.277 169.639 145.167 253.3" opacity=".625"/><path d="M725.49 838.535s7.987-150.876-94.477-160.256c-102.465-9.38-89.524-125.166-3.081-163.207 86.444-38.042 28.265-113.929-78.006-118.766-106.271-4.838-34.946-1.823-10.745-104.789 24.202-102.966 143.194-80.218 143.194-80.218S878.513 93.448 899.846 709.627c122.734 12.959 133.094 182.633 122.934 265.851" opacity=".667"/><path d="M726.263 836.129s20.697-149.861-80.395-168.433c-101.093-18.572-78.436-132.967 10.735-163.164 89.171-30.197 37.738-111.164-67.525-125.545-105.262-14.381-34.594-4.961-1.824-105.549 32.77-100.589 149.167-67.189 149.167-67.189s204.993-99.99 174.112 516.898c120.947 23.966 116.907 194.238 99.767 276.379" opacity=".708"/><path d="M727.028 835.702s33.251-147.707-65.701-175.329c-98.951-27.623-66.751-139.757 24.47-161.879 91.22-22.122 46.922-107.554-56.529-131.368-103.452-23.814-33.98-8.061 7.109-105.506 41.089-97.446 154.005-53.649 154.005-53.649s212.288-81.367 129.427 531.534c118.241 34.79 99.821 204.366 75.834 284.805" opacity=".75"/><path d="M727.62 837.248s45.55-144.429-50.507-180.892c-96.057-36.462-54.558-145.482 38.017-159.361 92.576-13.879 55.751-103.125-45.103-136.192-100.854-33.066-33.107-11.098 15.989-104.659 49.096-93.561 157.671-39.701 157.671-39.701s217.973-62.125 83.758 542.125c114.625 45.35 81.975 212.937 51.326 291.062" opacity=".792"/><path d="M727.87 840.748s57.505-140.05-34.927-185.076c-92.432-45.026-41.951-150.101 51.275-155.631 93.227-5.531 64.155-97.912-33.334-139.979-97.489-42.067-31.981-14.053 24.747-103.017 56.729-88.964 160.137-25.45 160.137-25.45s221.992-42.411 37.451 548.59c110.151 55.565 63.514 219.885 26.429 295.105" opacity=".833"/><path d="M727.618 846.167s69.02-134.607-19.083-187.853c-88.103-53.245-29.023-153.577 64.144-150.716 93.167 2.86 72.07-91.953-21.311-142.701-93.382-50.747-30.613-16.9 33.317-100.59 63.929-83.691 161.384-11.006 161.384-11.006s224.321-22.373-9.141 550.879c104.822 65.357 44.564 225.17 1.329 296.9" opacity=".875"/><path d="M726.704 853.457s80.01-128.138-3.094-189.199c-83.104-61.06-15.875-155.884 76.524-144.655 92.4 11.229 79.438-85.294-9.126-144.336-88.564-59.042-29.011-19.619 41.633-97.398 70.644-77.78 161.403 3.522 161.403 3.522s224.946-2.166-55.663 548.976c98.709 74.652 25.276 228.733-23.78 296.443" opacity=".917"/><path d="M724.972 862.554s90.392-120.695 12.919-189.106c-77.472-68.41-2.606-157.005 88.322-137.492 90.928 19.513 86.2-77.987 3.128-144.873-83.072-66.887-27.188-22.188 49.633-93.465s160.196 18.024 160.196 18.024 223.86 18.058-101.765 542.895c91.845 83.377 5.795 230.553-48.707 293.723" opacity=".958"/><path d="M722.274 873.382s100.086-112.334 28.835-187.574c-71.251-75.24 10.683-156.932 99.447-129.284 88.765 27.648 92.306-70.085 15.359-144.308-76.948-74.222-25.159-24.588 57.254-88.82 82.411-64.232 157.761 32.388 157.761 32.388S1302 393.929 933.848 888.467c84.272 91.469-13.73 230.623-73.265 288.763"/></svg><svg viewBox="0 0 108.041 71.939" id="good" xmlns="http://www.w3.org/2000/svg"><path d="M5.02 30.132L43.291 65.02l59.729-60"/></svg><svg viewBox="0 0 32 31.521" id="hero-icon-01" xmlns="http://www.w3.org/2000/svg"><path d="M16.596 15.391c.266-.031.47-.333.471-.695V2.078c0-.233-.086-.45-.229-.58-.882-.8-1.868-1.299-2.902-1.449-1.668-.073-2.738.215-4.037 1.398C8.968.437 7.686.037 6.646 0a4.678 4.678 0 00-.783.048C4.829.2 3.842.7 2.96 1.497c-.143.13-.228.347-.229.58v11.921H2.59c-.564 0-1.035.637-1.035 1.402v4.206c0 .765.47 1.402 1.035 1.402h.515v2.803H1.17c-.638 0-1.17.716-1.17 1.579v4.552c0 .863.532 1.579 1.17 1.579h17.325c.637 0 1.165-.716 1.165-1.579V25.39c0-.863-.528-1.579-1.165-1.579h-.904v-2.803c0-.765-.472-1.402-1.036-1.402h-1.034V15.4l1.075-.009zm-7.212-1.399H3.766v-1.055c1.164-.718 2.694-1.544 3.846-.958.267.138.567-.045.668-.408.1-.361-.035-.764-.301-.9-1.526-.777-3.041.051-4.213.775V2.547c.91-.753 1.903-1.157 2.952-1.123.628.02 1.277.199 1.94.555.324.2.488.383.58.58.094.199.146.461.146.915v10.518zm1.035-10.518c0-.454.05-.716.144-.916.092-.196.253-.38.577-.579.663-.356 1.311-.535 1.94-.555 1.048-.034 2.042.372 2.953 1.125v8.897c-1.172-.724-2.684-1.552-4.209-.776-.268.134-.405.538-.306.901.1.364.4.548.669.41 1.152-.587 2.681.238 3.846.956v1.055h-5.614V3.474zm2.807-.757a3.866 3.866 0 00-1.983.489c-.263.148-.388.558-.279.916.109.358.412.53.676.381.99-.551 2.146-.467 3.2.017.272.126.567-.07.658-.44.092-.367-.053-.766-.325-.889V3.19a4.947 4.947 0 00-1.947-.472v-.001zm-6.627.002a3.906 3.906 0 00-2 .486c-.266.144-.394.552-.287.911.107.359.408.532.672.387a3.121 3.121 0 011.593-.383c.287.01.525-.298.53-.687.006-.388-.222-.708-.508-.714zm24.882 28.77c.287.002.52-.314.519-.703v-4.253c.001-.39-.232-.705-.52-.704h-5.465c-.286.002-.516.316-.515.704v3.58c-1.102-.008-2.19.029-3.254-.03a.6.6 0 01-.332-.27c-.076-.131-.135-.332-.176-.599l-.549-8.74h8.187l-.217 3.523c-.024.386.189.725.473.756.285.03.534-.256.557-.64l.225-3.64h.104c.285.002.518-.31.519-.697.001-.39-.232-.705-.52-.704h-.644V7.95c.001-.388-.23-.703-.516-.704h-2.91c-.288-.001-.521.315-.52.704v1.666h-1.439V7.158c0-.211-.07-.41-.19-.544l-1.456-1.578a.444.444 0 00-.313-.155.445.445 0 00-.337.155l-1.455 1.578a.814.814 0 00-.194.544v3.156c0 .387.233.7.519.698.284 0 .515-.312.516-.698v-2.82l.939-1.014.936 1.014v2.12h-.5c-.285.002-.515.314-.516.699v2.063c-.017-.032-.037-.064-.053-.096-.1-.193-.263-.306-.436-.301-.158.006-.305.105-.401.275l-1.333 2.364a.873.873 0 00-.107.424v4.03h-.065c-.285.002-.516.317-.515.704.001.385.231.696.515.698h.108l.572 9.024c.06.395.165.81.374 1.174.209.364.53.652.914.787a.56.56 0 00.107.027l9.364.003zM6.576 5.521a3.863 3.863 0 00-1.982.488c-.265.147-.391.557-.282.916.108.36.41.531.676.383.989-.551 2.15-.469 3.204.017.27.122.562-.074.653-.44.093-.365-.05-.763-.32-.89a4.961 4.961 0 00-1.949-.473v-.001zm6.676.002a3.908 3.908 0 00-2 .486c-.267.142-.397.55-.292.91.107.361.41.536.676.389a3.122 3.122 0 011.594-.384c.286.009.521-.301.526-.688.005-.385-.22-.704-.504-.713zm13.71 3.123h1.875v10.426h-1.874V8.646zm-3.49 2.366h2.455v.966h-.645c-.286-.001-.518.312-.519.7-.001.389.232.705.52.703h.644v.963h-.645c-.285-.002-.518.31-.519.698-.001.389.232.705.52.703h.644v.963h-.645c-.287-.002-.52.314-.519.703.001.387.234.7.52.698h.644v.963h-2.119V15.15a.9.9 0 00-.064-.331 7.888 7.888 0 00-.272-.593v-3.214zm-1.524 2.835c.304.522.623 1.052.826 1.526v3.699h-1.631V15.28c.268-.477.536-.957.805-1.433zM2.59 15.399h11.9v4.207H2.59v-4.207zm1.026 1.044c-.285.002-.516.317-.515.704v.698c-.002.388.23.704.515.705.288.002.521-.315.52-.705v-.698c0-.39-.232-.705-.52-.704zm2.07.352c-.285.002-.516.317-.514.704 0 .385.23.697.515.698h7.245c.284-.001.514-.313.515-.698.001-.387-.23-.702-.515-.704H5.687zM4.14 21.007h12.415v2.804H4.14v-2.804zm-2.97 4.207h17.325c.082 0 .13.065.13.175v4.553c0 .11-.048.175-.13.175H1.17c-.081 0-.134-.065-.134-.175v-4.553c0-.11.053-.175.134-.175zm21.634.186a.408.408 0 00-.133.027c-.277.1-.441.484-.367.858.05.254.049.836.156 1.444.054.304.142.639.344.925.202.287.515.469.844.492.284.019.526-.276.542-.661.014-.386-.204-.715-.489-.735-.124-.009-.128-.034-.148-.062a.816.816 0 01-.088-.284c-.06-.34-.045-.9-.161-1.486-.061-.305-.266-.518-.5-.517zM2.066 26.61c-.285-.001-.518.311-.519.698v.698c-.001.39.232.706.52.704.285-.002.516-.316.515-.704v-.698c-.001-.385-.232-.696-.516-.698zm15.52 0c-.285-.001-.517.311-.518.698v.704c0 .387.233.7.519.698.284-.002.514-.313.515-.698v-.704c0-.385-.23-.696-.515-.698zm-13.97.346c-.285.002-.516.317-.515.704.001.385.231.697.515.698h11.9c.285 0 .516-.312.517-.698 0-.387-.23-.703-.517-.704h-11.9zm22.918.276h.883v2.855h-.883v-2.855zm1.918 0h2.513v2.855h-2.513v-2.855z"/></svg><svg viewBox="0 0 32 31.521" id="hero-icon-02" xmlns="http://www.w3.org/2000/svg"><path d="M11.046 0a8.533 8.533 0 00-2.039.24c-.682.174-1.266.409-1.688.779a2.207 2.207 0 00-1.611.32c-.515.342-.875.877-1.082 1.487a4.219 4.219 0 00.46 3.582H4.8c-.848 0-1.546.723-1.546 1.602 0 .879.698 1.605 1.546 1.605h.683c.34.78.982 1.454 1.707 1.992.306.228.632.428.963.601l-.181.666a.505.505 0 00-.218-.056.506.506 0 00-.297.09l-1.548 1.07a.543.543 0 00-.216.568l-3.255.965a.513.513 0 00-.224.142L.709 17.255a.54.54 0 00-.137.276S0 20.76 0 24.038a.526.526 0 00.518.537v6.408a.525.525 0 00.514.537h18.582c.287.001.52-.24.518-.537v-6.408a.525.525 0 00.514-.537c0-3.279-.57-6.509-.57-6.509a.539.539 0 00-.137-.275l-1.503-1.602a.51.51 0 00-.227-.142l-3.253-.965a.543.543 0 00-.215-.569l-1.55-1.069a.503.503 0 00-.512-.033l-.179-.657a7.27 7.27 0 00.984-.611c.724-.538 1.366-1.212 1.707-1.992h.682c.849 0 1.546-.727 1.546-1.605 0-.88-.697-1.602-1.546-1.602h-.316c.347-.961.43-1.955.44-2.8-.16-1.178-.758-2.07-1.545-2.64-.788-.57-1.751-.845-2.71-.938a8.081 8.081 0 00-.696-.03zm7.795.795c-.71 0-1.137.921-.694 1.495l1.467 1.901v9.964c0 .731.586 1.336 1.292 1.336h9.807c.706 0 1.287-.605 1.287-1.336V2.132c0-.731-.58-1.337-1.287-1.337H18.84zm-7.783.28c.195.001.39.008.59.02.829.08 1.62.323 2.209.75.585.423.982 1.008 1.109 1.901.022.764-.108 1.41-.34 2.169-1.748-.02-3.155-.219-4.171-.532-1.074-.332-1.696-.795-1.913-1.18a1.229 1.229 0 00-.267-.307.508.508 0 00-.69.245c-.413.867-1.11 1.15-1.542 1.388-.395-.785-.678-1.662-.446-2.347.144-.428.387-.757.667-.943.26-.172.56-.24.955-.148.123.128.33.332.691.586.237.168.56.104.72-.141a.546.546 0 00-.137-.742c-.083-.06-.12-.099-.187-.152a4.27 4.27 0 01.949-.365 7.543 7.543 0 011.803-.201zm8.084.789h11.57c.15 0 .256.115.256.268v12.023c0 .153-.107.268-.255.268h-9.807a.258.258 0 01-.26-.268V4.002c0-.12-.04-.237-.114-.331l-1.39-1.807zm3.57 1.337a.508.508 0 00-.365.158.544.544 0 00-.15.378V6.94a.55.55 0 00.15.379c.097.1.228.157.365.158a.507.507 0 00.364-.158.55.55 0 00.15-.379v-.532h1.032v.532a.548.548 0 00.152.38.517.517 0 00.367.157.507.507 0 00.365-.158.55.55 0 00.15-.379V3.737a.545.545 0 00-.15-.378.508.508 0 00-.365-.158h-2.065zm4.13 0a.502.502 0 00-.367.156.538.538 0 00-.151.38V6.94a.55.55 0 00.15.38.517.517 0 00.368.157h1.287c.706 0 1.292-.606 1.292-1.337 0-.3-.102-.577-.268-.802.166-.224.268-.499.268-.8 0-.73-.586-1.337-1.292-1.337h-1.287zm-3.616 1.07h1.032v1.068h-1.032V4.271zm4.13 0h.773c.152 0 .26.11.26.268 0 .157-.108.264-.26.264h-.773v-.532zM8.085 5.299c.481.475 1.182.834 2.072 1.109 1.1.34 2.524.536 4.241.57V8.64c-.085.66-.688 1.484-1.516 2.099-.83.616-1.86 1.013-2.545 1.013-.686 0-1.716-.397-2.546-1.013-.827-.615-1.43-1.44-1.516-2.099V6.797c.432-.223 1.214-.71 1.81-1.498zm19.27.573h.774c.152 0 .26.11.26.268 0 .157-.108.268-.26.268h-.773v-.536zM4.8 7.477h.443v1.07H4.8c-.295 0-.514-.232-.514-.537 0-.305.22-.533.514-.533zm10.63 0h.443c.295 0 .514.228.514.533 0 .305-.22.536-.514.536h-.443v-1.07zm7.282 1.07a.509.509 0 00-.363.156.544.544 0 00-.151.375v3.207c0 .141.054.277.15.376.097.1.228.156.364.157h2.065a.507.507 0 00.363-.157.544.544 0 000-.752.507.507 0 00-.363-.157h-1.551V9.615h1.551a.507.507 0 00.365-.158.544.544 0 00-.002-.754.508.508 0 00-.363-.157h-2.065zm4.13 0a.508.508 0 00-.366.154.544.544 0 00-.152.377v3.207c0 .142.055.278.152.378a.51.51 0 00.366.155h1.287c.706 0 1.292-.603 1.292-1.334V9.879c0-.73-.586-1.333-1.292-1.333h-1.287zm.514 1.068h.773c.152 0 .26.107.26.264v1.605c0 .157-.108.268-.26.268h-.773V9.615zm-18.241 3a4.13 4.13 0 001.222.203c.389 0 .794-.07 1.2-.196l.261.964-1.474 1.22-1.474-1.22.265-.972zm-1.4 1.402l1.837 1.518-.778.805-1.767-1.835.709-.488zm5.216 0l.713.488-1.772 1.835-.773-.805 1.832-1.518zm-6.487 1.419l1.882 1.946.438 1.366-1.014 8.43a.544.544 0 00.202.494l1.855 1.442v1.338H4.648v-5.876a.525.525 0 00.514-.537v-4.272a.525.525 0 00-.514-.537.525.525 0 00-.518.537v3.74H1.079a51.52 51.52 0 01.499-5.64l1.082-1.155 1.123.747c.24.16.558.09.713-.157a.546.546 0 00-.152-.738l-.522-.348 2.622-.78zm7.76 0l2.625.78-.521.348a.546.546 0 00-.157.738.505.505 0 00.712.157l1.126-.749 1.085 1.156c.021.126.418 2.844.495 5.64h-3.053v-3.74a.525.525 0 00-.514-.535.525.525 0 00-.518.536v4.272a.526.526 0 00.518.537v5.876H10.84v-1.335l1.859-1.445a.544.544 0 00.202-.494l-1.019-8.427.444-1.37 1.879-1.945zm-3.88.813l.958.992-.297.92H9.666l-.298-.924.957-.988zm13.934 2.465c-.849 0-1.546.723-1.546 1.602v.536c0 .287.08.553.21.787a1.62 1.62 0 00-.724 1.35v.533c0 .565.29 1.065.722 1.351-.13.234-.208.5-.208.787v.537c0 .224.046.437.128.632a1.816 1.816 0 00-1.16 1.699v.643c0 .997.792 1.813 1.755 1.813h6.813c.963 0 1.752-.816 1.752-1.813v-.643c0-.781-.486-1.446-1.16-1.7a1.63 1.63 0 00.128-.631v-.537c0-.566-.292-1.063-.724-1.348.13-.235.21-.503.21-.79v-.532c0-.735-.491-1.357-1.148-1.543.073-.184.115-.385.115-.595v-.536c0-.879-.698-1.602-1.547-1.602h-3.616zm-14.511.517H10.9l.938 7.774-1.512 1.175-1.517-1.175.938-7.774zm14.511.551h2.066v1.602h-2.066c-.295 0-.514-.227-.514-.532v-.536c0-.305.22-.534.514-.534zm3.098 0h.518c.295 0 .514.229.514.534v.536c0 .305-.22.532-.514.532h-.518v-1.602zm-3.612 2.671h.514v1.605h-.514a.517.517 0 01-.518-.536v-.532c0-.306.223-.537.518-.537zm1.547 0h3.616c.295 0 .514.231.514.537v.532c0 .305-.219.536-.514.536h-3.616v-1.605zm-23.74 2.123h2.065v5.876H1.551v-5.876zm15.484 0H19.1v5.876h-2.065v-5.876zm7.223.552h3.616v1.585h-3.697a.504.504 0 01-.433-.517v-.536c0-.305.22-.532.514-.532zm4.65 0h.513c.295 0 .518.227.518.532v.537a.507.507 0 01-.437.516h-.595v-1.585zm-5.473 2.654h6.813c.41 0 .72.322.72.746v.643c0 .423-.31.745-.72.745h-6.813c-.409 0-.723-.322-.723-.745v-.643c0-.424.314-.746.723-.746zm.823.533a.526.526 0 00-.514.532.526.526 0 00.514.537h5.163c.287 0 .52-.24.518-.537a.525.525 0 00-.518-.532h-5.163z"/></svg><svg viewBox="0 0 32 31.521" id="hero-icon-03" xmlns="http://www.w3.org/2000/svg"><path d="M13.198 29.303l9.007 2.2c.269.066.55-.062.654-.297l.859-1.933a.562.562 0 00.2-.119l2.902-2.647a.484.484 0 00.163-.358v-3.756c0-.277-.247-.502-.551-.503-.306-.001-.555.224-.556.503v2.238h-2.453c-.853 0-1.558.643-1.558 1.421v2.241H5.12c-.397 0-.699-.279-.699-.641V3.869c0-.225-.05-.441-.141-.637h20.897c.397 0 .699.275.699.637v4.345c0 .279.25.504.556.503.304-.001.55-.226.551-.503V5.682l2.081.507-.588 2.006c-.08.27.097.548.393.62.295.072.599-.089.678-.358l.732-2.492c.08-.27-.097-.547-.392-.619l-2.904-.711v-.766c0-.905-.814-1.649-1.806-1.649h-8.07L8.093.017A.592.592 0 007.913 0a.543.543 0 00-.499.374l-.54 1.846-4.371.01C1.563 2.286.808 3 .808 3.87V7.3c0 .278.247.502.551.503h1.955v6.651L.019 25.56c-.08.27.096.547.392.619l2.903.71v.763c0 .869.753 1.585 1.691 1.641l8.193.01zM8.342 1.123l4.484 1.097H8.019l.323-1.096zm-5.028 5.67H1.915V3.869c0-.362.303-.638.7-.638.397 0 .699.276.699.638v2.924zm4.815-2.745c-.307 0-.556.227-.555.507V7.3c.001.279.25.504.555.503h2.007c.304-.001.549-.226.55-.503 0-.279-.245-.506-.55-.507H8.684v-.361h1.452c.305-.001.551-.228.55-.507 0-.277-.246-.502-.55-.503H8.684v-.364h1.452c.304 0 .549-.226.55-.503 0-.279-.245-.506-.55-.507H8.129zm3.992 0a.585.585 0 00-.287.084c-.257.155-.327.47-.156.703l.798 1.092-.798 1.093a.479.479 0 00.156.698.588.588 0 00.767-.138l.542-.742.542.742c.17.233.515.295.77.138a.479.479 0 00.151-.698l-.798-1.093.798-1.092a.479.479 0 00-.151-.703.593.593 0 00-.33-.084.566.566 0 00-.44.227l-.542.742-.542-.742a.566.566 0 00-.48-.227zm4.029 0c-.306 0-.553.228-.552.507V7.3c.001.277.247.502.552.503.305 0 .553-.224.555-.503v-.868h.9V7.3c0 .277.247.502.551.503.306 0 .554-.224.555-.503V4.555c.001-.28-.248-.508-.555-.507H16.15zm4.013 0c-.306 0-.553.228-.552.507V7.3c0 .277.247.502.552.503.305 0 .553-.224.554-.503V6.218c.22.28.674.281.896.002V7.3c.001.278.25.503.555.502.305 0 .554-.224.555-.503V4.554c0-.28-.248-.508-.555-.507a.563.563 0 00-.493.273l-.506.693-.545-.74a.57.57 0 00-.461-.226zm-3.459 1.01h.9v.364h-.9v-.364zM7.378 8.165c-.308 0-.558.227-.556.507 0 .28.25.505.556.504h16.045c.304 0 .551-.226.552-.504.001-.279-.246-.506-.552-.507H7.378zm18.048.914c-.853 0-1.558.643-1.558 1.421 0 .065.014.13.041.19l.29.65c-1.96.787-3.336 2.574-3.336 4.65 0 2.799 2.5 5.08 5.569 5.08C29.5 21.07 32 18.788 32 15.99c0-2.077-1.377-3.865-3.34-4.651l.29-.649c.204-.457-.042-.937-.36-1.197a1.813 1.813 0 00-1.157-.414h-2.007zm0 1.01h2.007a.83.83 0 01.418.153c.098.08.078.057.073.068l-.32.716a6.086 6.086 0 00-1.172-.116 6.06 6.06 0 00-1.175.117l-.248-.556c.026-.208.18-.382.417-.382zm-19.553.363c-.308-.002-.557.226-.556.507v2.058c.001.28.25.505.556.504H7.88c.305-.002.55-.226.552-.504V10.96c.001-.28-.246-.506-.552-.507H5.873zm4.01 0c-.306 0-.553.227-.552.507.001.278.248.502.553.503H15.9c.304-.001.55-.226.552-.503 0-.28-.246-.506-.552-.507H9.884zm8.025 0c-.307-.002-.557.226-.556.507.002.279.25.504.556.503h1.5c.306.001.555-.224.557-.503 0-.28-.249-.509-.556-.507h-1.5zm-11.483 1.01h.9v1.048h-.9v-1.048zm20.558.492c.82.092 1.567.385 2.185.823l-.292.267a.474.474 0 000 .715.593.593 0 00.781 0l.294-.267c.481.563.802 1.244.904 1.99h-.413c-.307-.001-.557.227-.555.507 0 .28.25.506.555.504h.413a3.857 3.857 0 01-.904 1.994l-.294-.267a.585.585 0 00-.78 0 .474.474 0 000 .716l.291.266a4.672 4.672 0 01-2.185.823v-.377c0-.278-.247-.502-.551-.503-.306-.001-.555.224-.556.503v.376a4.666 4.666 0 01-2.18-.823l.291-.265a.474.474 0 000-.716.586.586 0 00-.785 0l-.291.266a3.861 3.861 0 01-.901-1.993h.408c.306.002.555-.225.556-.504 0-.28-.249-.508-.556-.507h-.408a3.858 3.858 0 01.901-1.988l.29.265a.593.593 0 00.786 0 .474.474 0 000-.715l-.293-.266a4.666 4.666 0 012.182-.823v.376c0 .28.25.505.556.504.304-.001.55-.226.551-.504v-.377zm-17.1.329c-.304 0-.55.225-.552.503-.001.28.246.507.553.508h1.001c.308 0 .557-.227.556-.508 0-.279-.25-.504-.556-.503H9.884zm3.009 0c-.304.001-.55.226-.552.503-.001.28.246.507.552.508h7.523c.306-.002.552-.229.551-.508 0-.277-.247-.502-.551-.503h-7.523zm13.515 1.372a.56.56 0 00-.474.28l-1.002 1.827a.471.471 0 00-.057.227c0 .39.092.777.352 1.097.26.32.715.537 1.206.537.49 0 .942-.216 1.201-.537.26-.32.352-.706.352-1.097a.47.47 0 00-.057-.227l-1.002-1.827a.563.563 0 00-.52-.28zM5.873 15.027c-.306 0-.555.225-.556.505v2.058c-.001.28.248.508.556.507H7.88c.306-.001.553-.228.552-.507v-2.06c0-.278-.247-.503-.552-.504H5.873zm4.01 0c-.304 0-.551.226-.552.505-.001.279.246.506.553.507h3.51c.307-.001.553-.229.552-.508 0-.278-.247-.503-.551-.504H9.884zm5.515 0c-.305.001-.551.226-.552.505 0 .278.246.506.552.507h.503c.306-.001.553-.229.552-.508-.001-.278-.248-.503-.552-.504h-.503zm11.034.266l.425.775c-.016.18-.055.344-.115.418-.071.087-.119.127-.31.127-.192 0-.244-.04-.315-.127-.06-.074-.099-.238-.115-.418l.43-.776zm-20.007.746h.9v1.047h-.9V16.04zm3.459.816c-.307 0-.554.227-.553.507 0 .278.248.504.553.504h1.001c.306.001.556-.225.556-.504.001-.28-.248-.508-.556-.507H9.884zm3.008 0c-.306 0-.553.228-.552.507 0 .278.247.503.552.504h6.517c.306.001.555-.225.556-.504 0-.28-.249-.508-.556-.507h-6.517zm-9.578 1.388v7.599l-2.081-.51 2.08-7.09zM5.873 19.6c-.308-.001-.557.226-.556.507v2.058c0 .28.25.506.556.505H7.88c.305-.002.552-.227.552-.505v-2.058c.001-.28-.246-.506-.552-.507H5.873zm4.01 0c-.306 0-.553.228-.552.507.001.278.248.503.553.503h2.505c.306.001.555-.224.556-.503 0-.28-.249-.508-.556-.507H9.884zm4.513 0c-.307-.001-.557.226-.556.507.001.279.25.504.556.503h1.505c.304 0 .55-.226.552-.503 0-.28-.246-.506-.552-.507h-1.505zm-7.971 1.01h.9v1.048h-.9V20.61zm3.459.821c-.305 0-.552.226-.553.503-.001.28.246.507.553.508h1.001c.308 0 .557-.227.556-.508 0-.279-.25-.504-.556-.503H9.884zm3.008 0c-.304.001-.55.226-.552.503-.001.28.246.507.552.508h11.532c.306 0 .554-.228.553-.508-.001-.277-.248-.502-.553-.503H12.892zm-7.02 2.287c-.307-.002-.556.226-.555.507.001.279.25.504.556.503h11.532c.305-.001.55-.226.552-.503.001-.28-.246-.507-.552-.508H5.873zm0 1.83c-.305-.001-.554.225-.555.504-.001.28.248.509.556.507h6.516c.307.002.557-.226.556-.507 0-.28-.25-.505-.556-.504H5.873zm17.55.094h2.454v.298l-2.58 2.353h-.322v-2.24c0-.233.194-.411.449-.411zm-5.939 3.662h5.026l-.492 1.108-4.534-1.108z"/></svg><svg viewBox="0 0 30.868 29.419" id="hero-icon-dark-01" xmlns="http://www.w3.org/2000/svg"><path d="M16.009 14.366c.256-.03.454-.312.455-.65V1.94a.726.726 0 00-.221-.541C15.39.652 14.44.186 13.443.046c-1.609-.068-2.641.2-3.894 1.304C8.651.407 7.414.034 6.411.001a4.665 4.665 0 00-.756.045c-.997.14-1.949.606-2.8 1.352a.726.726 0 00-.22.54v11.127h-.137c-.544 0-.998.594-.998 1.308v3.926c0 .714.454 1.308.998 1.308h.497v2.617H1.128c-.614 0-1.128.668-1.128 1.473v4.25c0 .804.514 1.472 1.128 1.472H17.84c.614 0 1.124-.668 1.124-1.473v-4.249c0-.805-.51-1.473-1.124-1.473h-.872v-2.617c0-.713-.455-1.308-1-1.308h-.997v-3.926l1.037-.007zM9.052 13.06h-5.42v-.985c1.124-.671 2.6-1.442 3.71-.895.259.129.547-.042.645-.38.096-.338-.034-.714-.29-.841-1.472-.725-2.934.048-4.064.724V2.378c.878-.703 1.836-1.081 2.847-1.05.607.02 1.232.186 1.871.52.314.185.472.356.56.54.091.186.141.431.141.854v9.818zm.998-9.818c0-.423.05-.668.14-.854.089-.184.243-.355.556-.54.64-.333 1.265-.5 1.872-.52 1.01-.03 1.97.348 2.848 1.05v8.305c-1.13-.675-2.59-1.449-4.06-.724-.259.125-.391.501-.295.84.097.34.386.512.645.383 1.11-.548 2.586.222 3.71.893v.985H10.05V3.242zm2.708-.706a3.83 3.83 0 00-1.912.456c-.255.139-.375.521-.27.855.105.335.397.494.653.356.954-.515 2.07-.436 3.087.016.261.117.546-.066.634-.41.089-.343-.052-.715-.314-.83v-.002a4.903 4.903 0 00-1.878-.44v-.001zm-6.392.001a3.873 3.873 0 00-1.93.454c-.256.134-.38.516-.277.85.103.335.394.497.65.362a3.09 3.09 0 011.535-.358c.277.01.507-.278.512-.64.006-.362-.214-.662-.49-.668zM30.367 29.39c.277.001.502-.293.501-.657v-3.97c.001-.362-.224-.657-.5-.656h-5.273c-.276.002-.498.296-.497.657v3.342c-1.063-.008-2.112.026-3.139-.028a.576.576 0 01-.32-.252c-.073-.123-.13-.31-.17-.56l-.53-8.157h7.898l-.21 3.288c-.022.36.183.677.457.706.274.028.515-.239.538-.598l.216-3.396h.1c.276.001.5-.29.501-.652.001-.363-.224-.658-.5-.656h-.623V7.419c.001-.362-.222-.656-.498-.657h-2.807c-.277-.001-.502.294-.5.657v1.555h-1.389V6.68a.748.748 0 00-.184-.507L22.034 4.7a.434.434 0 00-.302-.144.435.435 0 00-.324.144l-1.404 1.473a.745.745 0 00-.188.507v2.946c.001.362.225.654.5.652.275 0 .498-.292.499-.652V6.995l.905-.947.903.947v1.979h-.482c-.274.001-.496.292-.498.651v1.926l-.051-.09c-.095-.18-.253-.285-.42-.28-.152.005-.295.098-.387.256-.429.736-.858 1.47-1.286 2.207a.793.793 0 00-.103.396v3.76h-.063c-.275.002-.498.296-.497.657.001.36.223.65.497.652h.105l.551 8.422c.059.37.16.756.361 1.096.201.34.51.609.881.735.034.012.068.02.103.025l9.033.003zM6.343 5.153a3.826 3.826 0 00-1.911.456c-.256.136-.378.52-.273.854.104.336.397.496.652.358.955-.515 2.074-.438 3.091.016.26.114.542-.07.63-.41.09-.342-.049-.714-.31-.83a4.915 4.915 0 00-1.879-.443v-.001zm6.44.002a3.873 3.873 0 00-1.93.453c-.256.133-.382.514-.28.85.102.337.395.5.652.363a3.09 3.09 0 011.537-.358c.275.008.503-.282.508-.643.005-.36-.213-.656-.487-.665zM26.01 8.07h1.808v9.73H26.01V8.07zm-3.367 2.208h2.368v.902h-.622c-.276-.002-.5.29-.5.652-.002.364.223.659.5.657h.622v.898h-.622c-.275-.001-.5.29-.5.652-.002.363.223.658.5.657h.622v.898h-.622c-.277-.002-.502.293-.5.656 0 .362.225.654.5.652h.622v.898h-2.044v-3.66a.82.82 0 00-.062-.31 7.28 7.28 0 00-.262-.552v-3zm-1.47 2.646c.293.487.6.982.796 1.424V17.8h-1.573v-3.539l.777-1.337zM2.498 14.373h11.48v3.926H2.497v-3.926zm.99.974c-.275.002-.498.296-.497.657v.651c-.001.362.222.657.498.659.277 0 .502-.295.5-.659v-.651c.002-.363-.223-.658-.5-.657zm1.998.329c-.276.001-.498.295-.497.656 0 .36.223.65.497.652h6.988c.274-.002.496-.292.497-.652.002-.361-.221-.655-.497-.657H5.486zm-1.493 3.93H15.97v2.617H3.993v-2.616zm-2.865 3.927H17.84c.079 0 .126.06.126.163v4.25c0 .103-.047.163-.126.163H1.128c-.079 0-.13-.06-.13-.163v-4.25c0-.103.051-.163.13-.163zm20.87.174a.403.403 0 00-.13.025c-.266.093-.424.451-.353.8.048.238.047.78.15 1.349.053.284.137.596.332.863.195.268.497.437.814.459.274.018.508-.258.524-.617.013-.36-.198-.667-.472-.686-.12-.008-.124-.032-.143-.057a.75.75 0 01-.085-.266c-.058-.317-.043-.84-.155-1.387-.06-.285-.257-.483-.483-.483zm-20.005 1.13c-.275-.002-.5.29-.5.65v.652c-.002.364.223.659.5.657.276-.001.498-.295.497-.657v-.651c0-.36-.223-.65-.497-.652zm14.972 0c-.276-.002-.5.29-.501.65v.658c.001.36.225.652.5.651.275-.001.497-.292.498-.651v-.657c-.001-.36-.223-.65-.497-.652zm-13.476.322c-.276.002-.499.296-.498.657.001.36.223.65.498.652h11.479c.274-.001.497-.292.498-.652 0-.362-.222-.656-.498-.657H3.488zm22.107.257h.85v2.665h-.85v-2.665zm1.85 0h2.424v2.665h-2.424v-2.665z"/></svg><svg viewBox="0 0 30.868 29.419" id="hero-icon-dark-02" xmlns="http://www.w3.org/2000/svg"><path d="M10.656 0a8.487 8.487 0 00-1.968.223C8.031.387 7.467.605 7.06.951a2.187 2.187 0 00-1.554.299c-.497.319-.844.818-1.044 1.388a3.828 3.828 0 00.444 3.343H4.63a1.5 1.5 0 00-1.492 1.495c0 .82.673 1.498 1.492 1.498h.658c.329.728.948 1.357 1.646 1.86.296.212.61.399.93.56l-.175.622a.5.5 0 00-.21-.053.502.502 0 00-.287.085l-1.493.997a.499.499 0 00-.209.531l-3.139.901a.5.5 0 00-.217.133l-1.45 1.495a.496.496 0 00-.133.257S0 19.376 0 22.437a.498.498 0 00.5.5v5.982c-.001.275.22.5.496.5H18.92a.498.498 0 00.5-.5v-5.982a.498.498 0 00.496-.5c0-3.061-.55-6.075-.55-6.075a.498.498 0 00-.133-.257l-1.449-1.496a.495.495 0 00-.22-.132l-3.137-.9a.499.499 0 00-.207-.532l-1.496-.997a.496.496 0 00-.493-.031l-.173-.613a7.01 7.01 0 00.949-.571c.699-.502 1.318-1.131 1.646-1.86h.659c.818 0 1.491-.677 1.491-1.497a1.5 1.5 0 00-1.492-1.496h-.304c.335-.896.414-1.824.425-2.613A3.56 3.56 0 0013.94.904c-.76-.532-1.688-.789-2.612-.876A8.123 8.123 0 0010.656 0zm7.518.742c-.685 0-1.096.86-.669 1.395l1.415 1.775v9.299c0 .683.565 1.248 1.247 1.248h9.46c.68 0 1.241-.565 1.241-1.248V1.99c0-.683-.56-1.249-1.242-1.249H18.174zm-7.507.261c.188.001.377.008.568.02.8.074 1.564.301 2.132.699.564.395.947.941 1.07 1.774.02.713-.104 1.316-.328 2.024-1.686-.019-3.044-.204-4.024-.496-1.035-.31-1.636-.742-1.845-1.1a1.157 1.157 0 00-.257-.287.497.497 0 00-.666.228c-.398.81-1.07 1.073-1.487 1.295-.382-.732-.655-1.55-.431-2.19.14-.4.373-.707.644-.88.25-.161.539-.225.92-.138.119.12.319.31.667.547a.5.5 0 10.562-.825c-.08-.055-.115-.092-.18-.141.24-.124.551-.25.916-.341a7.51 7.51 0 011.74-.188zm7.798.737h11.161a.24.24 0 01.246.25v11.22a.24.24 0 01-.246.251h-9.46a.244.244 0 01-.25-.25V3.736a.499.499 0 00-.11-.31l-1.34-1.686zm3.443 1.248a.498.498 0 00-.495.5v2.99a.499.499 0 00.495.5.497.497 0 00.496-.5V5.98h.996v.497a.503.503 0 00.309.463.497.497 0 00.688-.463v-2.99a.499.499 0 00-.496-.5h-1.993zm3.984 0a.496.496 0 00-.5.5v2.99a.497.497 0 00.5.5h1.242c.681 0 1.247-.565 1.247-1.248 0-.28-.1-.538-.259-.748.16-.209.259-.466.259-.746 0-.682-.566-1.248-1.247-1.248h-1.242zm-3.488.998h.996v.997h-.996v-.997zm3.984 0h.746a.24.24 0 01.25.25c0 .147-.103.247-.25.247h-.746v-.497zm-18.59.96c.465.443 1.141.778 2 1.035 1.06.316 2.434.5 4.09.531v1.552c-.081.616-.663 1.385-1.462 1.959-.8.575-1.793.946-2.455.946-.662 0-1.655-.371-2.455-.946-.799-.574-1.38-1.343-1.463-1.959v-1.72c.417-.208 1.171-.663 1.746-1.399zm18.59.534h.746a.24.24 0 01.25.25.24.24 0 01-.25.25h-.746v-.5zM4.631 6.978h.426v.999h-.426a.487.487 0 01-.496-.501c0-.285.211-.498.496-.498zm10.254 0h.427c.284 0 .495.213.495.498 0 .285-.211.5-.495.5h-.427v-.998zm7.023.999a.497.497 0 00-.495.496v2.993a.5.5 0 00.495.497h1.993a.497.497 0 000-.994h-1.497V8.974h1.497a.497.497 0 00.35-.851.498.498 0 00-.35-.146h-1.993zm3.984 0a.498.498 0 00-.5.496v2.993a.499.499 0 00.5.497h1.242c.681 0 1.247-.563 1.247-1.245V9.22c0-.682-.566-1.243-1.247-1.243h-1.242zm.496.997h.746c.147 0 .25.1.25.246v1.498a.24.24 0 01-.25.25h-.746V8.975zm-17.596 2.8c.4.12.797.19 1.18.19.375 0 .765-.066 1.157-.184l.252.9-1.422 1.14-1.422-1.14.255-.907zm-1.35 1.308L9.216 14.5l-.751.752-1.705-1.713.684-.456zm5.032 0l.688.456-1.71 1.713-.746-.752 1.768-1.417zm-6.258 1.325l1.815 1.816.423 1.276-.978 7.868a.5.5 0 00.194.46l1.79 1.346v1.25H4.485v-5.486a.498.498 0 00.496-.5v-3.988a.498.498 0 10-.996 0v3.49H1.041c.073-2.61.46-5.146.48-5.264l1.045-1.077 1.083.698a.498.498 0 00.541-.836l-.504-.325 2.53-.728zm7.486 0l2.531.727-.502.326a.496.496 0 10.536.835l1.086-.699 1.046 1.08c.02.117.404 2.653.477 5.263h-2.944v-3.49a.498.498 0 10-.996 0v3.987a.498.498 0 00.5.501v5.485h-4.98v-1.246l1.793-1.349a.5.5 0 00.196-.46l-.983-7.866.428-1.279 1.812-1.815zm-3.743.759l.924.925-.287.86H9.324l-.287-.863.922-.922zm13.441 2.3a1.5 1.5 0 00-1.492 1.495v.501c0 .268.077.516.203.735a1.5 1.5 0 00-.698 1.26v.497c0 .527.28.994.697 1.261a1.474 1.474 0 00-.202.735v.5c0 .21.045.409.124.59a1.698 1.698 0 00-1.12 1.586v.6a1.7 1.7 0 001.695 1.693h6.571c.93 0 1.69-.762 1.69-1.693v-.6c0-.729-.469-1.35-1.118-1.587.078-.181.122-.38.122-.589v-.5c0-.529-.28-.993-.698-1.26.126-.218.203-.468.203-.736v-.497c0-.686-.474-1.266-1.107-1.44.07-.172.11-.359.11-.555v-.5a1.5 1.5 0 00-1.492-1.496H23.4zm-13.998.482h1.113l.904 7.257-1.459 1.097-1.462-1.097.904-7.256zm13.998.516h1.993v1.495H23.4a.483.483 0 01-.496-.497v-.5c0-.285.212-.498.496-.498zm2.988 0h.5c.284 0 .496.213.496.497v.501a.483.483 0 01-.496.497h-.5v-1.495zm-3.484 2.492h.496v1.498h-.496a.49.49 0 01-.5-.5v-.497c0-.285.216-.5.5-.5zm1.493 0h3.488c.284 0 .496.216.496.5v.498c0 .284-.212.5-.496.5h-3.488v-1.498zm-22.9 1.981h1.991v5.485H1.497v-5.485zm14.936 0h1.991v5.485h-1.991v-5.485zm6.967.516h3.488v1.48h-3.566a.476.476 0 01-.418-.483v-.5c0-.285.212-.497.496-.497zm4.485 0h.496c.284 0 .5.212.5.497v.5c0 .257-.18.446-.422.482h-.574v-1.48zm-5.278 2.476h6.571c.395 0 .694.302.694.697v.6a.68.68 0 01-.694.695h-6.571a.684.684 0 01-.699-.695v-.6c0-.396.304-.697.699-.697zm.793.498a.498.498 0 000 .998h4.98a.498.498 0 100-.998H23.4z"/></svg><svg viewBox="0 0 30.868 29.419" id="hero-icon-dark-03" xmlns="http://www.w3.org/2000/svg"><path d="M12.731 27.35l8.688 2.054c.26.06.53-.059.631-.279l.829-1.804a.541.541 0 00.193-.11l2.8-2.471a.446.446 0 00.157-.334V20.9c-.001-.259-.239-.468-.532-.47-.295 0-.535.21-.536.47v2.09h-2.367c-.823 0-1.502.599-1.502 1.325v2.092H4.939c-.383 0-.674-.26-.674-.599V3.611c0-.21-.049-.412-.137-.595h20.159c.383 0 .674.257.674.595v4.055c0 .26.24.47.536.47.293-.001.53-.21.532-.47V5.303l2.007.473-.567 1.873c-.077.251.093.51.378.578.286.067.579-.082.655-.334l.706-2.326c.077-.252-.093-.51-.379-.577l-2.8-.664V3.61c0-.844-.786-1.539-1.742-1.539h-7.785L7.806.016A.59.59 0 007.633 0c-.228.013-.422.154-.48.348L6.63 2.073l-4.217.01C1.508 2.133.78 2.8.78 3.61v3.202c.001.26.239.47.532.47h1.886v6.208L.018 23.855c-.076.252.093.51.378.578l2.8.662v.713c0 .81.728 1.479 1.632 1.531l7.903.01zM8.047 1.049l4.325 1.023H7.735l.312-1.023zm-4.85 5.29h-1.35V3.612c0-.338.292-.595.676-.595.383 0 .674.257.674.595V6.34zm4.645-2.561c-.297 0-.537.212-.535.473v2.562c0 .26.24.47.535.47h1.935c.294-.001.53-.21.531-.47 0-.26-.236-.472-.53-.473H8.376v-.337h1.4c.295-.001.532-.212.531-.473 0-.259-.237-.468-.53-.47H8.376v-.339h1.4c.294-.001.53-.211.531-.47 0-.26-.236-.472-.53-.473H7.841zm3.85 0a.575.575 0 00-.277.079c-.247.144-.315.438-.15.656l.77 1.02-.77 1.019c-.162.217-.095.508.15.652.245.144.576.086.74-.13l.523-.692.523.693c.164.217.497.275.742.129.244-.145.31-.436.146-.652l-.77-1.02.77-1.02c.166-.216.1-.51-.146-.655a.587.587 0 00-.318-.08.552.552 0 00-.424.212l-.523.693-.523-.693a.552.552 0 00-.463-.211zm3.886 0c-.295 0-.533.213-.532.473v2.562c.001.26.239.469.532.47.295 0 .535-.21.536-.47v-.81h.868v.81c0 .26.239.469.532.47.294 0 .534-.21.535-.47V4.251c.001-.261-.239-.474-.535-.473h-1.936zm3.871 0c-.295 0-.533.213-.532.473v2.562c.001.26.239.469.532.47.295 0 .534-.21.536-.47v-1.01c.21.262.65.263.864.003v1.006c0 .26.24.47.535.47.294 0 .534-.21.535-.47V4.25c.001-.261-.239-.474-.535-.473-.2 0-.384.098-.476.255l-.488.646-.525-.69a.556.556 0 00-.446-.211zm-3.335.943h.868v.34h-.868v-.34zm-8.997 2.9c-.297-.001-.538.212-.537.473.001.26.242.47.537.47h15.477c.294 0 .532-.21.533-.47.001-.26-.237-.472-.533-.473H7.117zm17.41.853c-.824 0-1.503.6-1.503 1.326 0 .061.014.121.04.178l.28.606c-1.892.734-3.219 2.403-3.219 4.34 0 2.612 2.412 4.74 5.372 4.74s5.371-2.128 5.371-4.74c0-1.939-1.328-3.608-3.222-4.341l.28-.605c.196-.427-.04-.875-.346-1.117a1.784 1.784 0 00-1.117-.387h-1.937zm0 .943h1.936a.82.82 0 01.403.143c.094.075.075.052.07.062l-.308.669a6.049 6.049 0 00-1.131-.108c-.389 0-.768.04-1.133.109l-.24-.52a.395.395 0 01.402-.355zm-18.862.338c-.296-.001-.537.211-.536.473v1.921c.001.26.241.471.536.47h1.937c.293-.001.53-.21.532-.47v-1.92c0-.261-.237-.473-.532-.474H5.665zm3.87 0c-.296 0-.535.213-.534.473.001.26.24.47.533.47h5.804c.294-.001.531-.21.533-.47 0-.26-.238-.472-.533-.473H9.534zm7.74 0c-.297-.001-.537.211-.536.473 0 .26.241.471.536.47h1.447c.295.001.535-.21.536-.47.002-.262-.24-.474-.536-.473h-1.447zm-11.078.943h.868v.978h-.868v-.978zm19.832.46c.79.085 1.51.358 2.108.768l-.282.248a.433.433 0 000 .668.586.586 0 00.753 0l.284-.25a3.55 3.55 0 01.871 1.858h-.397c-.297-.001-.538.211-.537.473.001.26.242.472.537.47h.397a3.551 3.551 0 01-.871 1.861l-.284-.248a.576.576 0 00-.753 0 .433.433 0 000 .667l.282.249a4.596 4.596 0 01-2.108.768v-.352c-.001-.259-.239-.469-.532-.47-.295 0-.535.21-.536.47v.351a4.594 4.594 0 01-2.104-.768l.282-.248a.433.433 0 000-.667.576.576 0 00-.758 0l-.28.247a3.55 3.55 0 01-.87-1.86h.394c.295.002.535-.21.536-.47.001-.262-.24-.474-.536-.473h-.394a3.55 3.55 0 01.87-1.856l.28.248a.586.586 0 00.758 0 .433.433 0 000-.668l-.283-.247a4.589 4.589 0 012.105-.769v.351c0 .26.24.471.536.47.293-.001.531-.21.532-.47v-.351zm-16.495.306c-.294 0-.532.21-.533.47-.001.26.238.473.533.473h.966c.297.001.538-.211.537-.473-.002-.26-.242-.47-.537-.47h-.966zm2.902 0c-.294.001-.531.21-.532.47-.001.26.237.472.532.473h7.256c.296 0 .534-.213.533-.473-.002-.26-.239-.469-.533-.47h-7.256zm13.037 1.28a.543.543 0 00-.457.262l-.966 1.705a.426.426 0 00-.056.212c0 .365.09.725.34 1.024.25.3.69.502 1.163.502.474 0 .909-.203 1.159-.502s.34-.66.34-1.024a.426.426 0 00-.056-.212l-.966-1.705a.548.548 0 00-.501-.262zM5.665 14.025c-.295 0-.535.21-.536.47v1.922c-.001.262.24.474.536.473h1.937c.295 0 .533-.213.532-.473v-1.921c0-.26-.238-.47-.532-.47H5.665zm3.87 0c-.295 0-.534.211-.534.47-.001.262.238.474.533.475h3.387c.295-.002.533-.214.532-.474 0-.26-.238-.47-.532-.47H9.534zm5.318 0c-.294.001-.531.212-.532.47 0 .261.237.473.532.475h.486c.294-.002.533-.214.532-.474-.001-.26-.239-.47-.533-.47h-.485zm10.644.248l.41.724c-.016.168-.053.32-.11.39-.07.082-.115.118-.3.118s-.235-.037-.304-.119c-.058-.069-.095-.22-.11-.389l.414-.724zm-19.3.697h.868v.977h-.868v-.977zm3.337.761c-.295 0-.534.213-.533.473 0 .26.239.47.533.471h.966c.296.001.536-.21.537-.47 0-.262-.24-.475-.537-.474h-.966zm2.902 0c-.295 0-.534.213-.532.473 0 .26.238.47.532.471h6.286c.296.001.536-.21.536-.47.002-.262-.24-.475-.536-.474h-6.286zm-9.24 1.296v7.091l-2.007-.475 2.008-6.616zm2.47 1.266c-.297 0-.538.212-.537.474v1.92c0 .261.24.472.536.471h1.937c.294 0 .531-.211.532-.47v-1.921c0-.26-.237-.473-.532-.474H5.665zm3.868 0c-.295 0-.534.213-.533.474.001.259.24.469.533.47h2.417c.295 0 .535-.21.536-.47 0-.262-.24-.475-.536-.474H9.534zm4.353 0c-.296-.001-.537.212-.536.474 0 .26.241.47.536.47h1.451c.294-.002.531-.212.533-.47 0-.26-.238-.473-.533-.474h-1.45zm-7.69.943h.868v.978h-.868v-.978zm3.337.766c-.294 0-.532.21-.533.47-.001.26.238.473.533.474h.966c.297 0 .538-.212.537-.474-.002-.26-.242-.47-.537-.47h-.966zm2.902 0c-.294.001-.531.211-.532.47-.001.26.237.473.532.474H23.56c.296 0 .535-.213.534-.474-.002-.26-.24-.47-.534-.47H12.436zm-6.77 2.134c-.297 0-.538.212-.537.474.001.26.241.47.536.47H16.79c.293-.002.53-.211.532-.47.001-.26-.237-.473-.532-.474H5.665zm0 1.709c-.296-.001-.536.21-.537.47-.001.262.24.475.536.474h6.286c.296 0 .537-.212.536-.474 0-.26-.241-.471-.536-.47H5.665zm16.928.087h2.367v.278l-2.489 2.197h-.31v-2.092c0-.216.187-.383.432-.383zm-5.73 3.418h4.848l-.474 1.034-4.373-1.034z"/></svg><svg viewBox="0 0 32.007 32.003" id="info-icon-01" xmlns="http://www.w3.org/2000/svg"><path d="M31.514 31.018h-.808v-9.38c.408-.026 1.298.169 1.298-.485 0-.653-.885-.46-1.298-.486v-9.38h.808a.488.488 0 00.41-.741l-3.232-5.158a.484.484 0 00-.411-.228h-6.91L16.344.137a.496.496 0 00-.686 0l-5.03 5.023h-6.91a.486.486 0 00-.411.228L.075 10.56a.486.486 0 00.41.742h.813v9.38c-.41.025-1.298-.17-1.298.486 0 .655.886.459 1.298.484v9.38H.486a.486.486 0 000 .971h31.028a.492.492 0 000-.985zm-21.17 0H2.265v-9.38h8.079v9.38zm0-10.345H2.265v-9.38h8.079v9.38zm0-10.345H1.36l2.626-4.202h6.358v4.202zm7.434 20.69h-3.556v-5.006a1.779 1.779 0 013.556 0v5.006zm2.909 0h-1.932v-5.006a2.749 2.749 0 00-5.495 0v5.006h-1.947V5.846L16 1.159l4.687 4.687v25.172zm9.05 0h-8.08v-9.38h8.08v9.38zm0-10.345h-8.08v-9.38h8.08v9.38zm-8.08-10.345V6.13h6.357l2.627 4.202-8.983-.004zm2.426 19.075h3.231a.485.485 0 00.485-.486v-3.552a2.102 2.102 0 00-4.201 0v3.556a.483.483 0 00.483.486l.002-.004zm.484-4.04a1.131 1.131 0 112.262 0v3.07h-2.263l.001-3.07zm-19.88 4.04H7.92a.486.486 0 00.485-.486v-3.552a2.103 2.103 0 00-4.203 0v3.556a.486.486 0 00.485.486l.001-.004zm.486-4.04a1.131 1.131 0 112.263 0v3.07H5.172l.001-3.07zm18.91-6.305h3.231a.483.483 0 00.485-.485v-3.554a2.1 2.1 0 10-4.201 0v3.557a.484.484 0 00.483.485l.002-.003zm.484-4.04a1.132 1.132 0 112.262 0v3.072h-2.263l.001-3.072zM16 12.918a2.103 2.103 0 00-2.1 2.101v6.144a.486.486 0 00.484.485h3.234a.487.487 0 00.484-.485V15.02A2.104 2.104 0 0016 12.918zm1.133 7.759h-2.264v-5.658a1.134 1.134 0 011.918-.775c.211.204.335.482.346.775v5.658zM13.899 8.23a2.102 2.102 0 004.202 0 2.102 2.102 0 00-4.202 0zm3.233 0a1.134 1.134 0 01-2.264 0 1.134 1.134 0 011.918-.775c.211.204.335.482.346.775zM4.686 19.06h3.233a.486.486 0 00.485-.484v-3.557a2.102 2.102 0 00-4.203 0v3.557a.487.487 0 00.485.485zm.486-4.04a1.131 1.131 0 112.262 0v3.073H5.172V15.02z"/></svg><svg viewBox="0 0 32 32" id="info-icon-02" xmlns="http://www.w3.org/2000/svg"><g clip-path="url(#awa)" stroke-width="2" stroke-linejoin="round" stroke-linecap="round"><path d="M16 10v2m0 8v2m-2-2h3c1.1 0 2-.9 2-2s-.9-2-2-2h-2c-1.1 0-2-.9-2-2s.9-2 2-2h3"/><path d="M16 6c5.5 0 10 4.5 10 10s-4.5 10-10 10S6 21.5 6 16v-3"/><path d="M10 17l-4-4-4 4M16 2c7.7 0 14 6.3 14 14s-6.3 14-14 14"/></g><defs><clipPath id="awa"><path d="M0 0h32v32H0z"/></clipPath></defs></svg><svg viewBox="0 0 31.308 26.693" id="info-icon-03" xmlns="http://www.w3.org/2000/svg"><path d="M11.138 3.419h9.032V.783c0-.433.351-.783.783-.783h3.505c.432 0 .782.35.782.783v2.636h1.952a4.126 4.126 0 014.116 4.116v15.042a4.126 4.126 0 01-4.116 4.116H4.116A4.126 4.126 0 010 22.577V7.535a4.126 4.126 0 014.116-4.116h1.952V.783c0-.433.35-.783.783-.783h3.504c.433 0 .783.35.783.783v2.636zm-6.809 8.687h2.18v2.18h-2.18v-2.18zm0 7.073h2.18v2.179h-2.18v-2.18zm16.346 0h2.18v2.179h-2.18v-2.18zm-5.449 0h2.18v2.179h-2.18v-2.18zm-5.448 0h2.179v2.179h-2.18v-2.18zm-5.449-3.537h2.18v2.18h-2.18v-2.18zm16.346 0h2.18v2.18h-2.18v-2.18zm-5.449 0h2.18v2.18h-2.18v-2.18zm-5.448 0h2.179v2.18h-2.18v-2.18zm10.897-3.536h2.18v2.18h-2.18v-2.18zm-5.449 0h2.18v2.18h-2.18v-2.18zm-5.448 0h2.179v2.18h-2.18v-2.18zM1.565 8.76h23.148c1.03 0 1.03 1.565 0 1.565H1.565v12.252c0 1.4 1.15 2.55 2.551 2.55h23.076a2.56 2.56 0 002.55-2.55V7.535a2.56 2.56 0 00-2.55-2.55H25.24v1.267c0 .433-.35.783-.782.783h-3.505a.783.783 0 01-.783-.783V4.984h-9.032v1.268c0 .433-.35.783-.783.783H6.851a.783.783 0 01-.783-.783V4.984H4.116a2.56 2.56 0 00-2.55 2.55V8.76zm8.008-7.195H7.634V5.47h1.939V1.565zm14.102 0h-1.94V5.47h1.94V1.565z"/></svg><svg viewBox="0 0 9.624 14.222" id="location" xmlns="http://www.w3.org/2000/svg"><path d="M8.218 1.236C7.28.412 6.145 0 4.812 0 3.479 0 2.344.412 1.406 1.236.47 2.06 0 3.056 0 4.222c0 .703.401 1.88 1.203 3.527a62.078 62.078 0 002.406 4.5c.802 1.351 1.203 2.009 1.203 1.972.125-.204.297-.482.516-.834a69.44 69.44 0 001.156-1.985 70.319 70.319 0 001.453-2.68c.416-.815.802-1.658 1.156-2.528.354-.87.531-1.528.531-1.972 0-1.167-.469-2.162-1.406-2.986zM5.843 5.111c-.291.259-.64.389-1.047.389-.406 0-.755-.13-1.046-.39-.292-.259-.438-.569-.438-.93 0-.36.146-.667.438-.916.291-.25.64-.375 1.046-.375.407 0 .756.125 1.047.375.292.25.438.555.438.916s-.146.671-.438.93z"/></svg><svg viewBox="0 0 24 24" id="modal-close" xmlns="http://www.w3.org/2000/svg"><rect rx="1.28" width="31.065" height="2.561" transform="matrix(.708 .70621 .708 -.70621 .192 1.809)"/><rect rx="1.28" width="31.065" height="2.561" transform="matrix(.708 -.70621 -.708 -.70621 1.813 24)"/></svg><svg viewBox="0 0 12 12" id="phone" xmlns="http://www.w3.org/2000/svg"><g clip-path="url(#baa)"><path d="M11.946 9.564l-.06-.18c-.141-.42-.605-.859-1.03-.974l-1.577-.43c-.428-.117-1.038.04-1.35.352l-.571.57a6.052 6.052 0 01-4.26-4.259l.571-.57c.313-.313.47-.922.353-1.35l-.43-1.577c-.116-.427-.555-.89-.975-1.03l-.18-.061c-.42-.14-1.02.002-1.333.314l-.853.855C.098 1.375 0 1.81 0 1.81a10.08 10.08 0 002.95 7.237 10.084 10.084 0 007.214 2.95c.014 0 .46-.095.613-.247l.854-.854c.313-.313.454-.912.314-1.333z"/></g><defs><clipPath id="baa"><path d="M0 0h12v12H0z"/></clipPath></defs></svg></svg>